<svg preserveAspectRatio="none" width="100%" height="100%" overflow="visible" style="display: block;" viewBox="0 0 84 55" fill="none" xmlns="http://www.w3.org/2000/svg">
<g id="CDB_Logo_BlueSmall 1" clip-path="url(#clip0_0_13)">
<path id="Vector" d="M17.9 18.54C13.2954 18.8057 8.96662 20.822 5.80056 24.176C2.63451 27.53 0.870817 31.9677 0.870817 36.58C0.870817 41.1923 2.63451 45.63 5.80056 48.984C8.96662 52.338 13.2954 54.3543 17.9 54.62C18.0263 54.6341 18.1542 54.6213 18.2752 54.5825C18.3962 54.5436 18.5076 54.4796 18.6021 54.3945C18.6966 54.3095 18.7719 54.2054 18.8233 54.0892C18.8746 53.9729 18.9008 53.8471 18.9 53.72V19.44C18.9 19.1987 18.8041 18.9672 18.6335 18.7965C18.4628 18.6259 18.2313 18.53 17.99 18.53M37.11 18.53C32.5054 18.7957 28.1766 20.812 25.0106 24.166C21.8445 27.52 20.0808 31.9577 20.0808 36.57C20.0808 41.1823 21.8445 45.62 25.0106 48.974C28.1766 52.328 32.5054 54.3443 37.11 54.61C37.2363 54.6241 37.3642 54.6113 37.4852 54.5725C37.6062 54.5336 37.7176 54.4696 37.8121 54.3845C37.9066 54.2995 37.982 54.1954 38.0333 54.0792C38.0846 53.9629 38.1108 53.8371 38.11 53.71V19.44C38.11 19.1987 38.0141 18.9672 37.8435 18.7965C37.6728 18.6259 37.4413 18.53 37.2 18.53M59.45 19.53V54.21C59.4486 54.2813 59.4617 54.3521 59.4883 54.4182C59.515 54.4844 59.5547 54.5444 59.6051 54.5949C59.6556 54.6453 59.7156 54.685 59.7818 54.7117C59.8479 54.7383 59.9187 54.7514 59.99 54.75C64.6583 54.6203 69.095 52.6882 72.37 49.359C75.645 46.0298 77.5039 41.5619 77.5569 36.8921C77.6099 32.2224 75.8529 27.7134 72.6544 24.3107C69.4558 20.908 65.0641 18.8757 60.4 18.64C60.281 18.64 60.1631 18.6636 60.0533 18.7095C59.9434 18.7553 59.8437 18.8225 59.76 18.9071C59.6763 18.9918 59.6103 19.0922 59.5656 19.2025C59.521 19.3129 59.4987 19.431 59.5 19.55M39.47 1.4C39.47 6.83 39.47 33.85 39.47 36.34C39.4601 36.4631 39.4601 36.5869 39.47 36.71C40.94 53.14 54.2 54.62 57.1 54.71C57.1724 54.7156 57.2452 54.706 57.3137 54.6817C57.3822 54.6575 57.4448 54.6192 57.4976 54.5692C57.5503 54.5193 57.592 54.4589 57.62 54.3918C57.648 54.3248 57.6616 54.2526 57.66 54.18V31C57.66 31 57.66 20.35 57.66 18.72C57.66 18.59 57.66 18.45 57.66 18.31C56.49 3.09 44.05 0.85 40.45 0.52H40.36C40.124 0.52 39.8976 0.613768 39.7307 0.780675C39.5638 0.947582 39.47 1.17396 39.47 1.41" fill="var(--fill-0, #AAAAAA)"/>
<path id="Vector_2" d="M83.78 50.73C83.782 51.5037 83.5543 52.2607 83.1259 52.905C82.6975 53.5493 82.0875 54.052 81.3732 54.3495C80.659 54.647 79.8725 54.7258 79.1133 54.5761C78.3542 54.4263 77.6566 54.0547 77.1088 53.5083C76.5609 52.9619 76.1876 52.2652 76.0359 51.5065C75.8842 50.7478 75.961 49.9611 76.2567 49.246C76.5523 48.531 77.0535 47.9197 77.6967 47.4897C78.3399 47.0596 79.0963 46.83 79.87 46.83C80.9053 46.83 81.8983 47.2406 82.6313 47.9717C83.3642 48.7028 83.7774 49.6947 83.78 50.73Z" fill="var(--fill-0, #AAAAAA)"/>
</g>
<defs>
<clipPath id="clip0_0_13">
<rect width="84" height="55" fill="white"/>
</clipPath>
</defs>
</svg>
