<svg preserveAspectRatio="none" width="100%" height="100%" overflow="visible" style="display: block;" viewBox="0 0 88.5417 18.3479" fill="none" xmlns="http://www.w3.org/2000/svg">
<g id="Group">
<path id="Vector" fill-rule="evenodd" clip-rule="evenodd" d="M0 18.2973C0 12.2043 0 6.12385 0 0.00335015C0.0837907 0.00335015 0.171595 0.00335015 0.2594 0.00335015C2.1911 0.00335015 4.1228 -0.00564893 6.05451 0.00585107C7.77096 0.0163511 9.43222 0.30985 10.9786 1.08635C13.5927 2.39885 15.0683 4.54485 15.5349 7.39285C15.8395 9.25035 15.714 11.0869 15.0171 12.8494C13.9619 15.5179 11.954 17.1263 9.2245 17.8943C8.19744 18.1833 7.14479 18.3074 6.07809 18.3074C4.1213 18.3079 2.16451 18.3079 0.207721 18.3074C0.142996 18.3079 0.0777698 18.3013 0 18.2973ZM3.83581 14.5034C4.41381 14.5034 4.97175 14.4979 5.52969 14.5049C6.32545 14.5149 7.11719 14.4844 7.89539 14.2999C9.31381 13.9639 10.4773 13.2679 11.1943 11.9549C11.7608 10.9184 11.8857 9.79335 11.8205 8.63785C11.6865 6.26135 10.3163 4.61935 7.99975 4.04385C6.64204 3.70685 5.26025 3.82035 3.88448 3.81685C3.87193 3.81685 3.85889 3.83585 3.83531 3.85435C3.83581 7.38385 3.83581 10.9219 3.83581 14.5034Z" fill="var(--fill-0, #AAAAAA)" fill-opacity="0.666667"/>
<path id="Vector_2" fill-rule="evenodd" clip-rule="evenodd" d="M79.2831 0.00185089C84.4219 0.00185089 88.5437 4.09985 88.5417 9.20785C88.5402 14.2614 84.3908 18.3499 79.2665 18.3479C74.1628 18.3459 70.03 14.2369 70.0315 9.16635C70.033 4.10085 74.1708 0.00185089 79.2831 0.00185089ZM84.8178 9.16835C84.8128 6.14785 82.3417 3.69885 79.2951 3.69585C76.237 3.69285 73.7549 6.15235 73.7599 9.18035C73.7649 12.2124 76.2475 14.6614 79.3072 14.6529C82.3522 14.6444 84.8223 12.1859 84.8178 9.16835Z" fill="var(--fill-0, #AAAAAA)" fill-opacity="0.666667"/>
<path id="Vector_3" fill-rule="evenodd" clip-rule="evenodd" d="M34.1194 11.0163C31.6528 11.0163 29.2314 11.0163 26.7955 11.0163C26.7955 9.74685 26.7955 8.50035 26.7955 7.22435C29.2264 7.22435 31.6548 7.22435 34.1098 7.22435C34.1098 4.80835 34.1098 2.42135 34.1098 0.0173508C35.4008 0.0173508 36.6657 0.0173508 37.9567 0.0173508C37.9567 2.41335 37.9567 4.80035 37.9567 7.21785C40.4112 7.21785 42.8391 7.21785 45.2796 7.21785C45.2796 8.49435 45.2796 9.73985 45.2796 11.0163C42.8421 11.0163 40.4147 11.0163 37.9617 11.0163C37.9617 13.4514 37.9617 15.8554 37.9617 18.2779C36.6722 18.2779 35.4083 18.2779 34.1194 18.2779C34.1194 15.8624 34.1194 13.4579 34.1194 11.0163Z" fill="var(--fill-0, #AAAAAA)" fill-opacity="0.666667"/>
<path id="Vector_4" fill-rule="evenodd" clip-rule="evenodd" d="M66.3959 11.0214C63.9589 11.0214 61.5305 11.0214 59.0765 11.0214C59.0765 13.4549 59.0765 15.8593 59.0765 18.2798C57.793 18.2798 56.5351 18.2798 55.2437 18.2798C55.2437 15.8683 55.2437 13.4579 55.2437 11.0254C52.7881 11.0254 50.3662 11.0254 47.9243 11.0254C47.9243 9.75185 47.9243 8.50035 47.9243 7.22685C50.3507 7.22685 52.7726 7.22685 55.2301 7.22685C55.2301 4.81285 55.2301 2.42035 55.2301 0.0133514C56.5241 0.0133514 57.783 0.0133514 59.0684 0.0133514C59.0684 2.40235 59.0684 4.78985 59.0684 7.20785C61.5224 7.20785 63.9499 7.20785 66.3964 7.20785C66.3959 8.49035 66.3959 9.74135 66.3959 11.0214Z" fill="var(--fill-0, #AAAAAA)" fill-opacity="0.666667"/>
<path id="Vector_5" fill-rule="evenodd" clip-rule="evenodd" d="M23.1869 18.2899C21.9165 18.2899 20.6647 18.2899 19.3928 18.2899C19.3928 12.2004 19.3928 6.11685 19.3928 0.0168503C20.6527 0.0168503 21.91 0.0168503 23.1869 0.0168503C23.1869 6.09635 23.1869 12.1794 23.1869 18.2899Z" fill="var(--fill-0, #AAAAAA)" fill-opacity="0.666667"/>
</g>
</svg>
