<svg preserveAspectRatio="none" width="100%" height="100%" overflow="visible" style="display: block;" viewBox="0 0 119.464 9.97013" fill="none" xmlns="http://www.w3.org/2000/svg">
<g id="Group">
<g id="Group_2">
<path id="Vector" d="M9.26539 0.166506H11.5685C11.9656 0.166506 12.3627 0.166505 12.7598 0.219355C14.8246 0.589303 16.2012 2.51832 15.9894 4.55303C15.8835 5.9007 15.2747 6.66702 14.2952 7.59189C13.4216 8.46391 12.6539 8.96599 11.4361 9.01884H9.23892L9.26539 0.166506ZM12.3097 8.19967C13.0774 8.17324 13.7922 7.88257 14.4011 7.43335C14.9305 6.71987 15.1952 5.9007 15.2217 5.02868C15.2482 4.15666 14.957 3.31106 14.4805 2.62402C13.7657 1.59345 12.548 0.959252 11.3038 0.959252H10.2449V8.19967C12.0185 8.19967 12.1244 8.19967 12.3097 8.19967Z" fill="var(--fill-0, #AAAAAA)"/>
<path id="Vector_2" d="M17.2336 5.74215C16.8895 3.73386 18.2661 1.61987 19.9338 0.615727C20.6486 0.166504 21.5222 -0.0448957 22.3958 0.00795406C24.1165 0.166503 25.5725 1.40847 26.0225 3.09966C26.7108 5.6893 24.0106 9.17738 21.2574 9.17738C19.2191 9.17738 17.5778 7.67117 17.2336 5.74215ZM24.4871 7.56547C24.9901 6.90485 25.2813 6.1121 25.3342 5.29293C25.4401 3.60174 24.5665 2.04267 23.137 1.27635C21.734 0.536452 20.1191 0.668577 18.8484 1.61987C18.0807 2.65044 17.816 3.91883 18.1072 5.13438C18.5572 7.01054 20.1721 8.33179 22.0781 8.33179C22.9517 8.35821 23.7723 8.06754 24.4871 7.56547Z" fill="var(--fill-0, #AAAAAA)"/>
<path id="Vector_3" d="M40.0529 0.166506H41.1383L45.5063 6.77272V0.166506H46.0093V9.01884H45.4533L40.5295 1.4349V9.01884H40.0265L40.0529 0.166506Z" fill="var(--fill-0, #AAAAAA)"/>
<path id="Vector_4" d="M50.1655 0.827128H47.4123V0.166506H54.1628V0.827128H51.4097V9.01884H50.1655V0.827128Z" fill="var(--fill-0, #AAAAAA)"/>
<path id="Vector_5" d="M54.4011 5.74215C54.0569 3.73386 55.4335 1.61987 57.1013 0.615727C57.816 0.166504 58.6896 -0.0448957 59.5632 0.00795406C61.2839 0.166503 62.7399 1.40847 63.1899 3.09966C63.8782 5.6893 61.2045 9.17738 58.4249 9.17738C56.3865 9.17738 54.7452 7.67117 54.4011 5.74215ZM61.6545 7.56547C62.1575 6.90485 62.4487 6.1121 62.5017 5.29293C62.6075 3.60174 61.734 2.04267 60.3044 1.27635C58.9014 0.536452 57.2866 0.668577 56.0159 1.61987C55.2482 2.65044 54.9835 3.91883 55.2747 5.13438C55.7247 7.01054 57.3395 8.33179 59.2455 8.33179C60.1191 8.35821 60.9398 8.06754 61.6545 7.56547Z" fill="var(--fill-0, #AAAAAA)"/>
<path id="Vector_6" d="M26.949 0.166506H28.1933L30.3375 8.62247L32.4553 0.166506H33.5672L35.6585 8.62247L38.1734 0.166506H38.7028L36.0556 9.01884H34.5996L32.6406 1.5406L30.7346 9.01884H29.2786L26.949 0.166506Z" fill="var(--fill-0, #AAAAAA)"/>
<path id="Vector_7" d="M77.2998 0.166506H78.3852L82.7531 6.77272V0.166506H83.2561V9.01884H82.7002L77.7763 1.4349V9.01884H77.2998V0.166506Z" fill="var(--fill-0, #AAAAAA)"/>
<path id="Vector_8" d="M64.1959 0.166506H65.4401L67.6109 8.62247L69.7287 0.166506H70.8405L72.9318 8.62247L75.4467 0.166506H75.9762L73.3289 9.01884H71.8729L69.914 1.5406L68.008 9.01884H66.552L64.1959 0.166506Z" fill="var(--fill-0, #AAAAAA)"/>
</g>
<path id="Vector_9" d="M1.21774 8.80744C0.847121 8.80744 0.529451 8.70174 0.31767 8.51676C0.10589 8.33179 0 8.06754 0 7.75044C0 7.35407 0.158835 7.0634 0.502978 6.82557C0.847121 6.58775 1.29715 6.48205 1.9325 6.4292L2.51489 6.37635C2.59431 6.37635 2.64725 6.3235 2.64725 6.27065V6.05925C2.64725 5.795 2.56784 5.5836 2.409 5.42505C2.25017 5.2665 2.01191 5.18723 1.74719 5.18723C1.32363 5.18723 0.953011 5.3722 0.688286 5.76858C0.661813 5.795 0.661813 5.82143 0.635341 5.82143C0.608868 5.82143 0.608868 5.82143 0.582396 5.82143L0.185308 5.6893C0.158835 5.6893 0.158835 5.66288 0.158835 5.63645C0.158835 5.61003 0.158835 5.61003 0.185308 5.55718C0.31767 5.29293 0.529451 5.10795 0.820649 4.94941C1.08537 4.81728 1.40304 4.73801 1.77366 4.73801C2.25017 4.73801 2.62078 4.84371 2.85903 5.08153C3.09729 5.31935 3.22965 5.61003 3.22965 6.0064V8.59604C3.22965 8.64889 3.22965 8.67531 3.20318 8.67531C3.1767 8.70174 3.15023 8.70174 3.12376 8.70174H2.75314C2.7002 8.70174 2.64725 8.64889 2.64725 8.59604L2.62078 8.25251C2.62078 8.22609 2.59431 8.19966 2.59431 8.19966C2.59431 8.19966 2.54136 8.19967 2.51489 8.22609C2.14428 8.62246 1.72071 8.80744 1.21774 8.80744ZM2.51489 6.7463L2.03839 6.79915C1.58835 6.82557 1.24421 6.90485 0.979484 7.06339C0.714758 7.22194 0.608868 7.40692 0.608868 7.67117C0.608868 7.88257 0.688286 8.04111 0.820649 8.17324C0.953011 8.30536 1.16479 8.35822 1.42952 8.35822C1.58835 8.35822 1.72071 8.33179 1.87955 8.27894C2.01191 8.22609 2.14428 8.14682 2.27664 8.06754C2.38253 7.98827 2.48842 7.88256 2.54136 7.77687C2.59431 7.67117 2.64725 7.59189 2.64725 7.48619V6.87842C2.62078 6.79915 2.59431 6.7463 2.51489 6.7463Z" fill="var(--fill-0, #AAAAAA)"/>
<g id="Group_3">
<path id="Vector_10" d="M91.2244 5.02868C91.4891 5.18723 91.6744 5.42505 91.8332 5.6893L91.8597 5.74215C91.8597 5.76858 91.8332 5.795 91.8067 5.795L91.4097 5.9007H91.3832C91.3567 5.9007 91.3302 5.87428 91.3038 5.84785C91.1449 5.63645 90.9861 5.4779 90.8537 5.39863C90.7214 5.29293 90.5361 5.2665 90.3508 5.2665C89.9801 5.2665 89.6625 5.39863 89.4507 5.6893C89.2389 5.97998 89.1066 6.34993 89.1066 6.82557C89.1066 7.30122 89.2124 7.69759 89.4507 7.96184C89.6889 8.22609 89.9801 8.38464 90.3772 8.38464C90.6155 8.38464 90.8008 8.33179 90.9861 8.22609C91.1714 8.12039 91.3302 7.93542 91.4626 7.69759C91.4891 7.67117 91.4891 7.67117 91.5156 7.64474C91.542 7.64474 91.542 7.64474 91.5685 7.64474L91.8862 7.75044C91.9126 7.77687 91.9391 7.80329 91.9126 7.85614C91.7538 8.14682 91.542 8.35822 91.3038 8.54319C91.039 8.72816 90.7214 8.80744 90.3508 8.80744C89.9801 8.80744 89.689 8.72816 89.3978 8.54319C89.1066 8.35822 88.8948 8.14682 88.7359 7.82972C88.5771 7.53905 88.4977 7.16909 88.4977 6.79915C88.4977 6.4292 88.5771 6.05925 88.7359 5.74215C88.8948 5.42505 89.1066 5.18723 89.3978 5.02868C89.689 4.84371 90.0066 4.76443 90.3508 4.76443C90.6949 4.76443 90.9861 4.87013 91.2244 5.02868Z" fill="var(--fill-0, #AAAAAA)"/>
<path id="Vector_11" d="M93.3422 8.54319C93.051 8.38464 92.8392 8.14682 92.6804 7.82972C92.5215 7.53905 92.4421 7.19552 92.4421 6.79915C92.4421 6.40277 92.5215 6.05925 92.6804 5.74215C92.8392 5.42505 93.051 5.18723 93.3422 5.02868C93.6334 4.84371 93.951 4.76443 94.2952 4.76443C94.6393 4.76443 94.9835 4.84371 95.2482 5.02868C95.5394 5.21365 95.7512 5.45148 95.91 5.74215C96.0688 6.03283 96.1483 6.40277 96.1483 6.79915C96.1483 7.19552 96.0688 7.53905 95.91 7.82972C95.7512 8.12039 95.5394 8.35822 95.2482 8.54319C94.957 8.72816 94.6393 8.80744 94.2952 8.80744C93.951 8.80744 93.6069 8.72816 93.3422 8.54319ZM95.2217 7.93542C95.4335 7.67117 95.5394 7.27479 95.5394 6.79915C95.5394 6.3235 95.4335 5.95355 95.2217 5.66288C95.0099 5.3722 94.7187 5.24008 94.3216 5.24008C93.9246 5.24008 93.6334 5.3722 93.4216 5.66288C93.2098 5.95355 93.1039 6.3235 93.1039 6.79915C93.1039 7.27479 93.2098 7.64474 93.4216 7.93542C93.6334 8.22609 93.951 8.35822 94.3216 8.35822C94.6923 8.35822 95.0099 8.19967 95.2217 7.93542Z" fill="var(--fill-0, #AAAAAA)"/>
<path id="Vector_12" d="M97.0748 8.62246V4.94941C97.0748 4.89656 97.1013 4.84371 97.1542 4.84371H97.6042C97.6572 4.84371 97.6837 4.87013 97.6837 4.92298V5.34578C97.6837 5.39863 97.7101 5.42505 97.7631 5.3722C98.0278 5.16081 98.2396 5.00226 98.4249 4.92298C98.6102 4.84371 98.822 4.79086 99.0338 4.79086C99.2985 4.79086 99.5367 4.84371 99.722 4.97583C99.9074 5.10796 100.013 5.24008 100.093 5.42505C100.093 5.45148 100.119 5.45148 100.119 5.45148C100.146 5.45148 100.172 5.45148 100.199 5.42505C100.463 5.21365 100.675 5.0551 100.887 4.94941C101.099 4.84371 101.31 4.79086 101.522 4.79086C101.866 4.79086 102.158 4.89656 102.343 5.08153C102.555 5.29293 102.634 5.55718 102.634 5.9007V8.59604C102.634 8.67531 102.608 8.70174 102.528 8.70174H102.131C102.078 8.70174 102.025 8.67531 102.025 8.59604V5.97998C102.025 5.74215 101.972 5.55718 101.84 5.42505C101.707 5.29293 101.549 5.21365 101.31 5.21365C101.125 5.21365 100.94 5.2665 100.754 5.34578C100.569 5.45148 100.41 5.55718 100.251 5.6893C100.199 5.74215 100.172 5.76858 100.172 5.795C100.146 5.82143 100.146 5.87428 100.146 5.9007V8.54319C100.146 8.62246 100.119 8.64889 100.04 8.64889H99.6426C99.5897 8.64889 99.5367 8.62246 99.5367 8.54319V5.92712C99.5367 5.42505 99.2985 5.1608 98.822 5.1608C98.6367 5.1608 98.4514 5.21365 98.2925 5.29293C98.1337 5.3722 97.9219 5.53075 97.6837 5.74215V8.59604C97.6837 8.64889 97.6837 8.67531 97.6572 8.67531C97.6307 8.70174 97.6042 8.70174 97.5778 8.70174H97.1807C97.1013 8.70174 97.0748 8.67531 97.0748 8.62246Z" fill="var(--fill-0, #AAAAAA)"/>
<path id="Vector_13" d="M104.302 4.94941V5.2665C104.302 5.31935 104.302 5.34578 104.328 5.34578C104.355 5.34578 104.355 5.34578 104.381 5.31936C104.487 5.21366 104.567 5.13438 104.646 5.08153C104.725 5.02868 104.831 4.94941 104.99 4.89656C105.149 4.84371 105.308 4.81728 105.52 4.81728C105.837 4.81728 106.102 4.89656 106.34 5.02868C106.578 5.16081 106.764 5.39863 106.923 5.6893C107.055 5.97998 107.134 6.34993 107.134 6.77272C107.134 7.19552 107.055 7.56547 106.923 7.88257C106.79 8.19967 106.578 8.43749 106.34 8.59604C106.075 8.75459 105.784 8.83386 105.467 8.83386C105.069 8.83386 104.725 8.70174 104.434 8.46391C104.408 8.43749 104.381 8.41106 104.355 8.41106C104.328 8.41106 104.328 8.43749 104.328 8.51676V9.86443C104.328 9.91728 104.302 9.97013 104.249 9.97013H103.772C103.719 9.97013 103.693 9.94371 103.693 9.86443V5.00225C103.693 4.9494 103.693 4.92298 103.719 4.92298C103.746 4.89656 103.772 4.89656 103.799 4.89656H104.196C104.275 4.87013 104.302 4.89656 104.302 4.94941ZM104.778 8.22609C104.937 8.30537 105.122 8.35822 105.308 8.35822C105.678 8.35822 105.97 8.22609 106.181 7.93542C106.393 7.64474 106.525 7.24837 106.525 6.7463C106.525 6.24422 106.42 5.87428 106.208 5.61003C105.996 5.34578 105.705 5.24008 105.361 5.24008C105.175 5.24008 104.99 5.29293 104.831 5.3722C104.672 5.45148 104.54 5.55718 104.461 5.6893C104.381 5.82143 104.328 5.95355 104.328 6.08568V7.88257C104.461 8.04112 104.619 8.14682 104.778 8.22609Z" fill="var(--fill-0, #AAAAAA)"/>
<path id="Vector_14" d="M109.04 8.80744C108.67 8.80744 108.352 8.70174 108.14 8.51676C107.929 8.33179 107.823 8.06754 107.823 7.75044C107.823 7.35407 107.981 7.0634 108.326 6.82557C108.67 6.58775 109.12 6.48205 109.755 6.4292L110.338 6.37635C110.417 6.37635 110.47 6.3235 110.47 6.27065V6.05925C110.47 5.795 110.39 5.5836 110.232 5.42505C110.073 5.2665 109.835 5.18723 109.57 5.18723C109.146 5.18723 108.776 5.37221 108.511 5.76858C108.484 5.795 108.484 5.82143 108.458 5.82143C108.432 5.82143 108.432 5.82143 108.405 5.82143L108.008 5.6893C107.981 5.6893 107.981 5.66288 107.981 5.63645C107.981 5.61003 107.981 5.61003 108.008 5.55718C108.14 5.29293 108.352 5.10795 108.643 4.94941C108.908 4.81728 109.226 4.73801 109.596 4.73801C110.073 4.73801 110.443 4.84371 110.708 5.08153C110.973 5.31935 111.079 5.61003 111.079 6.0064V8.59604C111.079 8.64889 111.079 8.67531 111.052 8.67531C111.026 8.70174 110.999 8.70174 110.973 8.70174H110.602C110.549 8.70174 110.523 8.64889 110.496 8.59604L110.47 8.25251C110.47 8.22609 110.443 8.19967 110.443 8.19967C110.443 8.19967 110.39 8.19967 110.364 8.22609C109.967 8.62246 109.517 8.80744 109.04 8.80744ZM110.311 6.7463L109.835 6.79915C109.385 6.82557 109.04 6.90485 108.776 7.0634C108.511 7.22194 108.405 7.40692 108.405 7.67117C108.405 7.88257 108.484 8.04111 108.617 8.17324C108.749 8.30536 108.961 8.35822 109.226 8.35822C109.385 8.35822 109.517 8.33179 109.676 8.27894C109.808 8.22609 109.94 8.14682 110.073 8.06754C110.179 7.98827 110.285 7.88257 110.338 7.77687C110.39 7.67117 110.417 7.59189 110.417 7.48619V6.87842C110.417 6.79915 110.39 6.7463 110.311 6.7463Z" fill="var(--fill-0, #AAAAAA)"/>
<path id="Vector_15" d="M112.085 8.62246V4.94941C112.085 4.89656 112.111 4.84371 112.164 4.84371H112.614C112.667 4.84371 112.694 4.87013 112.694 4.92298V5.34578C112.694 5.39863 112.72 5.39863 112.773 5.3722C113.038 5.16081 113.276 5.00226 113.461 4.92298C113.647 4.84371 113.858 4.79086 114.123 4.79086C114.494 4.79086 114.785 4.89656 114.997 5.08153C115.208 5.29293 115.314 5.55718 115.314 5.87428V8.59604C115.314 8.67531 115.288 8.70174 115.208 8.70174H114.811C114.758 8.70174 114.705 8.67531 114.705 8.59604V5.97998C114.705 5.74215 114.653 5.55718 114.52 5.42505C114.388 5.29293 114.203 5.21365 113.938 5.21365C113.726 5.21365 113.541 5.2665 113.382 5.34578C113.223 5.42505 112.985 5.5836 112.747 5.795V8.59604C112.747 8.64889 112.747 8.67531 112.72 8.67531C112.694 8.70174 112.667 8.70174 112.641 8.70174H112.244C112.138 8.72816 112.085 8.67531 112.085 8.62246Z" fill="var(--fill-0, #AAAAAA)"/>
<path id="Vector_16" d="M116.214 9.91728C116.161 9.91728 116.109 9.89086 116.109 9.83801V9.54734C116.109 9.52091 116.109 9.49448 116.161 9.46806C116.188 9.44163 116.241 9.44163 116.32 9.44163H116.77C116.876 9.44163 116.982 9.38878 117.088 9.30951C117.194 9.23023 117.273 9.12454 117.326 8.99241C117.379 8.86029 117.406 8.75459 117.406 8.62246C117.406 8.54319 117.406 8.49034 117.379 8.43749L115.976 4.94941C115.976 4.94941 115.976 4.92298 115.976 4.89656C115.976 4.84371 116.003 4.81728 116.056 4.81728H116.506C116.559 4.81728 116.585 4.84371 116.612 4.89656L117.697 7.72402C117.723 7.77687 117.723 7.80329 117.75 7.80329C117.776 7.80329 117.803 7.77687 117.829 7.72402L118.915 4.89656C118.941 4.84371 118.968 4.81728 119.021 4.81728H119.365C119.391 4.81728 119.418 4.81728 119.444 4.84371C119.471 4.87013 119.471 4.89656 119.444 4.92298L117.829 9.04526C117.697 9.38878 117.538 9.60018 117.353 9.73231C117.167 9.86443 116.903 9.91728 116.559 9.91728C116.4 9.94371 116.294 9.91728 116.214 9.91728Z" fill="var(--fill-0, #AAAAAA)"/>
</g>
</g>
</svg>
