<svg preserveAspectRatio="none" width="100%" height="100%" overflow="visible" style="display: block;" viewBox="0 0 120 27.5083" fill="none" xmlns="http://www.w3.org/2000/svg">
<g id="Group">
<path id="Vector" d="M7.78293 0.105699C3.49437 0.105699 0 3.59378 0 7.87461V27.5083H1.29715V7.87461C1.29715 4.30725 4.20913 1.40052 7.78293 1.40052H26.9226V0.0792746L7.78293 0.105699Z" fill="var(--fill-0, #AAAAAA)"/>
<path id="Vector_2" d="M16.0688 11.072H11.1449C8.89477 11.072 7.06817 12.8953 7.06817 15.1415V17.0705H8.63005V15.1415C8.63005 13.7674 9.76837 12.6311 11.1449 12.6311H16.0688C17.4454 12.6311 18.5837 13.7674 18.5837 15.1415V17.0705H20.1456V15.1415C20.1456 12.8953 18.319 11.072 16.0688 11.072Z" fill="var(--fill-0, #AAAAAA)"/>
<path id="Vector_3" d="M56.4924 0.105699V19.7922C56.4924 23.1746 53.7128 25.9492 50.3243 25.9492H38.0675C34.8114 25.9492 32.1641 23.3067 32.1641 20.0565V0.105699H30.6022V20.0565C30.6022 24.1788 33.9643 27.5083 38.0675 27.5083H50.3243C54.5864 27.5083 58.0543 24.0466 58.0543 19.7922V0.105699H56.4924Z" fill="var(--fill-0, #AAAAAA)"/>
<path id="Vector_4" d="M69.1727 1.55907H88.8948V0H69.1727C65.043 0 61.7075 3.09171 61.7075 7.21399V19.6865C61.7075 23.9409 65.1754 27.4026 69.4375 27.4026H88.8948V25.8435H69.4375C66.049 25.8435 63.2694 23.0689 63.2694 19.6865V7.21399C63.2694 3.93731 65.9166 1.55907 69.1727 1.55907Z" fill="var(--fill-0, #AAAAAA)"/>
<path id="Vector_5" d="M112.535 0H100.278C96.0159 0 92.548 3.46166 92.548 7.71606V27.4026H94.1099V7.71606C94.1099 4.30725 96.8895 1.55907 100.278 1.55907H112.535C115.791 1.55907 118.438 4.20155 118.438 7.45181V27.4026H120V7.45181C120 3.35596 116.664 0 112.535 0Z" fill="var(--fill-0, #AAAAAA)"/>
<path id="Vector_6" d="M41.8531 6.10415H46.777C49.0271 6.10415 50.8537 4.28083 50.8537 2.03471V0.105699H49.2919V2.03471C49.2919 3.40881 48.1535 4.54508 46.777 4.54508H41.8531C40.4765 4.54508 39.3382 3.40881 39.3382 2.03471V0.105699H37.7763V2.03471C37.7763 4.28083 39.6029 6.10415 41.8531 6.10415Z" fill="var(--fill-0, #AAAAAA)"/>
<path id="Vector_7" d="M84.818 10.7021H79.8941C77.6439 10.7021 75.8173 12.5254 75.8173 14.7715V16.7005H77.3792V14.7715C77.3792 13.3974 78.5175 12.2611 79.8941 12.2611H84.818C86.1946 12.2611 87.3329 13.3974 87.3329 14.7715V16.7005H88.8948V14.7715C88.8948 12.5254 87.0682 10.7021 84.818 10.7021Z" fill="var(--fill-0, #AAAAAA)"/>
<path id="Vector_8" d="M108.749 21.4041H103.825C101.575 21.4041 99.7485 23.2275 99.7485 25.4736V27.4026H101.31V25.4736C101.31 24.0995 102.449 22.9632 103.825 22.9632H108.749C110.126 22.9632 111.264 24.0995 111.264 25.4736V27.4026H112.826V25.4736C112.826 23.2275 110.999 21.4041 108.749 21.4041Z" fill="var(--fill-0, #AAAAAA)"/>
</g>
</svg>
