<svg preserveAspectRatio="none" width="100%" height="100%" overflow="visible" style="display: block;" viewBox="0 0 175 50" fill="none" xmlns="http://www.w3.org/2000/svg">
<g id="tunecore_logo_white 1" clip-path="url(#clip0_0_35)">
<path id="Vector" d="M107.271 30.1596C106.986 30.8438 106.586 31.5279 106.187 32.0981C105.559 32.9533 104.874 33.6374 104.133 34.1505C103.391 34.7206 102.478 35.1767 101.508 35.4618C100.538 35.8039 99.5109 35.9179 98.4839 35.9179C97.1144 35.9179 95.8591 35.6328 94.6038 35.0627C93.4056 34.4926 92.3215 33.7514 91.5227 32.8392C90.6097 31.87 89.925 30.7868 89.4115 29.5325C88.955 28.2782 88.6697 26.9099 88.6697 25.4846C88.6697 24.0593 88.955 22.748 89.4115 21.4937C89.9821 20.2395 90.6668 19.1562 91.5227 18.187C92.4356 17.2178 93.4627 16.5336 94.6038 15.9635C95.8021 15.3934 97.1144 15.1083 98.4839 15.1083C99.568 15.1083 100.709 15.2223 101.679 15.5644C102.649 15.9065 103.562 16.3056 104.304 16.9327C105.046 17.5029 105.73 18.244 106.301 18.9852C106.7 19.6123 107.157 20.2395 107.385 20.9236H109.61C109.211 19.7263 108.697 18.6431 108.013 17.6739C107.328 16.7047 106.586 15.9065 105.616 15.1653C104.703 14.4812 103.619 13.9111 102.421 13.512C101.223 13.1129 100.024 12.9418 98.655 12.9418C97.0003 12.9418 95.4597 13.2839 94.0333 13.9111C92.6068 14.5382 91.3515 15.4504 90.2674 16.5907C89.1832 17.6739 88.3273 18.9852 87.6997 20.5245C87.0721 22.0639 86.7297 23.6032 86.7297 25.3706C86.7297 27.138 87.0721 28.7343 87.6997 30.2737C88.3273 31.813 89.1262 33.1243 90.2674 34.2645C91.2944 35.3478 92.6068 36.26 94.0333 36.9441C95.4597 37.5713 97.0003 37.9133 98.655 37.9133C99.9674 37.9133 101.166 37.6853 102.307 37.3432C103.505 37.0011 104.532 36.431 105.502 35.7469C106.472 35.0627 107.271 34.2075 108.013 33.1813C108.697 32.2121 109.325 31.1289 109.724 29.8746L107.271 30.1596Z" fill="var(--fill-0, #AAAAAA)"/>
<path id="Vector_2" d="M133.689 20.6956C133.062 19.1562 132.263 17.8449 131.122 16.7047C130.037 15.6214 128.782 14.7092 127.356 14.0821C125.929 13.455 124.332 13.1129 122.677 13.1129C121.022 13.1129 119.482 13.455 117.998 14.0821C116.572 14.7092 115.259 15.6214 114.232 16.7617C113.148 17.8449 112.292 19.2702 111.664 20.7526C111.037 22.2919 110.694 23.9453 110.694 25.6556C110.694 27.423 111.037 29.0194 111.664 30.6157C112.292 32.1551 113.091 33.5234 114.232 34.6066C115.316 35.6899 116.572 36.6021 117.998 37.2862C119.425 37.9133 121.022 38.2554 122.677 38.2554C124.332 38.2554 125.872 37.9133 127.356 37.2862C128.782 36.6591 130.095 35.7469 131.122 34.6066C132.206 33.5234 133.062 32.0981 133.689 30.6157C134.317 29.0764 134.659 27.423 134.659 25.6556C134.659 23.8883 134.317 22.2349 133.689 20.6956ZM131.806 29.7605C131.35 31.0148 130.551 32.0981 129.695 33.0673C128.782 34.0365 127.755 34.7206 126.5 35.2908C125.245 35.8609 123.989 36.146 122.62 36.146C121.25 36.146 119.995 35.8609 118.74 35.2908C117.485 34.7206 116.457 34.0365 115.545 33.0673C114.632 32.0981 113.947 31.0148 113.433 29.7605C112.92 28.5063 112.692 27.138 112.692 25.7127C112.692 24.2873 112.977 22.862 113.433 21.6648C114.004 20.4105 114.689 19.3273 115.545 18.358C116.457 17.3888 117.485 16.7047 118.74 16.1345C119.938 15.5644 121.25 15.2794 122.62 15.2794C123.989 15.2794 125.302 15.5644 126.5 16.0205C127.755 16.5907 128.782 17.2748 129.695 18.244C130.608 19.1562 131.293 20.2395 131.749 21.5507C132.206 22.805 132.491 24.1733 132.491 25.7127C132.548 27.138 132.32 28.5063 131.806 29.7605Z" fill="var(--fill-0, #AAAAAA)"/>
<path id="Vector_3" d="M154.459 37.2862H152.233V31.3569C152.233 30.1596 151.891 29.3044 151.263 28.6773C150.636 28.0502 149.609 27.7651 148.239 27.7651H138.939V37.2862H136.656V13.1129H145.9C147.155 13.1129 149.666 13.3409 150.636 13.683C151.606 14.0251 152.405 14.5382 153.146 15.2224C153.831 15.8495 154.345 16.5907 154.687 17.5599C155.029 18.4721 155.086 19.5553 155.086 20.5815C155.086 21.8928 154.858 22.919 154.345 23.8883C153.774 24.8575 152.975 25.6556 151.948 26.2828C153.66 27.252 154.516 28.9624 154.516 31.3569V37.2862H154.459ZM147.269 25.5416C148.696 25.5416 150.122 25.1425 151.035 24.5154C152.119 23.7742 152.975 22.862 152.975 20.3535C152.975 17.8449 152.062 16.8187 150.978 16.1345C150.008 15.5074 148.411 15.1653 146.984 15.1653H138.996V25.4846H147.269V25.5416Z" fill="var(--fill-0, #AAAAAA)"/>
<path id="Vector_4" d="M175 13.1129V15.2224H159.936V23.9453H173.516V26.0547H159.936V35.0627H175V37.1722H157.768V13.1129H175Z" fill="var(--fill-0, #AAAAAA)"/>
<path id="Vector_5" d="M10.7271 33.1243C10.0994 33.0103 9.52885 32.7252 9.07238 32.3831C8.61591 32.041 8.15944 31.4709 7.98826 30.8438C7.70297 30.2166 7.58885 29.3044 7.58885 28.3352V17.2748H12.9524V13.1129H7.58885V8.09578H3.30942V13.1129H0.057059V17.2748H3.30942V28.3922C3.30942 29.9316 3.53766 31.2999 3.99413 32.4401C4.4506 33.5804 5.07825 34.5496 5.93414 35.3478C6.79002 36.0889 7.81708 36.6591 8.95826 37.0011C9.70003 37.2292 10.5559 37.3432 11.4689 37.3432C11.8683 37.3432 12.3818 37.3432 12.8383 37.2862H12.9524V33.2953H12.7242C12.1536 33.3523 11.4118 33.2953 10.7271 33.1243ZM31.0401 27.8791C31.0401 28.7343 30.926 29.5325 30.5836 30.2737C30.2983 31.0148 29.8419 31.642 29.3283 32.2121C28.7577 32.7822 28.1301 33.1813 27.4454 33.4664C26.7036 33.7514 25.9048 33.8655 25.106 33.8655C23.223 33.8655 21.8536 33.2953 20.8836 32.2121C19.9136 31.1288 19.4571 29.6465 19.4571 27.8221V13.1129H15.1777V27.5941C15.1777 29.1334 15.4059 30.5017 15.8053 31.642C16.2048 32.8962 16.8324 33.9795 17.5742 34.8917C18.4301 35.8039 19.343 36.545 20.5412 37.0011C21.7395 37.4572 23.0518 37.7423 24.4783 37.7423C26.0189 37.7423 27.3313 37.4572 28.5295 36.8871C29.5566 36.431 30.4695 35.6899 31.2113 34.9487V37.2292H35.3766V13.2269H31.0972V27.9361H31.0401V27.8791ZM55.4614 15.3934C54.6055 14.4812 53.6925 13.74 52.4943 13.2839C51.2961 12.8278 49.9837 12.5428 48.5572 12.5428C47.1307 12.5428 45.7043 12.8278 44.5631 13.455C43.536 13.9111 42.6231 14.6522 41.8813 15.4504V13.1699H37.716V37.2862H41.9954V22.577C41.9954 21.7218 42.1096 20.9236 42.3948 20.1824C42.6801 19.4413 43.0796 18.8141 43.6501 18.301C44.2207 17.7309 44.8484 17.3318 45.5902 17.0468C46.3319 16.7047 47.1878 16.5907 47.9866 16.5907C49.8696 16.5907 51.239 17.1608 52.209 18.301C53.179 19.4413 53.6355 20.9236 53.6355 22.691V37.2862H57.9149V22.862C57.9149 21.3227 57.6867 19.9544 57.2873 18.7001C56.8878 17.3888 56.2602 16.3056 55.4614 15.3934ZM84.162 26.2258C84.162 24.1163 83.8197 22.1779 83.135 20.5245C82.4503 18.8712 81.5373 17.4458 80.4532 16.2486C79.3691 15.0513 78.0567 14.1961 76.5161 13.569C75.0897 12.9418 73.5491 12.5998 71.9514 12.5998C70.2967 12.5998 68.6991 12.9418 67.2155 13.626C65.789 14.3101 64.4767 15.2223 63.3355 16.3056C62.2514 17.3888 61.3955 18.8141 60.7108 20.2965C60.0831 21.8358 59.7408 23.4892 59.7408 25.2566C59.7408 27.0239 60.0831 28.6773 60.7108 30.2166C61.3384 31.756 62.2514 33.0673 63.3355 34.2075C64.4196 35.2908 65.732 36.203 67.2726 36.8871C68.8132 37.5143 70.3538 37.8563 72.1797 37.8563C74.9185 37.8563 77.372 37.1722 79.3691 35.8039C81.3091 34.4356 82.7356 32.4401 83.5915 29.8176L83.6485 29.5325H79.0838L79.0267 29.6465C78.3991 30.9578 77.4861 32.041 76.345 32.8392C75.1467 33.5804 73.7773 33.9225 72.1226 33.9225C71.1526 33.9225 70.2396 33.6944 69.3838 33.3523C68.5279 33.0103 67.672 32.4972 66.8732 31.813C66.1314 31.1859 65.5037 30.3877 64.9902 29.4185C64.5337 28.5063 64.2485 27.48 64.0773 26.3968H83.9909V26.2258H84.162ZM64.4767 22.52C64.7049 21.6078 65.1043 20.8096 65.5608 20.1254C66.1314 19.3843 66.6449 18.7001 67.3296 18.13C68.0143 17.5599 68.6991 17.1608 69.5549 16.8757C71.1526 16.3056 72.8644 16.3056 74.4049 16.8757C75.1467 17.1608 75.9455 17.6169 76.6303 18.187C77.315 18.7571 77.8856 19.4413 78.342 20.1824C78.7985 20.8666 79.1979 21.7218 79.3691 22.52H64.4767Z" fill="var(--fill-0, #AAAAAA)"/>
</g>
<defs>
<clipPath id="clip0_0_35">
<rect width="175" height="50" fill="white"/>
</clipPath>
</defs>
</svg>
