<svg width="44" height="44" viewBox="0 0 44 44" fill="none" xmlns="http://www.w3.org/2000/svg">
<path d="M21 15C21 19 20.3333 21 15 21C9.66667 21 9 19 9 15C9 11 9.75 9 15 9C20.25 9 21 11 21 15Z" fill="#7B00D4" stroke="#7B00D4" stroke-width="1.5" stroke-linecap="round" stroke-linejoin="round"/>
<path d="M21 31C21 35 20.3333 37 15 37C9.66667 37 9 35 9 31C9 27 9.75 25 15 25C20.25 25 21 27 21 31Z" fill="#7B00D4" stroke="#7B00D4" stroke-width="1.5" stroke-linecap="round" stroke-linejoin="round"/>
<path d="M37 31C37 35 36.3333 37 31 37C25.6667 37 25 35 25 31C25 27 25.75 25 31 25C36.25 25 37 27 37 31Z" fill="#7B00D4" stroke="#7B00D4" stroke-width="1.5" stroke-linecap="round" stroke-linejoin="round"/>
</svg>
