<svg width="46" height="46" viewBox="0 0 46 46" fill="none" xmlns="http://www.w3.org/2000/svg">
<path d="M1 9C1 4.58172 4.58172 1 9 1H37C41.4183 1 45 4.58172 45 9V37C45 41.4183 41.4183 45 37 45H9C4.58172 45 1 41.4183 1 37V9Z" fill="url(#paint0_linear_1_6857)"/>
<path d="M1 9C1 4.58172 4.58172 1 9 1H37C41.4183 1 45 4.58172 45 9V37C45 41.4183 41.4183 45 37 45H9C4.58172 45 1 41.4183 1 37V9Z" stroke="#CA98EE" stroke-width="2"/>
<g clip-path="url(#clip0_1_6857)">
<path d="M22 13.833C23.423 13.833 24.7907 14.3844 25.8156 15.3716C26.8405 16.3588 27.443 17.7047 27.4963 19.1268L27.5 19.333H28.4167C28.8792 19.3329 29.3247 19.5075 29.6638 19.822C30.003 20.1365 30.2107 20.5676 30.2454 21.0288L30.25 21.1663V30.333C30.2501 30.7955 30.0755 31.241 29.761 31.5802C29.4465 31.9193 29.0154 32.1271 28.5542 32.1618L28.4167 32.1663H15.5833C15.1208 32.1665 14.6753 31.9918 14.3362 31.6773C13.997 31.3628 13.7893 30.9317 13.7546 30.4705L13.75 30.333V21.1663C13.7499 20.7038 13.9245 20.2583 14.239 19.9192C14.5535 19.58 14.9846 19.3723 15.4458 19.3376L15.5833 19.333H16.5C16.5 17.8743 17.0795 16.4754 18.1109 15.4439C19.1424 14.4125 20.5413 13.833 22 13.833ZM28.4167 21.1663H15.5833V30.333H28.4167V21.1663ZM22 22.9997C22.391 22.9998 22.7718 23.125 23.0867 23.3569C23.4015 23.5888 23.634 23.9153 23.7501 24.2887C23.8662 24.6621 23.8599 25.0628 23.732 25.4324C23.6042 25.8019 23.3615 26.1209 23.0395 26.3428L22.9167 26.4207V27.583C22.9164 27.8166 22.8269 28.0414 22.6666 28.2113C22.5062 28.3812 22.287 28.4834 22.0537 28.4971C21.8205 28.5108 21.5908 28.4349 21.4117 28.2849C21.2325 28.135 21.1173 27.9223 21.0898 27.6903L21.0833 27.583V26.4207C20.7338 26.2189 20.4607 25.9074 20.3063 25.5345C20.1519 25.1617 20.1248 24.7483 20.2292 24.3585C20.3337 23.9687 20.5638 23.6242 20.884 23.3785C21.2042 23.1329 21.5964 22.9997 22 22.9997ZM22 15.6663C21.0275 15.6663 20.0949 16.0526 19.4073 16.7403C18.7196 17.4279 18.3333 18.3605 18.3333 19.333H25.6667C25.6667 18.3605 25.2804 17.4279 24.5927 16.7403C23.9051 16.0526 22.9725 15.6663 22 15.6663Z" fill="#F4F4F4"/>
</g>
<defs>
<linearGradient id="paint0_linear_1_6857" x1="1" y1="1" x2="42.5" y2="41" gradientUnits="userSpaceOnUse">
<stop stop-color="#B400D4"/>
<stop offset="1" stop-color="#F0CAF6"/>
</linearGradient>
<clipPath id="clip0_1_6857">
<rect width="22" height="22" fill="white" transform="translate(11 12)"/>
</clipPath>
</defs>
</svg>
