<svg width="65" height="64" viewBox="0 0 65 64" fill="none" xmlns="http://www.w3.org/2000/svg">
<g filter="url(#filter0_d_1_5518)">
<rect x="10.666" y="8" width="44" height="44" rx="12" fill="white" shape-rendering="crispEdges"/>
<g clip-path="url(#clip0_1_5518)">
<path d="M34.166 22C34.166 21.6022 34.008 21.2206 33.7267 20.9393C33.4454 20.658 33.0638 20.5 32.666 20.5C32.2682 20.5 31.8867 20.658 31.6054 20.9393C31.3241 21.2206 31.166 21.6022 31.166 22V22.5H30.166C28.9725 22.5 27.8279 22.9741 26.984 23.818C26.1401 24.6619 25.666 25.8065 25.666 27C25.666 28.1935 26.1401 29.3381 26.984 30.182C27.8279 31.0259 28.9725 31.5 30.166 31.5H35.166C35.5638 31.5 35.9454 31.658 36.2267 31.9393C36.508 32.2206 36.666 32.6022 36.666 33C36.666 33.3978 36.508 33.7794 36.2267 34.0607C35.9454 34.342 35.5638 34.5 35.166 34.5H27.666C27.2682 34.5 26.8867 34.658 26.6054 34.9393C26.3241 35.2206 26.166 35.6022 26.166 36C26.166 36.3978 26.3241 36.7794 26.6054 37.0607C26.8867 37.342 27.2682 37.5 27.666 37.5H31.166V38C31.166 38.3978 31.3241 38.7794 31.6054 39.0607C31.8867 39.342 32.2682 39.5 32.666 39.5C33.0638 39.5 33.4454 39.342 33.7267 39.0607C34.008 38.7794 34.166 38.3978 34.166 38V37.5H35.166C36.3595 37.5 37.5041 37.0259 38.348 36.182C39.1919 35.3381 39.666 34.1935 39.666 33C39.666 31.8065 39.1919 30.6619 38.348 29.818C37.5041 28.9741 36.3595 28.5 35.166 28.5H30.166C29.7682 28.5 29.3867 28.342 29.1054 28.0607C28.8241 27.7794 28.666 27.3978 28.666 27C28.666 26.6022 28.8241 26.2206 29.1054 25.9393C29.3867 25.658 29.7682 25.5 30.166 25.5H37.666C38.0638 25.5 38.4454 25.342 38.7267 25.0607C39.008 24.7794 39.166 24.3978 39.166 24C39.166 23.6022 39.008 23.2206 38.7267 22.9393C38.4454 22.658 38.0638 22.5 37.666 22.5H34.166V22Z" fill="#7B00D4"/>
</g>
</g>
<defs>
<filter id="filter0_d_1_5518" x="0.666016" y="0" width="64" height="64" filterUnits="userSpaceOnUse" color-interpolation-filters="sRGB">
<feFlood flood-opacity="0" result="BackgroundImageFix"/>
<feColorMatrix in="SourceAlpha" type="matrix" values="0 0 0 0 0 0 0 0 0 0 0 0 0 0 0 0 0 0 127 0" result="hardAlpha"/>
<feOffset dy="2"/>
<feGaussianBlur stdDeviation="5"/>
<feComposite in2="hardAlpha" operator="out"/>
<feColorMatrix type="matrix" values="0 0 0 0 0.486275 0 0 0 0 0.552941 0 0 0 0 0.709804 0 0 0 0.12 0"/>
<feBlend mode="normal" in2="BackgroundImageFix" result="effect1_dropShadow_1_5518"/>
<feBlend mode="normal" in="SourceGraphic" in2="effect1_dropShadow_1_5518" result="shape"/>
</filter>
<clipPath id="clip0_1_5518">
<rect width="24" height="24" fill="white" transform="translate(20.666 18)"/>
</clipPath>
</defs>
</svg>
