<svg xmlns="http://www.w3.org/2000/svg" width="20" height="20" viewBox="0 0 20 20" fill="none">
  <g clip-path="url(#clip0_207_15145)">
    <path d="M15.0013 1.66699L18.3346 5.00033M1.66797 18.3337L2.73164 14.4335C2.80103 14.1791 2.83573 14.0519 2.889 13.9332C2.93629 13.8279 2.9944 13.7278 3.0624 13.6344C3.13898 13.5293 3.23223 13.4361 3.41872 13.2496L12.0299 4.6384C12.1949 4.47339 12.2774 4.39089 12.3725 4.35997C12.4562 4.33278 12.5464 4.33278 12.6301 4.35997C12.7252 4.39089 12.8077 4.47339 12.9727 4.6384L15.3632 7.02892C15.5282 7.19393 15.6107 7.27643 15.6417 7.37157C15.6688 7.45525 15.6688 7.5454 15.6417 7.62908C15.6107 7.72422 15.5282 7.80672 15.3632 7.97173L6.75206 16.5829C6.56556 16.7694 6.47231 16.8626 6.3672 16.9392C6.27388 17.0072 6.17374 17.0653 6.0684 17.1126C5.94976 17.1659 5.82253 17.2006 5.56808 17.27L1.66797 18.3337Z" stroke="#A4A7AE" stroke-width="1.66667" stroke-linecap="round" stroke-linejoin="round"/>
  </g>
  <defs>
    <clipPath id="clip0_207_15145">
      <rect width="20" height="20" fill="white"/>
    </clipPath>
  </defs>
</svg>