<svg width="64" height="64" viewBox="0 0 64 64" fill="none" xmlns="http://www.w3.org/2000/svg">
<g filter="url(#filter0_d_1_10261)">
<rect x="10" y="8" width="44" height="44" rx="12" fill="white" shape-rendering="crispEdges"/>
<g clip-path="url(#clip0_1_10261)">
<path d="M32 20C32.892 20 34.01 20.113 34.941 20.428C35.405 20.584 35.891 20.813 36.277 21.161C36.683 21.526 37 22.048 37 22.714C37 23.356 36.706 23.886 36.353 24.28C36.1549 24.4984 35.9325 24.6933 35.69 24.861C38.675 26.284 41 29.335 41 33C41 35.556 39.98 37.386 38.234 38.525C36.559 39.617 34.33 40 32 40C29.67 40 27.44 39.617 25.766 38.525C24.02 37.386 23 35.555 23 33C23 29.335 25.325 26.284 28.31 24.861C28.0676 24.6936 27.8451 24.499 27.647 24.281C27.294 23.885 27 23.355 27 22.713C27 22.047 27.317 21.525 27.723 21.16C28.109 20.812 28.595 20.583 29.059 20.427C29.99 20.113 31.108 20 32 20ZM32 26C28.512 26 25 29.092 25 33C25 34.944 25.73 36.114 26.859 36.85C28.059 37.633 29.83 38 32 38C34.17 38 35.94 37.633 37.141 36.85C38.27 36.114 39 34.944 39 33C39 29.092 35.488 26 32 26ZM33.947 28.606C34.184 28.7246 34.3642 28.9325 34.448 29.184C34.5319 29.4354 34.5124 29.7099 34.394 29.947L33.868 31H34C34.2652 31 34.5196 31.1054 34.7071 31.2929C34.8946 31.4804 35 31.7348 35 32C35 32.2652 34.8946 32.5196 34.7071 32.7071C34.5196 32.8946 34.2652 33 34 33H33V33.5H34C34.2652 33.5 34.5196 33.6054 34.7071 33.7929C34.8946 33.9804 35 34.2348 35 34.5C35 34.7652 34.8946 35.0196 34.7071 35.2071C34.5196 35.3946 34.2652 35.5 34 35.5H33V36C33 36.2652 32.8946 36.5196 32.7071 36.7071C32.5196 36.8946 32.2652 37 32 37C31.7348 37 31.4804 36.8946 31.2929 36.7071C31.1054 36.5196 31 36.2652 31 36V35.5H30C29.7348 35.5 29.4804 35.3946 29.2929 35.2071C29.1054 35.0196 29 34.7652 29 34.5C29 34.2348 29.1054 33.9804 29.2929 33.7929C29.4804 33.6054 29.7348 33.5 30 33.5H31V33H30C29.7348 33 29.4804 32.8946 29.2929 32.7071C29.1054 32.5196 29 32.2652 29 32C29 31.7348 29.1054 31.4804 29.2929 31.2929C29.4804 31.1054 29.7348 31 30 31H30.132L29.606 29.947C29.5424 29.8291 29.5032 29.6997 29.4906 29.5663C29.478 29.433 29.4923 29.2985 29.5327 29.1708C29.5731 29.0431 29.6387 28.9249 29.7257 28.823C29.8126 28.7212 29.9192 28.6378 30.039 28.5779C30.1588 28.518 30.2893 28.4828 30.423 28.4744C30.5567 28.4659 30.6906 28.4844 30.817 28.5287C30.9434 28.573 31.0596 28.6422 31.1587 28.7323C31.2578 28.8224 31.3378 28.9314 31.394 29.053L32 30.263L32.606 29.053C32.7246 28.816 32.9325 28.6358 33.184 28.552C33.4354 28.4681 33.7099 28.4876 33.947 28.606ZM32 22C31.235 22 30.353 22.101 29.699 22.322C29.369 22.434 29.166 22.552 29.061 22.647L29.009 22.702C29.0057 22.7065 29.0027 22.7112 29 22.716L29.007 22.748C29.0364 22.8227 29.0807 22.8908 29.137 22.948C29.277 23.104 29.512 23.282 29.839 23.451C30.499 23.793 31.342 24 32 24C32.658 24 33.502 23.793 34.161 23.451C34.488 23.282 34.722 23.104 34.863 22.947C34.9192 22.8901 34.9634 22.8224 34.993 22.748L35 22.716L34.972 22.68C34.9615 22.6685 34.9505 22.6575 34.939 22.647C34.834 22.553 34.631 22.434 34.301 22.322C33.647 22.102 32.765 22 32 22Z" fill="#7B00D4"/>
</g>
</g>
<defs>
<filter id="filter0_d_1_10261" x="0" y="0" width="64" height="64" filterUnits="userSpaceOnUse" color-interpolation-filters="sRGB">
<feFlood flood-opacity="0" result="BackgroundImageFix"/>
<feColorMatrix in="SourceAlpha" type="matrix" values="0 0 0 0 0 0 0 0 0 0 0 0 0 0 0 0 0 0 127 0" result="hardAlpha"/>
<feOffset dy="2"/>
<feGaussianBlur stdDeviation="5"/>
<feComposite in2="hardAlpha" operator="out"/>
<feColorMatrix type="matrix" values="0 0 0 0 0.486275 0 0 0 0 0.552941 0 0 0 0 0.709804 0 0 0 0.12 0"/>
<feBlend mode="normal" in2="BackgroundImageFix" result="effect1_dropShadow_1_10261"/>
<feBlend mode="normal" in="SourceGraphic" in2="effect1_dropShadow_1_10261" result="shape"/>
</filter>
<clipPath id="clip0_1_10261">
<rect width="24" height="24" fill="white" transform="translate(20 18)"/>
</clipPath>
</defs>
</svg>
