<svg width="64" height="64" viewBox="0 0 64 64" fill="none" xmlns="http://www.w3.org/2000/svg">
<g filter="url(#filter0_d_1_5556)">
<rect x="10" y="8" width="44" height="44" rx="12" fill="white" shape-rendering="crispEdges"/>
<g clip-path="url(#clip0_1_5556)">
<path d="M33.586 20C34.0556 20.0001 34.5101 20.1654 34.87 20.467L35 20.586L39.414 25C39.746 25.332 39.9506 25.7703 39.992 26.238L40 26.414V38C40.0002 38.5046 39.8096 38.9906 39.4665 39.3605C39.1234 39.7305 38.6532 39.9572 38.15 39.995L38 40H26C25.4954 40.0002 25.0094 39.8096 24.6395 39.4665C24.2695 39.1234 24.0428 38.6532 24.005 38.15L24 38V22C23.9998 21.4954 24.1904 21.0094 24.5335 20.6395C24.8766 20.2695 25.3468 20.0428 25.85 20.005L26 20H33.586ZM32 22H26V38H38V28H33.5C33.1022 28 32.7206 27.842 32.4393 27.5607C32.158 27.2794 32 26.8978 32 26.5V22ZM34.449 29.684C34.4905 29.8086 34.5071 29.9402 34.4978 30.0712C34.4884 30.2023 34.4534 30.3302 34.3946 30.4476C34.3358 30.5651 34.2544 30.6699 34.1552 30.7559C34.0559 30.8419 33.9406 30.9075 33.816 30.949L33 31.22V34C33 34.3956 32.8827 34.7822 32.6629 35.1111C32.4432 35.44 32.1308 35.6964 31.7654 35.8478C31.3999 35.9991 30.9978 36.0387 30.6098 35.9616C30.2219 35.8844 29.8655 35.6939 29.5858 35.4142C29.3061 35.1345 29.1156 34.7781 29.0384 34.3902C28.9613 34.0022 29.0009 33.6001 29.1522 33.2346C29.3036 32.8692 29.56 32.5568 29.8889 32.3371C30.2178 32.1173 30.6044 32 31 32V30.86C31 30.5451 31.0991 30.2383 31.2833 29.9829C31.4674 29.7275 31.7273 29.5365 32.026 29.437L33.184 29.051C33.3086 29.0095 33.4402 28.9929 33.5712 29.0022C33.7023 29.0116 33.8302 29.0466 33.9476 29.1054C34.0651 29.1642 34.1699 29.2456 34.2559 29.3448C34.3419 29.4441 34.4075 29.5594 34.449 29.684ZM34 22.414V26H37.586L34 22.414Z" fill="#7B00D4"/>
</g>
</g>
<defs>
<filter id="filter0_d_1_5556" x="0" y="0" width="64" height="64" filterUnits="userSpaceOnUse" color-interpolation-filters="sRGB">
<feFlood flood-opacity="0" result="BackgroundImageFix"/>
<feColorMatrix in="SourceAlpha" type="matrix" values="0 0 0 0 0 0 0 0 0 0 0 0 0 0 0 0 0 0 127 0" result="hardAlpha"/>
<feOffset dy="2"/>
<feGaussianBlur stdDeviation="5"/>
<feComposite in2="hardAlpha" operator="out"/>
<feColorMatrix type="matrix" values="0 0 0 0 0.486275 0 0 0 0 0.552941 0 0 0 0 0.709804 0 0 0 0.12 0"/>
<feBlend mode="normal" in2="BackgroundImageFix" result="effect1_dropShadow_1_5556"/>
<feBlend mode="normal" in="SourceGraphic" in2="effect1_dropShadow_1_5556" result="shape"/>
</filter>
<clipPath id="clip0_1_5556">
<rect width="24" height="24" fill="white" transform="translate(20 18)"/>
</clipPath>
</defs>
</svg>
