<svg xmlns="http://www.w3.org/2000/svg" width="20" height="20" viewBox="0 0 20 20" fill="none">
  <g clip-path="url(#clip0_1_6359)">
    <path fill-rule="evenodd" clip-rule="evenodd" d="M13.9371 2.52509C13.6245 2.21264 13.2007 2.03711 12.7587 2.03711C12.3168 2.03711 11.8929 2.21264 11.5804 2.52509L2.9854 11.1201C2.67282 11.4326 2.49716 11.8564 2.49707 12.2984V16.6593C2.49707 17.1234 2.87457 17.5009 3.33874 17.5009L16.6671 17.5001C16.8881 17.5001 17.1 17.4123 17.2563 17.256C17.4126 17.0997 17.5004 16.8878 17.5004 16.6668C17.5004 16.4457 17.4126 16.2338 17.2563 16.0775C17.1 15.9212 16.8881 15.8334 16.6671 15.8334H10.0571L17.4729 8.41759C17.7854 8.10504 17.9609 7.68119 17.9609 7.23925C17.9609 6.79731 17.7854 6.37347 17.4729 6.06092L13.9371 2.52509ZM7.7004 15.8334L16.2946 7.23925L12.7587 3.70342L4.16374 12.2984V15.8334H7.7004Z" fill="#7B00D4"/>
  </g>
  <defs>
    <clipPath id="clip0_1_6359">
      <rect width="20" height="20" fill="white"/>
    </clipPath>
  </defs>
</svg>
