<svg width="64" height="64" viewBox="0 0 64 64" fill="none" xmlns="http://www.w3.org/2000/svg">
<g filter="url(#filter0_d_1_10271)">
<rect x="10" y="8" width="44" height="44" rx="12" fill="white" shape-rendering="crispEdges"/>
<g clip-path="url(#clip0_1_10271)">
<path d="M22 30.0799C21.994 29.2179 22.91 28.7239 23.618 29.1049L23.713 29.1629L26.391 30.9669C27.363 31.6219 26.768 33.1099 25.657 32.9739L25.54 32.9539L24.477 32.7199C25.0173 34.2148 25.9906 35.5149 27.2727 36.4544C28.5548 37.3939 30.0876 37.9303 31.6758 37.9953C33.264 38.0602 34.8355 37.6506 36.19 36.8188C37.5445 35.987 38.6206 34.7707 39.281 33.3249C39.3946 33.0896 39.5957 32.908 39.8415 32.8191C40.0872 32.7301 40.358 32.7409 40.5958 32.8492C40.8337 32.9574 41.0198 33.1544 41.1142 33.3981C41.2086 33.6418 41.2039 33.9127 41.101 34.1529C39.114 38.5229 34.205 40.9459 29.414 39.6619C27.3003 39.0956 25.4305 37.8518 24.0914 36.1211C22.7522 34.3903 22.0176 32.2682 22 30.0799ZM22.903 25.8519C24.89 21.4819 29.799 19.0599 34.59 20.3429C36.7037 20.9091 38.5734 22.1527 39.9126 23.8833C41.2517 25.6139 41.9864 27.7358 42.004 29.9239C42.011 30.7869 41.094 31.2819 40.387 30.8999L40.291 30.8419L37.613 29.0379C36.641 28.3829 37.236 26.8949 38.347 27.0309L38.464 27.0509L39.527 27.2849C38.9867 25.7901 38.0135 24.49 36.7314 23.5505C35.4493 22.611 33.9164 22.0745 32.3283 22.0096C30.7401 21.9447 29.1686 22.3543 27.8141 23.1861C26.4596 24.0178 25.3835 25.2342 24.723 26.6799C24.6706 26.8024 24.5942 26.9132 24.4984 27.0057C24.4026 27.0982 24.2892 27.1707 24.165 27.2188C24.0408 27.267 23.9082 27.2898 23.7751 27.286C23.6419 27.2822 23.5109 27.2518 23.3896 27.1966C23.2684 27.1414 23.1594 27.0626 23.069 26.9647C22.9786 26.8669 22.9087 26.7519 22.8634 26.6267C22.8181 26.5014 22.7982 26.3683 22.805 26.2353C22.8118 26.1023 22.8452 25.9719 22.903 25.8519Z" fill="#7B00D4"/>
</g>
</g>
<defs>
<filter id="filter0_d_1_10271" x="0" y="0" width="64" height="64" filterUnits="userSpaceOnUse" color-interpolation-filters="sRGB">
<feFlood flood-opacity="0" result="BackgroundImageFix"/>
<feColorMatrix in="SourceAlpha" type="matrix" values="0 0 0 0 0 0 0 0 0 0 0 0 0 0 0 0 0 0 127 0" result="hardAlpha"/>
<feOffset dy="2"/>
<feGaussianBlur stdDeviation="5"/>
<feComposite in2="hardAlpha" operator="out"/>
<feColorMatrix type="matrix" values="0 0 0 0 0.486275 0 0 0 0 0.552941 0 0 0 0 0.709804 0 0 0 0.12 0"/>
<feBlend mode="normal" in2="BackgroundImageFix" result="effect1_dropShadow_1_10271"/>
<feBlend mode="normal" in="SourceGraphic" in2="effect1_dropShadow_1_10271" result="shape"/>
</filter>
<clipPath id="clip0_1_10271">
<rect width="24" height="24" fill="white" transform="translate(20 18)"/>
</clipPath>
</defs>
</svg>
