<svg width="15" height="17" viewBox="0 0 15 17" fill="none" xmlns="http://www.w3.org/2000/svg">
  <path fill-rule="evenodd" clip-rule="evenodd" d="M7.5 9.16667C9.49667 9.16667 11.3125 9.745 12.6483 10.56C13.315 10.9667 13.885 11.4467 14.2967 11.9683C14.7017 12.4808 15 13.0942 15 13.75C15 14.4542 14.6575 15.0092 14.1642 15.405C13.6975 15.78 13.0817 16.0283 12.4275 16.2017C11.1125 16.5492 9.3575 16.6667 7.5 16.6667C5.6425 16.6667 3.8875 16.55 2.5725 16.2017C1.91833 16.0283 1.3025 15.78 0.835833 15.405C0.341666 15.0083 0 14.4542 0 13.75C0 13.0942 0.298333 12.4808 0.703333 11.9675C1.115 11.4467 1.68417 10.9675 2.35167 10.5592C3.6875 9.74583 5.50417 9.16667 7.5 9.16667ZM7.5 10.8333C5.81417 10.8333 4.2975 11.325 3.22 11.9825C2.68083 12.3108 2.27417 12.6675 2.01167 13.0008C1.74167 13.3425 1.66667 13.6008 1.66667 13.75C1.66667 13.8517 1.6975 13.9592 1.87917 14.105C2.08667 14.2717 2.4475 14.4442 2.99917 14.59C4.0975 14.8817 5.67583 15 7.5 15C9.325 15 10.9025 14.8808 12 14.59C12.5525 14.4442 12.9133 14.2717 13.1208 14.105C13.3025 13.9592 13.3333 13.8517 13.3333 13.75C13.3333 13.6 13.2583 13.3425 12.9892 13.0008C12.7258 12.6675 12.3192 12.3108 11.78 11.9825C10.7025 11.3242 9.18583 10.8333 7.5 10.8333ZM7.5 0C8.60507 0 9.66488 0.438987 10.4463 1.22039C11.2277 2.00179 11.6667 3.0616 11.6667 4.16667C11.6667 5.27174 11.2277 6.33154 10.4463 7.11295C9.66488 7.89435 8.60507 8.33333 7.5 8.33333C6.39493 8.33333 5.33512 7.89435 4.55372 7.11295C3.77232 6.33154 3.33333 5.27174 3.33333 4.16667C3.33333 3.0616 3.77232 2.00179 4.55372 1.22039C5.33512 0.438987 6.39493 0 7.5 0ZM7.5 1.66667C7.1717 1.66667 6.84661 1.73133 6.54329 1.85697C6.23998 1.9826 5.96438 2.16675 5.73223 2.3989C5.50009 2.63105 5.31594 2.90664 5.1903 3.20996C5.06466 3.51327 5 3.83836 5 4.16667C5 4.49497 5.06466 4.82006 5.1903 5.12338C5.31594 5.42669 5.50009 5.70229 5.73223 5.93443C5.96438 6.16658 6.23998 6.35073 6.54329 6.47637C6.84661 6.602 7.1717 6.66667 7.5 6.66667C8.16304 6.66667 8.79893 6.40328 9.26777 5.93443C9.73661 5.46559 10 4.82971 10 4.16667C10 3.50363 9.73661 2.86774 9.26777 2.3989C8.79893 1.93006 8.16304 1.66667 7.5 1.66667Z" fill="#AAAAAA"/>
</svg>
