<svg width="65" height="64" viewBox="0 0 65 64" fill="none" xmlns="http://www.w3.org/2000/svg">
<g filter="url(#filter0_d_1_5539)">
<rect x="10.332" y="8" width="44" height="44" rx="12" fill="white" shape-rendering="crispEdges"/>
<path fill-rule="evenodd" clip-rule="evenodd" d="M27.1824 26.0004C27.1824 24.2607 28.5927 22.8504 30.3324 22.8504C32.0721 22.8504 33.4824 24.2607 33.4824 26.0004C33.4824 27.7401 32.0721 29.1504 30.3324 29.1504C28.5927 29.1504 27.1824 27.7401 27.1824 26.0004ZM30.3324 21.1504C27.6538 21.1504 25.4824 23.3218 25.4824 26.0004C25.4824 28.679 27.6538 30.8504 30.3324 30.8504C33.011 30.8504 35.1824 28.679 35.1824 26.0004C35.1824 23.3218 33.011 21.1504 30.3324 21.1504ZM25.1824 35.9171C25.1824 35.514 25.5111 34.9983 26.5508 34.5392C27.5403 34.1022 28.9167 33.8504 30.3324 33.8504C31.7281 33.8504 33.1033 34.1435 34.1003 34.6051C34.5993 34.8361 34.9652 35.0916 35.1954 35.3382C35.417 35.5756 35.4801 35.766 35.4824 35.9089C35.4743 35.9304 35.4375 35.9985 35.2951 36.1092C35.0767 36.279 34.7121 36.462 34.1974 36.6274C33.177 36.9553 31.7687 37.1504 30.3324 37.1504C28.6339 37.1504 27.2358 36.9525 26.2937 36.632C25.8201 36.4708 25.5135 36.2959 25.3401 36.1429C25.1814 36.0028 25.1823 35.929 25.1824 35.9178L25.1824 35.9171ZM35.4843 35.9014C35.4845 35.9014 35.4843 35.9034 35.483 35.9072C35.4835 35.9033 35.4841 35.9014 35.4843 35.9014ZM30.3324 32.1504C28.7482 32.1504 27.1245 32.4274 25.8641 32.984C24.6538 33.5185 23.4824 34.4611 23.4824 35.9171C23.4824 36.546 23.8 37.0511 24.2154 37.4176C24.6201 37.7748 25.1573 38.041 25.7461 38.2414C26.9291 38.6439 28.5309 38.8504 30.3324 38.8504C31.8961 38.8504 33.4879 38.641 34.7175 38.2459C35.3277 38.0498 35.9007 37.7917 36.3385 37.4514C36.7728 37.1137 37.1824 36.6038 37.1824 35.9171C37.1824 35.2275 36.8685 34.6393 36.4382 34.1782C36.0121 33.7217 35.4406 33.3522 34.8145 33.0624C33.5615 32.4823 31.9367 32.1504 30.3324 32.1504ZM36.4863 29.9189C36.5314 29.4516 36.9467 29.1093 37.414 29.1543C38.6281 29.2713 39.7546 29.5869 40.6058 30.0792C41.4302 30.5559 42.1824 31.3204 42.1824 32.3737C42.1824 32.9196 41.9735 33.4174 41.5673 33.813C41.1844 34.1859 40.6616 34.4353 40.0643 34.6047C39.6126 34.7327 39.1427 34.4704 39.0147 34.0187C38.8866 33.5671 39.1489 33.0972 39.6006 32.9691C40.0482 32.8422 40.2754 32.6982 40.3812 32.5951C40.4638 32.5147 40.4824 32.454 40.4824 32.3737C40.4824 32.217 40.3652 31.9038 39.7548 31.5508C39.1713 31.2134 38.2978 30.9474 37.2509 30.8465C36.7836 30.8014 36.4413 30.3861 36.4863 29.9189ZM38.3324 21.1504C37.863 21.1504 37.4824 21.5309 37.4824 22.0004C37.4824 22.4698 37.863 22.8504 38.3324 22.8504C39.2437 22.8504 39.9824 23.5891 39.9824 24.5004C39.9824 25.4117 39.2437 26.1504 38.3324 26.1504C37.863 26.1504 37.4824 26.5309 37.4824 27.0004C37.4824 27.4698 37.863 27.8504 38.3324 27.8504C40.1826 27.8504 41.6824 26.3505 41.6824 24.5004C41.6824 22.6502 40.1826 21.1504 38.3324 21.1504Z" fill="#7B00D4"/>
</g>
<defs>
<filter id="filter0_d_1_5539" x="0.332031" y="0" width="64" height="64" filterUnits="userSpaceOnUse" color-interpolation-filters="sRGB">
<feFlood flood-opacity="0" result="BackgroundImageFix"/>
<feColorMatrix in="SourceAlpha" type="matrix" values="0 0 0 0 0 0 0 0 0 0 0 0 0 0 0 0 0 0 127 0" result="hardAlpha"/>
<feOffset dy="2"/>
<feGaussianBlur stdDeviation="5"/>
<feComposite in2="hardAlpha" operator="out"/>
<feColorMatrix type="matrix" values="0 0 0 0 0.486275 0 0 0 0 0.552941 0 0 0 0 0.709804 0 0 0 0.12 0"/>
<feBlend mode="normal" in2="BackgroundImageFix" result="effect1_dropShadow_1_5539"/>
<feBlend mode="normal" in="SourceGraphic" in2="effect1_dropShadow_1_5539" result="shape"/>
</filter>
</defs>
</svg>
