<svg preserveAspectRatio="none" width="100%" height="100%" overflow="visible" style="display: block;" viewBox="0 0 190.595 115.902" fill="none" xmlns="http://www.w3.org/2000/svg">
<g id="Hero Illustration metrics 2" clip-path="url(#clip0_0_51)">
<path id="Vector" d="M175.142 0H15.4537C6.91884 0 0 6.91884 0 15.4537V100.449C0 108.984 6.91884 115.902 15.4537 115.902H175.142C183.676 115.902 190.595 108.984 190.595 100.449V15.4537C190.595 6.91884 183.676 0 175.142 0Z" fill="var(--fill-0, white)"/>
<path id="Vector_2" d="M12.7994 47.6488V43.972L22.554 34.4095C23.4869 33.4674 24.2643 32.6305 24.8863 31.8988C25.5083 31.1671 25.9747 30.4583 26.2857 29.7723C26.5967 29.0863 26.7522 28.3546 26.7522 27.5771C26.7522 26.69 26.5509 25.9308 26.1485 25.2997C25.7461 24.6595 25.1927 24.1655 24.4884 23.818C23.7842 23.4704 22.9838 23.2967 22.0875 23.2967C21.1637 23.2967 20.3543 23.4887 19.6591 23.8729C18.964 24.2479 18.4244 24.7829 18.0402 25.4781C17.6653 26.1732 17.4778 27.0009 17.4778 27.9613H12.6348C12.6348 26.1777 13.0418 24.6275 13.8558 23.3104C14.6698 21.9933 15.7902 20.9735 17.2171 20.2509C18.6531 19.5283 20.2994 19.1671 22.1561 19.1671C24.0402 19.1671 25.6958 19.5192 27.1226 20.2235C28.5494 20.9277 29.6561 21.8927 30.4427 23.1183C31.2384 24.3439 31.6363 25.7433 31.6363 27.3165C31.6363 28.3683 31.4351 29.4018 31.0326 30.4171C30.6302 31.4323 29.9214 32.5573 28.9061 33.7921C27.9 35.0268 26.4869 36.5223 24.6668 38.2783L19.8238 43.2037V43.3958H32.0616V47.6488H12.7994ZM47.1805 48.1839C44.9214 48.1839 42.9823 47.6122 41.3634 46.4689C39.7536 45.3165 38.5143 43.6564 37.6454 41.4887C36.7857 39.3119 36.3558 36.6915 36.3558 33.6274C36.365 30.5634 36.7994 27.9567 37.6592 25.8073C38.528 23.6488 39.7674 22.0025 41.3771 20.8683C42.996 19.7341 44.9305 19.1671 47.1805 19.1671C49.4305 19.1671 51.365 19.7341 52.9839 20.8683C54.6028 22.0025 55.8421 23.6488 56.7019 25.8073C57.5708 27.9659 58.0052 30.5726 58.0052 33.6274C58.0052 36.7006 57.5708 39.3256 56.7019 41.5024C55.8421 43.6701 54.6028 45.3256 52.9839 46.4689C51.3741 47.6122 49.4397 48.1839 47.1805 48.1839ZM47.1805 43.8896C48.9366 43.8896 50.3223 43.0253 51.3375 41.2966C52.3619 39.5589 52.8741 37.0024 52.8741 33.6274C52.8741 31.3957 52.6408 29.5207 52.1744 28.0024C51.708 26.4842 51.0494 25.3409 50.1988 24.5725C49.3482 23.7951 48.3421 23.4064 47.1805 23.4064C45.4336 23.4064 44.0525 24.2753 43.0372 26.0131C42.022 27.7418 41.5098 30.2799 41.5006 33.6274C41.4915 35.8683 41.7156 37.7525 42.1729 39.2799C42.6394 40.8073 43.2979 41.9598 44.1485 42.7372C44.9991 43.5055 46.0097 43.8896 47.1805 43.8896ZM70.9053 43.1488V24.161H75.213V43.1488H70.9053ZM63.565 35.8088V31.5009H82.5528V35.8088H63.565Z" fill="var(--fill-0, #101010)"/>
<path id="Vector_3" d="M97.2267 31.5512V26.0188H99.0734C99.6092 26.0188 100.065 26.1296 100.441 26.3511C100.817 26.5674 101.103 26.8817 101.299 27.2937C101.5 27.7058 101.6 28.2029 101.6 28.785C101.6 29.3671 101.5 29.8642 101.299 30.2763C101.103 30.6884 100.817 31.0052 100.441 31.2267C100.065 31.4431 99.6092 31.5512 99.0734 31.5512H97.2267ZM97.8835 30.9254H99.0657C99.4572 30.9254 99.792 30.8507 100.07 30.7013C100.348 30.5467 100.562 30.3124 100.712 29.9981C100.866 29.6839 100.943 29.2795 100.943 28.785C100.943 28.2905 100.866 27.8861 100.712 27.5719C100.562 27.2525 100.348 27.0182 100.07 26.8688C99.792 26.7194 99.4572 26.6447 99.0657 26.6447H97.8835V30.9254ZM102.522 31.5512V27.4869H103.171V31.5512H102.522ZM102.846 26.4979C102.717 26.4979 102.607 26.4515 102.514 26.3588C102.421 26.2661 102.375 26.1553 102.375 26.0265C102.375 25.8926 102.421 25.7819 102.514 25.6943C102.607 25.6016 102.717 25.5552 102.846 25.5552C102.98 25.5552 103.091 25.6016 103.178 25.6943C103.271 25.7819 103.317 25.8926 103.317 26.0265C103.317 26.1553 103.271 26.2661 103.178 26.3588C103.091 26.4515 102.98 26.4979 102.846 26.4979ZM105.655 31.6749C105.377 31.6749 105.117 31.6285 104.875 31.5358C104.633 31.4379 104.432 31.2988 104.272 31.1185C104.118 30.9331 104.025 30.709 103.994 30.4463L104.62 30.3381C104.661 30.5442 104.769 30.7219 104.945 30.8713C105.12 31.0207 105.357 31.0954 105.655 31.0954C105.913 31.0954 106.132 31.0413 106.312 30.9331C106.492 30.8198 106.583 30.6601 106.583 30.454C106.583 30.3304 106.552 30.2248 106.49 30.1372C106.428 30.0445 106.335 29.9672 106.212 29.9054C106.093 29.8436 105.941 29.7972 105.756 29.7663L105.254 29.6736C105.027 29.6324 104.823 29.5629 104.643 29.465C104.468 29.3671 104.329 29.2409 104.226 29.0864C104.128 28.9267 104.079 28.7361 104.079 28.5146C104.079 28.2828 104.146 28.0819 104.28 27.9119C104.419 27.7368 104.602 27.6028 104.829 27.5101C105.06 27.4122 105.313 27.3633 105.586 27.3633C105.833 27.3633 106.062 27.4019 106.274 27.4792C106.49 27.5513 106.67 27.6698 106.814 27.8346C106.964 27.9943 107.057 28.2081 107.093 28.476L106.49 28.5687C106.438 28.342 106.328 28.1823 106.158 28.0896C105.993 27.9917 105.802 27.9428 105.586 27.9428C105.349 27.9428 105.148 27.9943 104.983 28.0973C104.818 28.1952 104.736 28.3317 104.736 28.5069C104.736 28.6614 104.798 28.7876 104.921 28.8855C105.045 28.9834 105.241 29.0606 105.509 29.1173L106.08 29.2332C106.446 29.3053 106.729 29.4392 106.93 29.635C107.131 29.8256 107.232 30.0909 107.232 30.4308C107.232 30.6833 107.162 30.9022 107.023 31.0876C106.884 31.2731 106.696 31.4173 106.459 31.5203C106.222 31.6234 105.954 31.6749 105.655 31.6749ZM107.63 28.0819V27.4869H108.318V28.0819H107.63ZM109.346 31.613C109.026 31.613 108.769 31.5178 108.573 31.3272C108.377 31.1314 108.279 30.861 108.279 30.5158V26.3743H108.928V30.3845C108.928 30.5802 108.972 30.7322 109.06 30.8404C109.147 30.9485 109.279 31.0026 109.454 31.0026C109.541 31.0026 109.616 30.9923 109.678 30.9717C109.745 30.9511 109.807 30.9228 109.863 30.8867V31.5203C109.796 31.5461 109.724 31.5667 109.647 31.5821C109.57 31.6027 109.469 31.613 109.346 31.613ZM108.89 28.0819V27.4869H109.856V28.0819H108.89ZM110.731 31.5512V27.4869H111.349V28.051H111.38C111.432 27.917 111.512 27.7986 111.62 27.6955C111.728 27.5925 111.852 27.5127 111.991 27.456C112.135 27.3993 112.282 27.371 112.431 27.371C112.529 27.371 112.609 27.3762 112.671 27.3865C112.733 27.3968 112.787 27.4122 112.833 27.4328V28.1205C112.761 28.0845 112.684 28.0587 112.601 28.0433C112.519 28.0278 112.434 28.0201 112.346 28.0201C112.166 28.0201 112.001 28.0716 111.852 28.1746C111.707 28.2776 111.592 28.4167 111.504 28.5919C111.422 28.7618 111.38 28.9499 111.38 29.1559V31.5512H110.731ZM113.592 31.5512V27.4869H114.241V31.5512H113.592ZM113.916 26.4979C113.787 26.4979 113.677 26.4515 113.584 26.3588C113.491 26.2661 113.445 26.1553 113.445 26.0265C113.445 25.8926 113.491 25.7819 113.584 25.6943C113.677 25.6016 113.787 25.5552 113.916 25.5552C114.05 25.5552 114.161 25.6016 114.248 25.6943C114.341 25.7819 114.387 25.8926 114.387 26.0265C114.387 26.1553 114.341 26.2661 114.248 26.3588C114.161 26.4515 114.05 26.4979 113.916 26.4979ZM117.289 31.6749C117.088 31.6749 116.902 31.6414 116.732 31.5744C116.562 31.5126 116.416 31.4302 116.292 31.3272C116.168 31.2241 116.071 31.1134 115.998 30.9949H115.968V31.5512H115.349V25.5552H115.998V27.4869L115.968 28.0433H115.998C116.071 27.9248 116.168 27.814 116.292 27.711C116.416 27.608 116.562 27.5256 116.732 27.4637C116.908 27.3968 117.096 27.3633 117.297 27.3633C117.662 27.3633 117.979 27.456 118.247 27.6415C118.52 27.8218 118.731 28.0742 118.881 28.3987C119.03 28.7181 119.105 29.0915 119.105 29.5191C119.105 29.9415 119.03 30.3149 118.881 30.6395C118.731 30.964 118.52 31.219 118.247 31.4044C117.974 31.5847 117.655 31.6749 117.289 31.6749ZM117.219 31.0799C117.461 31.0799 117.675 31.0207 117.861 30.9022C118.046 30.7786 118.19 30.6008 118.293 30.369C118.401 30.1372 118.456 29.8539 118.456 29.5191C118.456 29.1842 118.401 28.9009 118.293 28.6691C118.19 28.4373 118.046 28.2622 117.861 28.1437C117.675 28.0201 117.461 27.9583 117.219 27.9583C116.977 27.9583 116.761 28.0201 116.57 28.1437C116.385 28.2622 116.238 28.4373 116.13 28.6691C116.022 28.9009 115.968 29.1842 115.968 29.5191C115.968 29.8539 116.022 30.1372 116.13 30.369C116.238 30.6008 116.385 30.7786 116.57 30.9022C116.761 31.0207 116.977 31.0799 117.219 31.0799ZM121.366 31.6749C120.913 31.6749 120.562 31.5409 120.315 31.2731C120.068 31.0052 119.944 30.642 119.944 30.1836V27.4869H120.593V30.0986C120.593 30.454 120.681 30.7064 120.856 30.8558C121.036 31.0052 121.258 31.0799 121.521 31.0799C121.742 31.0799 121.93 31.0284 122.085 30.9254C122.239 30.8172 122.358 30.6755 122.44 30.5004C122.528 30.3252 122.571 30.1346 122.571 29.9286V27.4869H123.22V31.5512H122.602V31.0181H122.571C122.51 31.1417 122.419 31.255 122.301 31.3581C122.182 31.4559 122.043 31.5332 121.884 31.5899C121.724 31.6465 121.551 31.6749 121.366 31.6749ZM124.004 28.0819V27.4869H124.692V28.0819H124.004ZM125.719 31.613C125.4 31.613 125.142 31.5178 124.947 31.3272C124.751 31.1314 124.653 30.861 124.653 30.5158V26.3743H125.302V30.3845C125.302 30.5802 125.346 30.7322 125.434 30.8404C125.521 30.9485 125.652 31.0026 125.828 31.0026C125.915 31.0026 125.99 30.9923 126.052 30.9717C126.119 30.9511 126.18 30.9228 126.237 30.8867V31.5203C126.17 31.5461 126.098 31.5667 126.021 31.5821C125.943 31.6027 125.843 31.613 125.719 31.613ZM125.264 28.0819V27.4869H126.229V28.0819H125.264ZM127.106 31.5512V27.4869H127.755V31.5512H127.106ZM127.43 26.4979C127.301 26.4979 127.191 26.4515 127.098 26.3588C127.005 26.2661 126.959 26.1553 126.959 26.0265C126.959 25.8926 127.005 25.7819 127.098 25.6943C127.191 25.6016 127.301 25.5552 127.43 25.5552C127.564 25.5552 127.675 25.6016 127.763 25.6943C127.855 25.7819 127.902 25.8926 127.902 26.0265C127.902 26.1553 127.855 26.2661 127.763 26.3588C127.675 26.4515 127.564 26.4979 127.43 26.4979ZM130.572 31.6749C130.175 31.6749 129.83 31.5847 129.536 31.4044C129.248 31.219 129.024 30.964 128.864 30.6395C128.705 30.3149 128.625 29.9415 128.625 29.5191C128.625 29.0915 128.705 28.7181 128.864 28.3987C129.024 28.0742 129.248 27.8218 129.536 27.6415C129.83 27.456 130.175 27.3633 130.572 27.3633C130.969 27.3633 131.311 27.456 131.6 27.6415C131.888 27.8218 132.11 28.0742 132.264 28.3987C132.424 28.7181 132.504 29.0915 132.504 29.5191C132.504 29.9415 132.424 30.3149 132.264 30.6395C132.11 30.964 131.888 31.219 131.6 31.4044C131.311 31.5847 130.969 31.6749 130.572 31.6749ZM130.572 31.0799C130.824 31.0799 131.046 31.0181 131.236 30.8945C131.432 30.7708 131.584 30.5931 131.692 30.3613C131.8 30.1295 131.855 29.8488 131.855 29.5191C131.855 29.1894 131.8 28.9087 131.692 28.6769C131.584 28.445 131.432 28.2673 131.236 28.1437C131.046 28.0201 130.824 27.9583 130.572 27.9583C130.319 27.9583 130.095 28.0201 129.9 28.1437C129.704 28.2673 129.549 28.445 129.436 28.6769C129.328 28.9087 129.274 29.1894 129.274 29.5191C129.274 29.8488 129.328 30.1295 129.436 30.3613C129.549 30.5931 129.704 30.7708 129.9 30.8945C130.095 31.0181 130.319 31.0799 130.572 31.0799ZM133.376 31.5512V27.4869H133.994V28.0201H134.025C134.123 27.8295 134.278 27.6724 134.489 27.5487C134.705 27.4251 134.952 27.3633 135.23 27.3633C135.689 27.3633 136.039 27.4972 136.281 27.7651C136.529 28.0329 136.652 28.3961 136.652 28.8546V31.5512H136.003V28.9396C136.003 28.5841 135.913 28.3317 135.733 28.1823C135.558 28.033 135.339 27.9583 135.076 27.9583C134.86 27.9583 134.672 28.0123 134.512 28.1205C134.357 28.2235 134.236 28.3626 134.149 28.5378C134.066 28.7078 134.025 28.8984 134.025 29.1096V31.5512H133.376ZM99.4366 40.6895C99.0657 40.6895 98.7283 40.6251 98.4244 40.4963C98.1205 40.3624 97.8578 40.1692 97.6362 39.9168C97.4147 39.6644 97.2448 39.3605 97.1263 39.0051C97.0078 38.6496 96.9486 38.2478 96.9486 37.7997C96.9486 37.3515 97.0104 36.9497 97.134 36.5943C97.2576 36.2337 97.4302 35.9298 97.6517 35.6825C97.8784 35.4301 98.1436 35.2395 98.4476 35.1107C98.7515 34.9768 99.0812 34.9098 99.4366 34.9098C99.8332 34.9098 100.194 34.9794 100.518 35.1185C100.843 35.2575 101.106 35.461 101.306 35.7289C101.513 35.9967 101.628 36.3238 101.654 36.7102L101.044 36.8029C101.013 36.5814 100.933 36.3754 100.804 36.1848C100.675 35.989 100.498 35.8319 100.271 35.7134C100.05 35.5949 99.7714 35.5357 99.4366 35.5357C99.0863 35.5357 98.7721 35.6207 98.4939 35.7907C98.2209 35.9607 98.0046 36.2131 97.8449 36.5479C97.6903 36.8827 97.6131 37.3 97.6131 37.7997C97.6131 38.2942 97.6929 38.7089 97.8526 39.0437C98.0123 39.3785 98.2286 39.6335 98.5016 39.8086C98.7798 39.9786 99.0915 40.0636 99.4366 40.0636C99.9105 40.0636 100.284 39.94 100.557 39.6927C100.83 39.4455 101 39.1364 101.067 38.7655L101.654 38.8351C101.603 39.2317 101.476 39.5691 101.276 39.8473C101.075 40.1254 100.817 40.3366 100.503 40.4809C100.189 40.62 99.8332 40.6895 99.4366 40.6895ZM104.147 40.6895C103.75 40.6895 103.405 40.5994 103.111 40.4191C102.823 40.2336 102.599 39.9786 102.439 39.6541C102.279 39.3296 102.2 38.9561 102.2 38.5337C102.2 38.1062 102.279 37.7327 102.439 37.4133C102.599 37.0888 102.823 36.8364 103.111 36.6561C103.405 36.4707 103.75 36.3779 104.147 36.3779C104.543 36.3779 104.886 36.4707 105.174 36.6561C105.463 36.8364 105.684 37.0888 105.839 37.4133C105.999 37.7327 106.078 38.1062 106.078 38.5337C106.078 38.9561 105.999 39.3296 105.839 39.6541C105.684 39.9786 105.463 40.2336 105.174 40.4191C104.886 40.5994 104.543 40.6895 104.147 40.6895ZM104.147 40.0945C104.399 40.0945 104.621 40.0327 104.811 39.9091C105.007 39.7855 105.159 39.6077 105.267 39.3759C105.375 39.1441 105.429 38.8634 105.429 38.5337C105.429 38.204 105.375 37.9233 105.267 37.6915C105.159 37.4597 105.007 37.282 104.811 37.1583C104.621 37.0347 104.399 36.9729 104.147 36.9729C103.894 36.9729 103.67 37.0347 103.475 37.1583C103.279 37.282 103.124 37.4597 103.011 37.6915C102.903 37.9233 102.849 38.204 102.849 38.5337C102.849 38.8634 102.903 39.1441 103.011 39.3759C103.124 39.6077 103.279 39.7855 103.475 39.9091C103.67 40.0327 103.894 40.0945 104.147 40.0945ZM106.951 40.5659V36.5016H107.569V37.0193H107.6C107.667 36.8956 107.757 36.7874 107.87 36.6947C107.984 36.5969 108.113 36.5196 108.257 36.4629C108.406 36.4063 108.563 36.3779 108.728 36.3779C109.001 36.3779 109.233 36.4423 109.424 36.5711C109.614 36.6947 109.751 36.8647 109.833 37.0811C109.952 36.8699 110.116 36.6999 110.328 36.5711C110.544 36.4423 110.794 36.3779 111.077 36.3779C111.479 36.3779 111.788 36.5016 112.004 36.7488C112.226 36.9909 112.337 37.3206 112.337 37.7379V40.5659H111.695V37.846C111.695 37.5421 111.626 37.3206 111.487 37.1815C111.353 37.0373 111.159 36.9652 110.907 36.9652C110.727 36.9652 110.565 37.0115 110.42 37.1043C110.281 37.197 110.17 37.3232 110.088 37.4829C110.011 37.6426 109.972 37.8228 109.972 38.0237V40.5659H109.323V37.8538C109.323 37.5498 109.254 37.3258 109.114 37.1815C108.975 37.0373 108.782 36.9652 108.535 36.9652C108.355 36.9652 108.192 37.0141 108.048 37.112C107.909 37.2047 107.798 37.3335 107.716 37.4983C107.639 37.658 107.6 37.8383 107.6 38.0392V40.5659H106.951ZM113.418 42.2349V36.5016H114.036V37.0965H114.067C114.139 36.9677 114.237 36.8493 114.36 36.7411C114.489 36.6329 114.638 36.5453 114.808 36.4784C114.984 36.4114 115.166 36.3779 115.357 36.3779C115.723 36.3779 116.042 36.4681 116.315 36.6484C116.588 36.8287 116.799 37.0811 116.949 37.4056C117.098 37.7301 117.173 38.1062 117.173 38.5337C117.173 38.9613 117.096 39.3373 116.941 39.6618C116.792 39.9864 116.581 40.2388 116.307 40.4191C116.04 40.5994 115.723 40.6895 115.357 40.6895C115.043 40.6895 114.775 40.6251 114.553 40.4963C114.332 40.3624 114.17 40.2079 114.067 40.0327H114.036L114.067 40.5659V42.2349H113.418ZM115.288 40.0945C115.53 40.0945 115.743 40.0353 115.929 39.9168C116.114 39.7983 116.259 39.6232 116.362 39.3914C116.47 39.1544 116.524 38.8685 116.524 38.5337C116.524 38.1937 116.47 37.9078 116.362 37.676C116.259 37.4442 116.114 37.2691 115.929 37.1506C115.743 37.0321 115.53 36.9729 115.288 36.9729C115.045 36.9729 114.829 37.0321 114.638 37.1506C114.453 37.2691 114.306 37.4442 114.198 37.676C114.09 37.9078 114.036 38.1937 114.036 38.5337C114.036 38.8685 114.09 39.1544 114.198 39.3914C114.306 39.6232 114.453 39.7983 114.638 39.9168C114.829 40.0353 115.045 40.0945 115.288 40.0945ZM119.272 40.6895C118.994 40.6895 118.749 40.638 118.538 40.535C118.327 40.4319 118.162 40.2877 118.043 40.1023C117.925 39.9117 117.866 39.6876 117.866 39.43C117.866 39.157 117.935 38.9304 118.074 38.7501C118.219 38.5646 118.407 38.4255 118.638 38.3328C118.875 38.2401 119.13 38.1937 119.403 38.1937C119.563 38.1937 119.71 38.2015 119.844 38.2169C119.983 38.2272 120.114 38.2452 120.238 38.271C120.367 38.2968 120.49 38.3302 120.609 38.3715V37.9233C120.609 37.6297 120.511 37.3979 120.315 37.2279C120.119 37.0527 119.87 36.9652 119.566 36.9652C119.298 36.9652 119.076 37.027 118.901 37.1506C118.726 37.2691 118.605 37.4468 118.538 37.6838L117.951 37.537C117.997 37.2948 118.095 37.0888 118.244 36.9188C118.394 36.7437 118.582 36.6097 118.808 36.517C119.04 36.4243 119.293 36.3779 119.566 36.3779C120.096 36.3779 120.506 36.5119 120.794 36.7797C121.088 37.0476 121.235 37.4236 121.235 37.9078V40.5659H120.609V40.0327H120.578C120.506 40.1357 120.41 40.2388 120.292 40.3418C120.173 40.4448 120.029 40.5272 119.859 40.5891C119.694 40.656 119.499 40.6895 119.272 40.6895ZM119.388 40.1177C119.625 40.1177 119.833 40.0662 120.014 39.9632C120.199 39.8602 120.343 39.7185 120.446 39.5382C120.555 39.3528 120.609 39.1467 120.609 38.9201C120.418 38.8479 120.235 38.7964 120.06 38.7655C119.885 38.7346 119.705 38.7192 119.519 38.7192C119.226 38.7192 118.986 38.7758 118.801 38.8891C118.62 38.9973 118.53 39.1776 118.53 39.43C118.53 39.6361 118.61 39.8035 118.77 39.9323C118.935 40.0559 119.141 40.1177 119.388 40.1177ZM122.299 40.5659V36.5016H122.917V37.0347H122.948C123.046 36.8441 123.2 36.687 123.412 36.5634C123.628 36.4397 123.875 36.3779 124.153 36.3779C124.612 36.3779 124.962 36.5119 125.204 36.7797C125.452 37.0476 125.575 37.4107 125.575 37.8692V40.5659H124.926V37.9542C124.926 37.5988 124.836 37.3464 124.656 37.197C124.481 37.0476 124.262 36.9729 123.999 36.9729C123.783 36.9729 123.595 37.027 123.435 37.1352C123.28 37.2382 123.159 37.3773 123.072 37.5524C122.989 37.7224 122.948 37.913 122.948 38.1242V40.5659H122.299ZM126.802 42.2349C126.705 42.2349 126.609 42.2271 126.517 42.2117C126.429 42.1962 126.341 42.1705 126.254 42.1344V41.5317C126.29 41.5523 126.347 41.5781 126.424 41.609C126.506 41.6399 126.602 41.6554 126.71 41.6554C126.823 41.6554 126.921 41.6322 127.003 41.5858C127.091 41.5446 127.171 41.4725 127.243 41.3695C127.315 41.2664 127.387 41.1248 127.459 40.9445L127.884 39.8782L127.961 39.6618L129.144 36.5016H129.831L128.016 41.1067C127.913 41.3746 127.799 41.591 127.676 41.7558C127.557 41.9258 127.426 42.0468 127.282 42.119C127.142 42.1962 126.983 42.2349 126.802 42.2349ZM127.745 40.7977L126.068 36.5016H126.772L127.954 39.6618H128.263L127.745 40.7977Z" fill="var(--fill-0, #101010)" fill-opacity="0.6"/>
<path id="Vector_4" d="M10.9438 94.6537V89.1213H11.8864L13.54 93.6338H13.5709L15.2322 89.1213H16.1671V94.6537H15.5258V91.138L15.5567 90.1026H15.5258L13.8259 94.6537H13.285L11.5851 90.1026H11.5542L11.5851 91.138V94.6537H10.9438ZM19.0709 94.7773C18.6742 94.7773 18.3291 94.6872 18.0355 94.5069C17.747 94.3214 17.5229 94.0665 17.3632 93.7419C17.2035 93.4174 17.1237 93.0439 17.1237 92.6215C17.1237 92.194 17.2035 91.8205 17.3632 91.5012C17.5229 91.1766 17.747 90.9242 18.0355 90.7439C18.3291 90.5585 18.6742 90.4658 19.0709 90.4658C19.4675 90.4658 19.8101 90.5585 20.0985 90.7439C20.387 90.9242 20.6085 91.1766 20.763 91.5012C20.9227 91.8205 21.0026 92.194 21.0026 92.6215C21.0026 93.0439 20.9227 93.4174 20.763 93.7419C20.6085 94.0665 20.387 94.3214 20.0985 94.5069C19.8101 94.6872 19.4675 94.7773 19.0709 94.7773ZM19.0709 94.1824C19.3233 94.1824 19.5448 94.1205 19.7354 93.9969C19.9311 93.8733 20.0831 93.6956 20.1912 93.4638C20.2994 93.232 20.3535 92.9512 20.3535 92.6215C20.3535 92.2919 20.2994 92.0111 20.1912 91.7793C20.0831 91.5475 19.9311 91.3698 19.7354 91.2462C19.5448 91.1225 19.3233 91.0607 19.0709 91.0607C18.8184 91.0607 18.5944 91.1225 18.3986 91.2462C18.2029 91.3698 18.0483 91.5475 17.935 91.7793C17.8268 92.0111 17.7727 92.2919 17.7727 92.6215C17.7727 92.9512 17.8268 93.232 17.935 93.4638C18.0483 93.6956 18.2029 93.8733 18.3986 93.9969C18.5944 94.1205 18.8184 94.1824 19.0709 94.1824ZM21.8756 94.6537V90.5894H22.4937V91.1225H22.5246C22.6225 90.9319 22.777 90.7748 22.9882 90.6512C23.2046 90.5276 23.4518 90.4658 23.73 90.4658C24.1885 90.4658 24.5387 90.5997 24.7809 90.8675C25.0281 91.1354 25.1517 91.4986 25.1517 91.957V94.6537H24.5027V92.042C24.5027 91.6866 24.4125 91.4342 24.2322 91.2848C24.0571 91.1354 23.8382 91.0607 23.5755 91.0607C23.3591 91.0607 23.1711 91.1148 23.0114 91.223C22.8569 91.326 22.7358 91.4651 22.6482 91.6402C22.5658 91.8102 22.5246 92.0008 22.5246 92.212V94.6537H21.8756ZM26.237 94.6537V90.5894H26.886V94.6537H26.237ZM26.5615 89.6003C26.4327 89.6003 26.322 89.554 26.2292 89.4613C26.1365 89.3685 26.0902 89.2578 26.0902 89.129C26.0902 88.9951 26.1365 88.8843 26.2292 88.7968C26.322 88.704 26.4327 88.6577 26.5615 88.6577C26.6954 88.6577 26.8062 88.704 26.8938 88.7968C26.9865 88.8843 27.0328 88.9951 27.0328 89.129C27.0328 89.2578 26.9865 89.3685 26.8938 89.4613C26.8062 89.554 26.6954 89.6003 26.5615 89.6003ZM27.6629 91.1843V90.5894H28.3506V91.1843H27.6629ZM29.3783 94.7155C29.0589 94.7155 28.8013 94.6202 28.6056 94.4296C28.4098 94.2339 28.3119 93.9634 28.3119 93.6183V89.4767H28.961V93.4869C28.961 93.6827 29.0048 93.8346 29.0924 93.9428C29.1799 94.051 29.3113 94.1051 29.4864 94.1051C29.574 94.1051 29.6487 94.0948 29.7105 94.0742C29.7775 94.0536 29.8393 94.0252 29.8959 93.9892V94.6228C29.829 94.6485 29.7569 94.6692 29.6796 94.6846C29.6023 94.7052 29.5019 94.7155 29.3783 94.7155ZM28.9224 91.1843V90.5894H29.8882V91.1843H28.9224ZM32.2759 94.7773C31.8792 94.7773 31.5341 94.6872 31.2405 94.5069C30.952 94.3214 30.7279 94.0665 30.5682 93.7419C30.4086 93.4174 30.3287 93.0439 30.3287 92.6215C30.3287 92.194 30.4086 91.8205 30.5682 91.5012C30.7279 91.1766 30.952 90.9242 31.2405 90.7439C31.5341 90.5585 31.8792 90.4658 32.2759 90.4658C32.6725 90.4658 33.0151 90.5585 33.3035 90.7439C33.592 90.9242 33.8135 91.1766 33.9681 91.5012C34.1277 91.8205 34.2076 92.194 34.2076 92.6215C34.2076 93.0439 34.1277 93.4174 33.9681 93.7419C33.8135 94.0665 33.592 94.3214 33.3035 94.5069C33.0151 94.6872 32.6725 94.7773 32.2759 94.7773ZM32.2759 94.1824C32.5283 94.1824 32.7498 94.1205 32.9404 93.9969C33.1361 93.8733 33.2881 93.6956 33.3963 93.4638C33.5044 93.232 33.5585 92.9512 33.5585 92.6215C33.5585 92.2919 33.5044 92.0111 33.3963 91.7793C33.2881 91.5475 33.1361 91.3698 32.9404 91.2462C32.7498 91.1225 32.5283 91.0607 32.2759 91.0607C32.0235 91.0607 31.7994 91.1225 31.6036 91.2462C31.4079 91.3698 31.2534 91.5475 31.14 91.7793C31.0319 92.0111 30.9778 92.2919 30.9778 92.6215C30.9778 92.9512 31.0319 93.232 31.14 93.4638C31.2534 93.6956 31.4079 93.8733 31.6036 93.9969C31.7994 94.1205 32.0235 94.1824 32.2759 94.1824ZM35.0806 94.6537V90.5894H35.6987V91.1534H35.7296C35.7812 91.0195 35.861 90.901 35.9692 90.798C36.0774 90.695 36.201 90.6151 36.3401 90.5585C36.4843 90.5018 36.6311 90.4735 36.7805 90.4735C36.8784 90.4735 36.9582 90.4786 37.02 90.4889C37.0818 90.4992 37.1359 90.5147 37.1823 90.5353V91.223C37.1102 91.1869 37.0329 91.1612 36.9505 91.1457C36.8681 91.1303 36.7831 91.1225 36.6955 91.1225C36.5152 91.1225 36.3504 91.174 36.201 91.2771C36.0567 91.3801 35.9408 91.5192 35.8533 91.6943C35.7709 91.8643 35.7296 92.0523 35.7296 92.2584V94.6537H35.0806ZM37.3467 95.6118H36.7749L37.0685 94.646C37.0788 94.6099 37.0943 94.561 37.1149 94.4992C37.1355 94.4373 37.1638 94.342 37.1999 94.2133C37.2411 94.0845 37.2746 93.9789 37.3003 93.8965C37.3261 93.8089 37.3441 93.7471 37.3544 93.711C37.375 93.711 37.4214 93.711 37.4935 93.711C37.5656 93.711 37.6454 93.711 37.733 93.711C37.8257 93.711 37.9082 93.711 37.9803 93.711C38.0575 93.711 38.1065 93.711 38.1271 93.711C38.1013 93.778 38.0601 93.8784 38.0035 94.0124C37.9468 94.1463 37.8927 94.2802 37.8412 94.4142C37.7897 94.5429 37.751 94.6357 37.7253 94.6923L37.3467 95.6118ZM41.2002 94.6537V90.5894H41.8183V91.1071H41.8492C41.9162 90.9835 42.0063 90.8753 42.1197 90.7826C42.233 90.6847 42.3618 90.6074 42.506 90.5508C42.6554 90.4941 42.8125 90.4658 42.9774 90.4658C43.2504 90.4658 43.4822 90.5301 43.6728 90.6589C43.8634 90.7826 43.9999 90.9525 44.0823 91.1689C44.2008 90.9577 44.3656 90.7877 44.5768 90.6589C44.7932 90.5301 45.043 90.4658 45.3263 90.4658C45.7281 90.4658 46.0372 90.5894 46.2535 90.8366C46.475 91.0788 46.5858 91.4084 46.5858 91.8257V94.6537H45.9445V91.9339C45.9445 91.6299 45.8749 91.4084 45.7358 91.2693C45.6019 91.1251 45.4087 91.053 45.1563 91.053C44.976 91.053 44.8138 91.0993 44.6695 91.1921C44.5304 91.2848 44.4197 91.411 44.3373 91.5707C44.26 91.7304 44.2214 91.9107 44.2214 92.1116V94.6537H43.5723V91.9416C43.5723 91.6377 43.5028 91.4136 43.3637 91.2693C43.2246 91.1251 43.0314 91.053 42.7842 91.053C42.6039 91.053 42.4416 91.1019 42.2974 91.1998C42.1583 91.2925 42.0476 91.4213 41.9651 91.5861C41.8879 91.7458 41.8492 91.9261 41.8492 92.127V94.6537H41.2002ZM48.8955 94.7773C48.6173 94.7773 48.3726 94.7258 48.1614 94.6228C47.9502 94.5198 47.7854 94.3755 47.6669 94.1901C47.5484 93.9995 47.4892 93.7754 47.4892 93.5178C47.4892 93.2448 47.5587 93.0182 47.6978 92.8379C47.842 92.6524 48.0301 92.5134 48.2619 92.4206C48.4988 92.3279 48.7538 92.2816 49.0268 92.2816C49.1865 92.2816 49.3333 92.2893 49.4672 92.3047C49.6063 92.315 49.7377 92.3331 49.8613 92.3588C49.9901 92.3846 50.1137 92.4181 50.2322 92.4593V92.0111C50.2322 91.7175 50.1343 91.4857 49.9386 91.3157C49.7428 91.1406 49.493 91.053 49.1891 91.053C48.9212 91.053 48.6997 91.1148 48.5246 91.2384C48.3494 91.3569 48.2284 91.5346 48.1614 91.7716L47.5742 91.6248C47.6205 91.3827 47.7184 91.1766 47.8678 91.0066C48.0172 90.8315 48.2052 90.6976 48.4319 90.6048C48.6637 90.5121 48.9161 90.4658 49.1891 90.4658C49.7197 90.4658 50.1292 90.5997 50.4176 90.8675C50.7113 91.1354 50.8581 91.5114 50.8581 91.9957V94.6537H50.2322V94.1205H50.2013C50.1292 94.2236 50.0339 94.3266 49.9154 94.4296C49.7969 94.5326 49.6527 94.6151 49.4827 94.6769C49.3179 94.7438 49.1221 94.7773 48.8955 94.7773ZM49.0114 94.2055C49.2483 94.2055 49.4569 94.154 49.6372 94.051C49.8227 93.948 49.9669 93.8063 50.0699 93.626C50.1781 93.4406 50.2322 93.2345 50.2322 93.0079C50.0416 92.9358 49.8587 92.8842 49.6836 92.8533C49.5085 92.8224 49.3282 92.807 49.1427 92.807C48.8491 92.807 48.6096 92.8636 48.4241 92.977C48.2438 93.0851 48.1537 93.2654 48.1537 93.5178C48.1537 93.7239 48.2335 93.8913 48.3932 94.0201C48.5581 94.1437 48.7641 94.2055 49.0114 94.2055ZM51.9226 94.6537V90.5894H52.5408V91.1225H52.5717C52.6696 90.9319 52.8241 90.7748 53.0353 90.6512C53.2517 90.5276 53.4989 90.4658 53.7771 90.4658C54.2355 90.4658 54.5858 90.5997 54.8279 90.8675C55.0752 91.1354 55.1988 91.4986 55.1988 91.957V94.6537H54.5498V92.042C54.5498 91.6866 54.4596 91.4342 54.2793 91.2848C54.1042 91.1354 53.8853 91.0607 53.6225 91.0607C53.4062 91.0607 53.2182 91.1148 53.0585 91.223C52.9039 91.326 52.7829 91.4651 52.6953 91.6402C52.6129 91.8102 52.5717 92.0008 52.5717 92.212V94.6537H51.9226ZM57.5127 94.7773C57.2345 94.7773 56.9898 94.7258 56.7786 94.6228C56.5674 94.5198 56.4026 94.3755 56.2841 94.1901C56.1656 93.9995 56.1064 93.7754 56.1064 93.5178C56.1064 93.2448 56.1759 93.0182 56.315 92.8379C56.4593 92.6524 56.6473 92.5134 56.8791 92.4206C57.116 92.3279 57.371 92.2816 57.644 92.2816C57.8037 92.2816 57.9505 92.2893 58.0845 92.3047C58.2235 92.315 58.3549 92.3331 58.4785 92.3588C58.6073 92.3846 58.7309 92.4181 58.8494 92.4593V92.0111C58.8494 91.7175 58.7516 91.4857 58.5558 91.3157C58.3601 91.1406 58.1102 91.053 57.8063 91.053C57.5384 91.053 57.3169 91.1148 57.1418 91.2384C56.9666 91.3569 56.8456 91.5346 56.7786 91.7716L56.1914 91.6248C56.2378 91.3827 56.3356 91.1766 56.485 91.0066C56.6344 90.8315 56.8224 90.6976 57.0491 90.6048C57.2809 90.5121 57.5333 90.4658 57.8063 90.4658C58.3369 90.4658 58.7464 90.5997 59.0349 90.8675C59.3285 91.1354 59.4753 91.5114 59.4753 91.9957V94.6537H58.8494V94.1205H58.8185C58.7464 94.2236 58.6511 94.3266 58.5326 94.4296C58.4141 94.5326 58.2699 94.6151 58.0999 94.6769C57.9351 94.7438 57.7393 94.7773 57.5127 94.7773ZM57.6286 94.2055C57.8655 94.2055 58.0742 94.154 58.2545 94.051C58.4399 93.948 58.5841 93.8063 58.6872 93.626C58.7953 93.4406 58.8494 93.2345 58.8494 93.0079C58.6588 92.9358 58.476 92.8842 58.3008 92.8533C58.1257 92.8224 57.9454 92.807 57.7599 92.807C57.4663 92.807 57.2268 92.8636 57.0413 92.977C56.861 93.0851 56.7709 93.2654 56.7709 93.5178C56.7709 93.7239 56.8507 93.8913 57.0104 94.0201C57.1753 94.1437 57.3813 94.2055 57.6286 94.2055ZM62.1703 96.4463C61.8612 96.4463 61.5882 96.3897 61.3512 96.2763C61.1143 96.1682 60.9211 96.0239 60.7717 95.8436C60.6223 95.6633 60.5245 95.465 60.4781 95.2487L61.0885 95.0941C61.1555 95.3053 61.2791 95.483 61.4594 95.6273C61.6397 95.7767 61.8767 95.8514 62.1703 95.8514C62.5721 95.8514 62.8708 95.7303 63.0666 95.4882C63.2675 95.2512 63.3679 94.9241 63.3679 94.5069V93.8965H63.337C63.2134 94.118 63.0434 94.2957 62.8271 94.4296C62.6107 94.5584 62.3403 94.6228 62.0157 94.6228C61.7067 94.6228 61.4208 94.5429 61.1581 94.3833C60.9005 94.2236 60.6919 93.9892 60.5322 93.6801C60.3777 93.371 60.3004 92.9924 60.3004 92.5443C60.3004 92.091 60.3777 91.7124 60.5322 91.4084C60.6919 91.0994 60.9057 90.865 61.1735 90.7053C61.4414 90.5456 61.7376 90.4658 62.0621 90.4658C62.3557 90.4658 62.6133 90.5301 62.8348 90.6589C63.0563 90.7826 63.2237 90.9422 63.337 91.138H63.3679V90.5894H63.9861V94.5146C63.9861 94.9525 63.9062 95.3131 63.7466 95.5964C63.592 95.8848 63.3782 96.0986 63.1052 96.2377C62.8322 96.3768 62.5206 96.4463 62.1703 96.4463ZM62.1626 94.0278C62.3841 94.0278 62.585 93.9737 62.7653 93.8656C62.9455 93.7574 63.0898 93.5951 63.198 93.3788C63.3113 93.1573 63.3679 92.8791 63.3679 92.5443C63.3679 92.2094 63.3113 91.9339 63.198 91.7175C63.0898 91.496 62.9455 91.3312 62.7653 91.223C62.585 91.1148 62.3841 91.0607 62.1626 91.0607C61.9462 91.0607 61.7453 91.1148 61.5599 91.223C61.3744 91.3312 61.225 91.496 61.1117 91.7175C60.9984 91.9339 60.9417 92.2094 60.9417 92.5443C60.9417 92.8791 60.9984 93.1573 61.1117 93.3788C61.225 93.5951 61.3744 93.7574 61.5599 93.8656C61.7453 93.9737 61.9462 94.0278 62.1626 94.0278ZM66.7276 94.7773C66.3464 94.7773 66.0142 94.6846 65.7309 94.4992C65.4527 94.3086 65.2364 94.051 65.0818 93.7265C64.9324 93.4019 64.8577 93.0362 64.8577 92.6293C64.8577 92.212 64.935 91.8411 65.0895 91.5166C65.2492 91.1869 65.4682 90.9294 65.7463 90.7439C66.0296 90.5585 66.3542 90.4658 66.7199 90.4658C67.1114 90.4658 67.4411 90.543 67.7089 90.6976C67.982 90.8521 68.1906 91.0736 68.3348 91.3621C68.479 91.6454 68.5512 91.9854 68.5512 92.382C68.5512 92.449 68.5486 92.5159 68.5434 92.5829C68.5434 92.6447 68.5409 92.6988 68.5357 92.7452H65.2518V92.2043H67.8712C67.8661 92.0291 67.8377 91.872 67.7862 91.733C67.7399 91.5887 67.6677 91.4677 67.5699 91.3698C67.4771 91.2668 67.3587 91.1895 67.2144 91.138C67.0753 91.0813 66.9105 91.053 66.7199 91.053C66.4778 91.053 66.264 91.1148 66.0786 91.2384C65.8983 91.3569 65.7566 91.5321 65.6536 91.7639C65.5557 91.9957 65.5068 92.2841 65.5068 92.6293C65.5068 92.9589 65.5583 93.2397 65.6613 93.4715C65.7644 93.7033 65.9086 93.881 66.094 94.0046C66.2846 94.1231 66.5036 94.1824 66.7508 94.1824C67.0753 94.1824 67.32 94.1154 67.4849 93.9815C67.6549 93.8424 67.7785 93.6647 67.8558 93.4483L68.4275 93.6028C68.3451 93.9325 68.1622 94.2107 67.8789 94.4373C67.6008 94.664 67.217 94.7773 66.7276 94.7773ZM69.5215 95.6118H68.9497L69.2434 94.646C69.2537 94.6099 69.2691 94.561 69.2897 94.4992C69.3103 94.4373 69.3387 94.342 69.3747 94.2133C69.4159 94.0845 69.4494 93.9789 69.4752 93.8965C69.5009 93.8089 69.519 93.7471 69.5293 93.711C69.5499 93.711 69.5962 93.711 69.6683 93.711C69.7405 93.711 69.8203 93.711 69.9079 93.711C70.0006 93.711 70.083 93.711 70.1551 93.711C70.2324 93.711 70.2813 93.711 70.3019 93.711C70.2762 93.778 70.235 93.8784 70.1783 94.0124C70.1216 94.1463 70.0676 94.2802 70.016 94.4142C69.9645 94.5429 69.9259 94.6357 69.9001 94.6923L69.5215 95.6118ZM74.6039 94.7773C74.3257 94.7773 74.081 94.7258 73.8698 94.6228C73.6586 94.5198 73.4938 94.3755 73.3753 94.1901C73.2568 93.9995 73.1976 93.7754 73.1976 93.5178C73.1976 93.2448 73.2671 93.0182 73.4062 92.8379C73.5504 92.6524 73.7384 92.5134 73.9703 92.4206C74.2072 92.3279 74.4622 92.2816 74.7352 92.2816C74.8949 92.2816 75.0417 92.2893 75.1756 92.3047C75.3147 92.315 75.4461 92.3331 75.5697 92.3588C75.6985 92.3846 75.8221 92.4181 75.9406 92.4593V92.0111C75.9406 91.7175 75.8427 91.4857 75.647 91.3157C75.4512 91.1406 75.2014 91.053 74.8975 91.053C74.6296 91.053 74.4081 91.1148 74.233 91.2384C74.0578 91.3569 73.9368 91.5346 73.8698 91.7716L73.2826 91.6248C73.3289 91.3827 73.4268 91.1766 73.5762 91.0066C73.7256 90.8315 73.9136 90.6976 74.1402 90.6048C74.372 90.5121 74.6245 90.4658 74.8975 90.4658C75.428 90.4658 75.8376 90.5997 76.126 90.8675C76.4197 91.1354 76.5665 91.5114 76.5665 91.9957V94.6537H75.9406V94.1205H75.9097C75.8376 94.2236 75.7423 94.3266 75.6238 94.4296C75.5053 94.5326 75.3611 94.6151 75.1911 94.6769C75.0263 94.7438 74.8305 94.7773 74.6039 94.7773ZM74.7198 94.2055C74.9567 94.2055 75.1653 94.154 75.3456 94.051C75.5311 93.948 75.6753 93.8063 75.7783 93.626C75.8865 93.4406 75.9406 93.2345 75.9406 93.0079C75.75 92.9358 75.5671 92.8842 75.392 92.8533C75.2168 92.8224 75.0366 92.807 74.8511 92.807C74.5575 92.807 74.318 92.8636 74.1325 92.977C73.9522 93.0851 73.8621 93.2654 73.8621 93.5178C73.8621 93.7239 73.9419 93.8913 74.1016 94.0201C74.2664 94.1437 74.4725 94.2055 74.7198 94.2055ZM77.6308 94.6537V90.5894H78.249V91.1225H78.2799C78.3778 90.9319 78.5323 90.7748 78.7435 90.6512C78.9599 90.5276 79.2071 90.4658 79.4853 90.4658C79.9437 90.4658 80.294 90.5997 80.5361 90.8675C80.7834 91.1354 80.907 91.4986 80.907 91.957V94.6537H80.258V92.042C80.258 91.6866 80.1678 91.4342 79.9875 91.2848C79.8124 91.1354 79.5935 91.0607 79.3307 91.0607C79.1144 91.0607 78.9264 91.1148 78.7667 91.223C78.6121 91.326 78.4911 91.4651 78.4035 91.6402C78.3211 91.8102 78.2799 92.0008 78.2799 92.212V94.6537H77.6308ZM83.5689 94.7773C83.2032 94.7773 82.8838 94.6872 82.6108 94.5069C82.3378 94.3214 82.1266 94.0665 81.9772 93.7419C81.8278 93.4174 81.7531 93.0439 81.7531 92.6215C81.7531 92.194 81.8278 91.8205 81.9772 91.5012C82.1266 91.1766 82.3352 90.9242 82.6031 90.7439C82.8761 90.5585 83.1954 90.4658 83.5612 90.4658C83.7672 90.4658 83.9553 90.4992 84.1252 90.5662C84.2952 90.628 84.442 90.7104 84.5657 90.8135C84.6893 90.9165 84.7846 91.0272 84.8516 91.1457H84.8825L84.8516 90.5894V88.6577H85.5006V94.6537H84.8825V94.0819H84.8516C84.7846 94.2004 84.6893 94.3137 84.5657 94.4219C84.442 94.5301 84.2952 94.6151 84.1252 94.6769C83.9604 94.7438 83.775 94.7773 83.5689 94.7773ZM83.6385 94.1824C83.8857 94.1824 84.1021 94.1231 84.2875 94.0046C84.4729 93.8862 84.6172 93.711 84.7202 93.4792C84.8284 93.2423 84.8825 92.9564 84.8825 92.6215C84.8825 92.2816 84.8284 91.9957 84.7202 91.7639C84.6172 91.5321 84.4729 91.3569 84.2875 91.2384C84.1021 91.12 83.8857 91.0607 83.6385 91.0607C83.3963 91.0607 83.18 91.12 82.9894 91.2384C82.8039 91.3569 82.6597 91.5321 82.5567 91.7639C82.4537 91.9957 82.4022 92.2816 82.4022 92.6215C82.4022 92.9564 82.4537 93.2423 82.5567 93.4792C82.6597 93.711 82.8039 93.8862 82.9894 94.0046C83.18 94.1231 83.3963 94.1824 83.6385 94.1824ZM88.5875 96.3227V90.5894H89.2056V91.1843H89.2365C89.3087 91.0556 89.4065 90.9371 89.5302 90.8289C89.6589 90.7207 89.8083 90.6332 89.9783 90.5662C90.1535 90.4992 90.3363 90.4658 90.5269 90.4658C90.8927 90.4658 91.212 90.5559 91.485 90.7362C91.7581 90.9165 91.9693 91.1689 92.1187 91.4934C92.268 91.8179 92.3427 92.194 92.3427 92.6215C92.3427 93.0491 92.2655 93.4251 92.1109 93.7497C91.9615 94.0742 91.7503 94.3266 91.4773 94.5069C91.2095 94.6872 90.8927 94.7773 90.5269 94.7773C90.2127 94.7773 89.9448 94.7129 89.7233 94.5842C89.5018 94.4502 89.3396 94.2957 89.2365 94.1205H89.2056L89.2365 94.6537V96.3227H88.5875ZM90.4574 94.1824C90.6995 94.1824 90.9133 94.1231 91.0987 94.0046C91.2842 93.8862 91.4284 93.711 91.5314 93.4792C91.6396 93.2423 91.6937 92.9564 91.6937 92.6215C91.6937 92.2816 91.6396 91.9957 91.5314 91.7639C91.4284 91.5321 91.2842 91.3569 91.0987 91.2384C90.9133 91.12 90.6995 91.0607 90.4574 91.0607C90.2153 91.0607 89.9989 91.12 89.8083 91.2384C89.6229 91.3569 89.4761 91.5321 89.3679 91.7639C89.2597 91.9957 89.2056 92.2816 89.2056 92.6215C89.2056 92.9564 89.2597 93.2423 89.3679 93.4792C89.4761 93.711 89.6229 93.8862 89.8083 94.0046C89.9989 94.1231 90.2153 94.1824 90.4574 94.1824ZM93.2126 94.6537V90.5894H93.8308V91.1534H93.8617C93.9132 91.0195 93.993 90.901 94.1012 90.798C94.2094 90.695 94.333 90.6151 94.4721 90.5585C94.6163 90.5018 94.7632 90.4735 94.9125 90.4735C95.0104 90.4735 95.0903 90.4786 95.1521 90.4889C95.2139 90.4992 95.268 90.5147 95.3143 90.5353V91.223C95.2422 91.1869 95.165 91.1612 95.0825 91.1457C95.0001 91.1303 94.9151 91.1225 94.8275 91.1225C94.6473 91.1225 94.4824 91.174 94.333 91.2771C94.1888 91.3801 94.0729 91.5192 93.9853 91.6943C93.9029 91.8643 93.8617 92.0523 93.8617 92.2584V94.6537H93.2126ZM97.5519 94.7773C97.1707 94.7773 96.8385 94.6846 96.5551 94.4992C96.277 94.3086 96.0606 94.051 95.9061 93.7265C95.7567 93.4019 95.682 93.0362 95.682 92.6293C95.682 92.212 95.7593 91.8411 95.9138 91.5166C96.0735 91.1869 96.2924 90.9294 96.5706 90.7439C96.8539 90.5585 97.1784 90.4658 97.5442 90.4658C97.9357 90.4658 98.2653 90.543 98.5332 90.6976C98.8062 90.8521 99.0148 91.0736 99.1591 91.3621C99.3033 91.6454 99.3754 91.9854 99.3754 92.382C99.3754 92.449 99.3729 92.5159 99.3677 92.5829C99.3677 92.6447 99.3651 92.6988 99.36 92.7452H96.0761V92.2043H98.6955C98.6903 92.0291 98.662 91.872 98.6105 91.733C98.5641 91.5887 98.492 91.4677 98.3941 91.3698C98.3014 91.2668 98.1829 91.1895 98.0387 91.138C97.8996 91.0813 97.7348 91.053 97.5442 91.053C97.3021 91.053 97.0883 91.1148 96.9028 91.2384C96.7226 91.3569 96.5809 91.5321 96.4779 91.7639C96.38 91.9957 96.3311 92.2841 96.3311 92.6293C96.3311 92.9589 96.3826 93.2397 96.4856 93.4715C96.5886 93.7033 96.7329 93.881 96.9183 94.0046C97.1089 94.1231 97.3278 94.1824 97.5751 94.1824C97.8996 94.1824 98.1443 94.1154 98.3091 93.9815C98.4791 93.8424 98.6028 93.6647 98.68 93.4483L99.2518 93.6028C99.1694 93.9325 98.9865 94.2107 98.7032 94.4373C98.425 94.664 98.0413 94.7773 97.5519 94.7773ZM101.822 94.7773C101.456 94.7773 101.137 94.6872 100.863 94.5069C100.59 94.3214 100.379 94.0665 100.23 93.7419C100.081 93.4174 100.006 93.0439 100.006 92.6215C100.006 92.194 100.081 91.8205 100.23 91.5012C100.379 91.1766 100.588 90.9242 100.856 90.7439C101.129 90.5585 101.448 90.4658 101.814 90.4658C102.02 90.4658 102.208 90.4992 102.378 90.5662C102.548 90.628 102.695 90.7104 102.818 90.8135C102.942 90.9165 103.037 91.0272 103.104 91.1457H103.135L103.104 90.5894V88.6577H103.753V94.6537H103.135V94.0819H103.104C103.037 94.2004 102.942 94.3137 102.818 94.4219C102.695 94.5301 102.548 94.6151 102.378 94.6769C102.213 94.7438 102.028 94.7773 101.822 94.7773ZM101.891 94.1824C102.138 94.1824 102.355 94.1231 102.54 94.0046C102.726 93.8862 102.87 93.711 102.973 93.4792C103.081 93.2423 103.135 92.9564 103.135 92.6215C103.135 92.2816 103.081 91.9957 102.973 91.7639C102.87 91.5321 102.726 91.3569 102.54 91.2384C102.355 91.12 102.138 91.0607 101.891 91.0607C101.649 91.0607 101.433 91.12 101.242 91.2384C101.057 91.3569 100.912 91.5321 100.809 91.7639C100.706 91.9957 100.655 92.2816 100.655 92.6215C100.655 92.9564 100.706 93.2423 100.809 93.4792C100.912 93.711 101.057 93.8862 101.242 94.0046C101.433 94.1231 101.649 94.1824 101.891 94.1824ZM104.863 94.6537V90.5894H105.512V94.6537H104.863ZM105.188 89.6003C105.059 89.6003 104.948 89.554 104.856 89.4613C104.763 89.3685 104.717 89.2578 104.717 89.129C104.717 88.9951 104.763 88.8843 104.856 88.7968C104.948 88.704 105.059 88.6577 105.188 88.6577C105.322 88.6577 105.433 88.704 105.52 88.7968C105.613 88.8843 105.659 88.9951 105.659 89.129C105.659 89.2578 105.613 89.3685 105.52 89.4613C105.433 89.554 105.322 89.6003 105.188 89.6003ZM108.275 94.7773C107.894 94.7773 107.562 94.6898 107.279 94.5146C106.995 94.3343 106.774 94.0819 106.614 93.7574C106.46 93.4329 106.382 93.0542 106.382 92.6215C106.382 92.1837 106.465 91.8051 106.63 91.4857C106.794 91.1612 107.021 90.9113 107.31 90.7362C107.598 90.5559 107.928 90.4658 108.299 90.4658C108.788 90.4658 109.179 90.592 109.473 90.8444C109.767 91.0916 109.942 91.411 109.999 91.8025L109.373 91.9107C109.321 91.6634 109.203 91.4599 109.017 91.3003C108.837 91.1406 108.595 91.0607 108.291 91.0607C108.044 91.0607 107.825 91.1225 107.634 91.2462C107.449 91.3646 107.302 91.5398 107.194 91.7716C107.086 92.0034 107.031 92.2867 107.031 92.6215C107.031 92.9512 107.086 93.2345 107.194 93.4715C107.302 93.7033 107.449 93.881 107.634 94.0046C107.825 94.1231 108.044 94.1824 108.291 94.1824C108.579 94.1824 108.811 94.1128 108.986 93.9737C109.161 93.8295 109.29 93.6183 109.373 93.3401L109.968 93.4869C109.875 93.8733 109.684 94.1849 109.396 94.4219C109.113 94.6588 108.739 94.7773 108.275 94.7773ZM110.462 91.1843V90.5894H111.15V91.1843H110.462ZM112.178 94.7155C111.858 94.7155 111.601 94.6202 111.405 94.4296C111.209 94.2339 111.111 93.9634 111.111 93.6183V89.4767H111.76V93.4869C111.76 93.6827 111.804 93.8346 111.892 93.9428C111.979 94.051 112.111 94.1051 112.286 94.1051C112.373 94.1051 112.448 94.0948 112.51 94.0742C112.577 94.0536 112.639 94.0252 112.695 93.9892V94.6228C112.628 94.6485 112.556 94.6692 112.479 94.6846C112.402 94.7052 112.301 94.7155 112.178 94.7155ZM111.722 91.1843V90.5894H112.687V91.1843H111.722ZM116.769 94.7773C116.491 94.7773 116.246 94.7258 116.035 94.6228C115.824 94.5198 115.659 94.3755 115.541 94.1901C115.422 93.9995 115.363 93.7754 115.363 93.5178C115.363 93.2448 115.432 93.0182 115.572 92.8379C115.716 92.6524 115.904 92.5134 116.136 92.4206C116.373 92.3279 116.628 92.2816 116.901 92.2816C117.06 92.2816 117.207 92.2893 117.341 92.3047C117.48 92.315 117.611 92.3331 117.735 92.3588C117.864 92.3846 117.987 92.4181 118.106 92.4593V92.0111C118.106 91.7175 118.008 91.4857 117.812 91.3157C117.617 91.1406 117.367 91.053 117.063 91.053C116.795 91.053 116.573 91.1148 116.398 91.2384C116.223 91.3569 116.102 91.5346 116.035 91.7716L115.448 91.6248C115.494 91.3827 115.592 91.1766 115.742 91.0066C115.891 90.8315 116.079 90.6976 116.306 90.6048C116.537 90.5121 116.79 90.4658 117.063 90.4658C117.593 90.4658 118.003 90.5997 118.291 90.8675C118.585 91.1354 118.732 91.5114 118.732 91.9957V94.6537H118.106V94.1205H118.075C118.003 94.2236 117.908 94.3266 117.789 94.4296C117.671 94.5326 117.526 94.6151 117.356 94.6769C117.192 94.7438 116.996 94.7773 116.769 94.7773ZM116.885 94.2055C117.122 94.2055 117.331 94.154 117.511 94.051C117.696 93.948 117.841 93.8063 117.944 93.626C118.052 93.4406 118.106 93.2345 118.106 93.0079C117.915 92.9358 117.732 92.8842 117.557 92.8533C117.382 92.8224 117.202 92.807 117.016 92.807C116.723 92.807 116.483 92.8636 116.298 92.977C116.118 93.0851 116.027 93.2654 116.027 93.5178C116.027 93.7239 116.107 93.8913 116.267 94.0201C116.432 94.1437 116.638 94.2055 116.885 94.2055ZM121.188 94.7773C120.734 94.7773 120.384 94.6434 120.137 94.3755C119.89 94.1077 119.766 93.7445 119.766 93.2861V90.5894H120.415V93.2011C120.415 93.5565 120.503 93.8089 120.678 93.9583C120.858 94.1077 121.079 94.1824 121.342 94.1824C121.564 94.1824 121.752 94.1308 121.906 94.0278C122.061 93.9196 122.179 93.778 122.262 93.6028C122.349 93.4277 122.393 93.2371 122.393 93.0311V90.5894H123.042V94.6537H122.424V94.1205H122.393C122.331 94.2442 122.241 94.3575 122.123 94.4605C122.004 94.5584 121.865 94.6357 121.705 94.6923C121.546 94.749 121.373 94.7773 121.188 94.7773ZM125.734 94.7773C125.368 94.7773 125.049 94.6872 124.776 94.5069C124.503 94.3214 124.292 94.0665 124.143 93.7419C123.993 93.4174 123.918 93.0439 123.918 92.6215C123.918 92.194 123.993 91.8205 124.143 91.5012C124.292 91.1766 124.501 90.9242 124.768 90.7439C125.041 90.5585 125.361 90.4658 125.727 90.4658C125.933 90.4658 126.121 90.4992 126.291 90.5662C126.461 90.628 126.607 90.7104 126.731 90.8135C126.855 90.9165 126.95 91.0272 127.017 91.1457H127.048L127.017 90.5894V88.6577H127.666V94.6537H127.048V94.0819H127.017C126.95 94.2004 126.855 94.3137 126.731 94.4219C126.607 94.5301 126.461 94.6151 126.291 94.6769C126.126 94.7438 125.94 94.7773 125.734 94.7773ZM125.804 94.1824C126.051 94.1824 126.267 94.1231 126.453 94.0046C126.638 93.8862 126.783 93.711 126.886 93.4792C126.994 93.2423 127.048 92.9564 127.048 92.6215C127.048 92.2816 126.994 91.9957 126.886 91.7639C126.783 91.5321 126.638 91.3569 126.453 91.2384C126.267 91.12 126.051 91.0607 125.804 91.0607C125.562 91.0607 125.345 91.12 125.155 91.2384C124.969 91.3569 124.825 91.5321 124.722 91.7639C124.619 91.9957 124.567 92.2816 124.567 92.6215C124.567 92.9564 124.619 93.2423 124.722 93.4792C124.825 93.711 124.969 93.8862 125.155 94.0046C125.345 94.1231 125.562 94.1824 125.804 94.1824ZM128.776 94.6537V90.5894H129.425V94.6537H128.776ZM129.101 89.6003C128.972 89.6003 128.861 89.554 128.768 89.4613C128.676 89.3685 128.629 89.2578 128.629 89.129C128.629 88.9951 128.676 88.8843 128.768 88.7968C128.861 88.704 128.972 88.6577 129.101 88.6577C129.234 88.6577 129.345 88.704 129.433 88.7968C129.526 88.8843 129.572 88.9951 129.572 89.129C129.572 89.2578 129.526 89.3685 129.433 89.4613C129.345 89.554 129.234 89.6003 129.101 89.6003ZM130.202 91.1843V90.5894H130.889V91.1843H130.202ZM131.917 94.7155C131.598 94.7155 131.34 94.6202 131.144 94.4296C130.949 94.2339 130.851 93.9634 130.851 93.6183V89.4767H131.5V93.4869C131.5 93.6827 131.544 93.8346 131.631 93.9428C131.719 94.051 131.85 94.1051 132.025 94.1051C132.113 94.1051 132.187 94.0948 132.249 94.0742C132.316 94.0536 132.378 94.0252 132.435 93.9892V94.6228C132.368 94.6485 132.296 94.6692 132.218 94.6846C132.141 94.7052 132.041 94.7155 131.917 94.7155ZM131.461 91.1843V90.5894H132.427V91.1843H131.461ZM135.28 96.3227V90.5894H135.898V91.1843H135.929C136.001 91.0556 136.099 90.9371 136.223 90.8289C136.352 90.7207 136.501 90.6332 136.671 90.5662C136.846 90.4992 137.029 90.4658 137.22 90.4658C137.585 90.4658 137.905 90.5559 138.178 90.7362C138.451 90.9165 138.662 91.1689 138.811 91.4934C138.961 91.8179 139.035 92.194 139.035 92.6215C139.035 93.0491 138.958 93.4251 138.804 93.7497C138.654 94.0742 138.443 94.3266 138.17 94.5069C137.902 94.6872 137.585 94.7773 137.22 94.7773C136.905 94.7773 136.637 94.7129 136.416 94.5842C136.194 94.4502 136.032 94.2957 135.929 94.1205H135.898L135.929 94.6537V96.3227H135.28ZM137.15 94.1824C137.392 94.1824 137.606 94.1231 137.791 94.0046C137.977 93.8862 138.121 93.711 138.224 93.4792C138.332 93.2423 138.386 92.9564 138.386 92.6215C138.386 92.2816 138.332 91.9957 138.224 91.7639C138.121 91.5321 137.977 91.3569 137.791 91.2384C137.606 91.12 137.392 91.0607 137.15 91.0607C136.908 91.0607 136.692 91.12 136.501 91.2384C136.315 91.3569 136.169 91.5321 136.06 91.7639C135.952 91.9957 135.898 92.2816 135.898 92.6215C135.898 92.9564 135.952 93.2423 136.06 93.4792C136.169 93.711 136.315 93.8862 136.501 94.0046C136.692 94.1231 136.908 94.1824 137.15 94.1824ZM139.906 94.6537V90.5894H140.524V91.1534H140.555C140.606 91.0195 140.686 90.901 140.794 90.798C140.903 90.695 141.026 90.6151 141.165 90.5585C141.31 90.5018 141.456 90.4735 141.606 90.4735C141.704 90.4735 141.784 90.4786 141.845 90.4889C141.907 90.4992 141.961 90.5147 142.008 90.5353V91.223C141.935 91.1869 141.858 91.1612 141.776 91.1457C141.693 91.1303 141.608 91.1225 141.521 91.1225C141.34 91.1225 141.176 91.174 141.026 91.2771C140.882 91.3801 140.766 91.5192 140.679 91.6943C140.596 91.8643 140.555 92.0523 140.555 92.2584V94.6537H139.906ZM144.322 94.7773C143.926 94.7773 143.581 94.6872 143.287 94.5069C142.999 94.3214 142.774 94.0665 142.615 93.7419C142.455 93.4174 142.375 93.0439 142.375 92.6215C142.375 92.194 142.455 91.8205 142.615 91.5012C142.774 91.1766 142.999 90.9242 143.287 90.7439C143.581 90.5585 143.926 90.4658 144.322 90.4658C144.719 90.4658 145.062 90.5585 145.35 90.7439C145.639 90.9242 145.86 91.1766 146.015 91.5012C146.174 91.8205 146.254 92.194 146.254 92.6215C146.254 93.0439 146.174 93.4174 146.015 93.7419C145.86 94.0665 145.639 94.3214 145.35 94.5069C145.062 94.6872 144.719 94.7773 144.322 94.7773ZM144.322 94.1824C144.575 94.1824 144.796 94.1205 144.987 93.9969C145.183 93.8733 145.335 93.6956 145.443 93.4638C145.551 93.232 145.605 92.9512 145.605 92.6215C145.605 92.2919 145.551 92.0111 145.443 91.7793C145.335 91.5475 145.183 91.3698 144.987 91.2462C144.796 91.1225 144.575 91.0607 144.322 91.0607C144.07 91.0607 143.846 91.1225 143.65 91.2462C143.454 91.3698 143.3 91.5475 143.187 91.7793C143.078 92.0111 143.024 92.2919 143.024 92.6215C143.024 92.9512 143.078 93.232 143.187 93.4638C143.3 93.6956 143.454 93.8733 143.65 93.9969C143.846 94.1205 144.07 94.1824 144.322 94.1824ZM148.758 96.4463C148.449 96.4463 148.176 96.3897 147.939 96.2763C147.702 96.1682 147.508 96.0239 147.359 95.8436C147.21 95.6633 147.112 95.465 147.065 95.2487L147.676 95.0941C147.743 95.3053 147.866 95.483 148.047 95.6273C148.227 95.7767 148.464 95.8514 148.758 95.8514C149.159 95.8514 149.458 95.7303 149.654 95.4882C149.855 95.2512 149.955 94.9241 149.955 94.5069V93.8965H149.924C149.801 94.118 149.631 94.2957 149.414 94.4296C149.198 94.5584 148.928 94.6228 148.603 94.6228C148.294 94.6228 148.008 94.5429 147.745 94.3833C147.488 94.2236 147.279 93.9892 147.12 93.6801C146.965 93.371 146.888 92.9924 146.888 92.5443C146.888 92.091 146.965 91.7124 147.12 91.4084C147.279 91.0994 147.493 90.865 147.761 90.7053C148.029 90.5456 148.325 90.4658 148.649 90.4658C148.943 90.4658 149.201 90.5301 149.422 90.6589C149.644 90.7826 149.811 90.9422 149.924 91.138H149.955V90.5894H150.573V94.5146C150.573 94.9525 150.494 95.3131 150.334 95.5964C150.179 95.8848 149.966 96.0986 149.693 96.2377C149.42 96.3768 149.108 96.4463 148.758 96.4463ZM148.75 94.0278C148.971 94.0278 149.172 93.9737 149.353 93.8656C149.533 93.7574 149.677 93.5951 149.785 93.3788C149.899 93.1573 149.955 92.8791 149.955 92.5443C149.955 92.2094 149.899 91.9339 149.785 91.7175C149.677 91.496 149.533 91.3312 149.353 91.223C149.172 91.1148 148.971 91.0607 148.75 91.0607C148.534 91.0607 148.333 91.1148 148.147 91.223C147.962 91.3312 147.812 91.496 147.699 91.7175C147.586 91.9339 147.529 92.2094 147.529 92.5443C147.529 92.8791 147.586 93.1573 147.699 93.3788C147.812 93.5951 147.962 93.7574 148.147 93.8656C148.333 93.9737 148.534 94.0278 148.75 94.0278ZM151.685 94.6537V90.5894H152.303V91.1534H152.334C152.385 91.0195 152.465 90.901 152.573 90.798C152.682 90.695 152.805 90.6151 152.944 90.5585C153.088 90.5018 153.235 90.4735 153.385 90.4735C153.483 90.4735 153.562 90.4786 153.624 90.4889C153.686 90.4992 153.74 90.5147 153.786 90.5353V91.223C153.714 91.1869 153.637 91.1612 153.555 91.1457C153.472 91.1303 153.387 91.1225 153.3 91.1225C153.119 91.1225 152.955 91.174 152.805 91.2771C152.661 91.3801 152.545 91.5192 152.457 91.6943C152.375 91.8643 152.334 92.0523 152.334 92.2584V94.6537H151.685ZM156.024 94.7773C155.643 94.7773 155.311 94.6846 155.027 94.4992C154.749 94.3086 154.533 94.051 154.378 93.7265C154.229 93.4019 154.154 93.0362 154.154 92.6293C154.154 92.212 154.231 91.8411 154.386 91.5166C154.546 91.1869 154.765 90.9294 155.043 90.7439C155.326 90.5585 155.651 90.4658 156.016 90.4658C156.408 90.4658 156.737 90.543 157.005 90.6976C157.278 90.8521 157.487 91.0736 157.631 91.3621C157.775 91.6454 157.848 91.9854 157.848 92.382C157.848 92.449 157.845 92.5159 157.84 92.5829C157.84 92.6447 157.837 92.6988 157.832 92.7452H154.548V92.2043H157.168C157.162 92.0291 157.134 91.872 157.083 91.733C157.036 91.5887 156.964 91.4677 156.866 91.3698C156.774 91.2668 156.655 91.1895 156.511 91.138C156.372 91.0813 156.207 91.053 156.016 91.053C155.774 91.053 155.56 91.1148 155.375 91.2384C155.195 91.3569 155.053 91.5321 154.95 91.7639C154.852 91.9957 154.803 92.2841 154.803 92.6293C154.803 92.9589 154.855 93.2397 154.958 93.4715C155.061 93.7033 155.205 93.881 155.39 94.0046C155.581 94.1231 155.8 94.1824 156.047 94.1824C156.372 94.1824 156.616 94.1154 156.781 93.9815C156.951 93.8424 157.075 93.6647 157.152 93.4483L157.724 93.6028C157.642 93.9325 157.459 94.2107 157.175 94.4373C156.897 94.664 156.513 94.7773 156.024 94.7773ZM160.093 94.7773C159.815 94.7773 159.555 94.731 159.312 94.6382C159.07 94.5404 158.869 94.4013 158.71 94.221C158.555 94.0356 158.463 93.8115 158.432 93.5488L159.057 93.4406C159.099 93.6466 159.207 93.8243 159.382 93.9737C159.557 94.1231 159.794 94.1978 160.093 94.1978C160.35 94.1978 160.569 94.1437 160.75 94.0355C160.93 93.9222 161.02 93.7625 161.02 93.5565C161.02 93.4329 160.989 93.3273 160.927 93.2397C160.866 93.147 160.773 93.0697 160.649 93.0079C160.531 92.9461 160.379 92.8997 160.193 92.8688L159.691 92.7761C159.464 92.7349 159.261 92.6653 159.081 92.5674C158.906 92.4696 158.766 92.3434 158.663 92.1888C158.566 92.0291 158.517 91.8386 158.517 91.617C158.517 91.3852 158.584 91.1844 158.717 91.0144C158.857 90.8392 159.039 90.7053 159.266 90.6126C159.498 90.5147 159.75 90.4658 160.023 90.4658C160.271 90.4658 160.5 90.5044 160.711 90.5817C160.927 90.6538 161.108 90.7722 161.252 90.9371C161.401 91.0968 161.494 91.3106 161.53 91.5784L160.927 91.6711C160.876 91.4445 160.765 91.2848 160.595 91.1921C160.43 91.0942 160.24 91.0453 160.023 91.0453C159.786 91.0453 159.585 91.0968 159.421 91.1998C159.256 91.2977 159.173 91.4342 159.173 91.6093C159.173 91.7639 159.235 91.8901 159.359 91.9879C159.482 92.0858 159.678 92.1631 159.946 92.2197L160.518 92.3356C160.884 92.4078 161.167 92.5417 161.368 92.7374C161.569 92.928 161.669 93.1933 161.669 93.5333C161.669 93.7857 161.6 94.0046 161.461 94.1901C161.321 94.3755 161.133 94.5198 160.896 94.6228C160.66 94.7258 160.392 94.7773 160.093 94.7773ZM163.851 94.7773C163.573 94.7773 163.312 94.731 163.07 94.6382C162.828 94.5404 162.627 94.4013 162.468 94.221C162.313 94.0356 162.22 93.8115 162.189 93.5488L162.815 93.4406C162.857 93.6466 162.965 93.8243 163.14 93.9737C163.315 94.1231 163.552 94.1978 163.851 94.1978C164.108 94.1978 164.327 94.1437 164.507 94.0355C164.688 93.9222 164.778 93.7625 164.778 93.5565C164.778 93.4329 164.747 93.3273 164.685 93.2397C164.623 93.147 164.531 93.0697 164.407 93.0079C164.289 92.9461 164.137 92.8997 163.951 92.8688L163.449 92.7761C163.222 92.7349 163.019 92.6653 162.838 92.5674C162.663 92.4696 162.524 92.3434 162.421 92.1888C162.323 92.0291 162.274 91.8386 162.274 91.617C162.274 91.3852 162.341 91.1844 162.475 91.0144C162.614 90.8392 162.797 90.7053 163.024 90.6126C163.256 90.5147 163.508 90.4658 163.781 90.4658C164.028 90.4658 164.258 90.5044 164.469 90.5817C164.685 90.6538 164.865 90.7722 165.01 90.9371C165.159 91.0968 165.252 91.3106 165.288 91.5784L164.685 91.6711C164.634 91.4445 164.523 91.2848 164.353 91.1921C164.188 91.0942 163.997 91.0453 163.781 91.0453C163.544 91.0453 163.343 91.0968 163.178 91.1998C163.014 91.2977 162.931 91.4342 162.931 91.6093C162.931 91.7639 162.993 91.8901 163.117 91.9879C163.24 92.0858 163.436 92.1631 163.704 92.2197L164.276 92.3356C164.641 92.4078 164.925 92.5417 165.126 92.7374C165.327 92.928 165.427 93.1933 165.427 93.5333C165.427 93.7857 165.357 94.0046 165.218 94.1901C165.079 94.3755 164.891 94.5198 164.654 94.6228C164.417 94.7258 164.149 94.7773 163.851 94.7773ZM12.0873 103.792C11.8092 103.792 11.5645 103.74 11.3533 103.637C11.1421 103.534 10.9773 103.39 10.8588 103.205C10.7403 103.014 10.6811 102.79 10.6811 102.532C10.6811 102.259 10.7506 102.033 10.8897 101.853C11.0339 101.667 11.2219 101.528 11.4537 101.435C11.6907 101.343 11.9457 101.296 12.2187 101.296C12.3784 101.296 12.5252 101.304 12.6591 101.319C12.7982 101.33 12.9296 101.348 13.0532 101.373C13.182 101.399 13.3056 101.433 13.4241 101.474V101.026C13.4241 100.732 13.3262 100.5 13.1305 100.33C12.9347 100.155 12.6849 100.068 12.381 100.068C12.1131 100.068 11.8916 100.129 11.7165 100.253C11.5413 100.372 11.4203 100.549 11.3533 100.786L10.7661 100.639C10.8124 100.397 10.9103 100.191 11.0597 100.021C11.2091 99.8461 11.3971 99.7122 11.6237 99.6195C11.8555 99.5268 12.1079 99.4804 12.381 99.4804C12.9115 99.4804 13.3211 99.6143 13.6095 99.8822C13.9031 100.15 14.05 100.526 14.05 101.01V103.668H13.4241V103.135H13.3932C13.3211 103.238 13.2258 103.341 13.1073 103.444C12.9888 103.547 12.8446 103.63 12.6746 103.692C12.5097 103.758 12.314 103.792 12.0873 103.792ZM12.2032 103.22C12.4402 103.22 12.6488 103.169 12.8291 103.066C13.0146 102.963 13.1588 102.821 13.2618 102.641C13.37 102.455 13.4241 102.249 13.4241 102.023C13.2335 101.95 13.0506 101.899 12.8755 101.868C12.7003 101.837 12.52 101.822 12.3346 101.822C12.041 101.822 11.8014 101.878 11.616 101.992C11.4357 102.1 11.3456 102.28 11.3456 102.532C11.3456 102.739 11.4254 102.906 11.5851 103.035C11.7499 103.158 11.956 103.22 12.2032 103.22ZM15.1146 103.668V99.604H15.7327V100.137H15.7636C15.8615 99.9466 16.016 99.7895 16.2273 99.6658C16.4436 99.5422 16.6909 99.4804 16.969 99.4804C17.4275 99.4804 17.7778 99.6143 18.0199 99.8822C18.2671 100.15 18.3908 100.513 18.3908 100.972V103.668H17.7417V101.057C17.7417 100.701 17.6516 100.449 17.4713 100.299C17.2961 100.15 17.0772 100.075 16.8145 100.075C16.5981 100.075 16.4101 100.129 16.2504 100.238C16.0959 100.341 15.9748 100.48 15.8873 100.655C15.8048 100.825 15.7636 101.015 15.7636 101.227V103.668H15.1146ZM21.0523 103.792C20.6865 103.792 20.3672 103.702 20.0941 103.522C19.8211 103.336 19.6099 103.081 19.4605 102.757C19.3112 102.432 19.2365 102.059 19.2365 101.636C19.2365 101.209 19.3112 100.835 19.4605 100.516C19.6099 100.191 19.8186 99.9388 20.0864 99.7586C20.3594 99.5731 20.6788 99.4804 21.0445 99.4804C21.2506 99.4804 21.4386 99.5139 21.6086 99.5808C21.7786 99.6427 21.9254 99.7251 22.049 99.8281C22.1727 99.9311 22.268 100.042 22.3349 100.16H22.3658L22.3349 99.604V97.6723H22.984V103.668H22.3658V103.097H22.3349C22.268 103.215 22.1727 103.328 22.049 103.437C21.9254 103.545 21.7786 103.63 21.6086 103.692C21.4438 103.758 21.2583 103.792 21.0523 103.792ZM21.1218 103.197C21.3691 103.197 21.5854 103.138 21.7709 103.019C21.9563 102.901 22.1005 102.726 22.2036 102.494C22.3117 102.257 22.3658 101.971 22.3658 101.636C22.3658 101.296 22.3117 101.01 22.2036 100.778C22.1005 100.547 21.9563 100.372 21.7709 100.253C21.5854 100.135 21.3691 100.075 21.1218 100.075C20.8797 100.075 20.6634 100.135 20.4728 100.253C20.2873 100.372 20.1431 100.547 20.0401 100.778C19.937 101.01 19.8855 101.296 19.8855 101.636C19.8855 101.971 19.937 102.257 20.0401 102.494C20.1431 102.726 20.2873 102.901 20.4728 103.019C20.6634 103.138 20.8797 103.197 21.1218 103.197ZM27.7245 103.792C27.3433 103.792 27.0111 103.704 26.7278 103.529C26.4444 103.349 26.2229 103.097 26.0632 102.772C25.9087 102.447 25.8314 102.069 25.8314 101.636C25.8314 101.198 25.9139 100.82 26.0787 100.5C26.2435 100.176 26.4702 99.926 26.7587 99.7508C27.0471 99.5705 27.3768 99.4804 27.7477 99.4804C28.2371 99.4804 28.6286 99.6066 28.9222 99.859C29.2158 100.106 29.3909 100.426 29.4476 100.817L28.8217 100.925C28.7702 100.678 28.6517 100.475 28.4663 100.315C28.286 100.155 28.0439 100.075 27.74 100.075C27.4927 100.075 27.2738 100.137 27.0832 100.261C26.8977 100.379 26.7509 100.554 26.6428 100.786C26.5346 101.018 26.4805 101.301 26.4805 101.636C26.4805 101.966 26.5346 102.249 26.6428 102.486C26.7509 102.718 26.8977 102.896 27.0832 103.019C27.2738 103.138 27.4927 103.197 27.74 103.197C28.0284 103.197 28.2602 103.127 28.4354 102.988C28.6105 102.844 28.7393 102.633 28.8217 102.355L29.4167 102.502C29.324 102.888 29.1334 103.2 28.8449 103.437C28.5616 103.673 28.1881 103.792 27.7245 103.792ZM31.8759 103.792C31.4793 103.792 31.1342 103.702 30.8406 103.522C30.5521 103.336 30.328 103.081 30.1683 102.757C30.0086 102.432 29.9288 102.059 29.9288 101.636C29.9288 101.209 30.0086 100.835 30.1683 100.516C30.328 100.191 30.5521 99.9388 30.8406 99.7586C31.1342 99.5731 31.4793 99.4804 31.8759 99.4804C32.2726 99.4804 32.6152 99.5731 32.9036 99.7586C33.1921 99.9388 33.4136 100.191 33.5681 100.516C33.7278 100.835 33.8077 101.209 33.8077 101.636C33.8077 102.059 33.7278 102.432 33.5681 102.757C33.4136 103.081 33.1921 103.336 32.9036 103.522C32.6152 103.702 32.2726 103.792 31.8759 103.792ZM31.8759 103.197C32.1284 103.197 32.3499 103.135 32.5405 103.012C32.7362 102.888 32.8882 102.71 32.9963 102.478C33.1045 102.247 33.1586 101.966 33.1586 101.636C33.1586 101.306 33.1045 101.026 32.9963 100.794C32.8882 100.562 32.7362 100.384 32.5405 100.261C32.3499 100.137 32.1284 100.075 31.8759 100.075C31.6235 100.075 31.3995 100.137 31.2037 100.261C31.008 100.384 30.8534 100.562 30.7401 100.794C30.6319 101.026 30.5778 101.306 30.5778 101.636C30.5778 101.966 30.6319 102.247 30.7401 102.478C30.8534 102.71 31.008 102.888 31.2037 103.012C31.3995 103.135 31.6235 103.197 31.8759 103.197ZM34.6807 103.668V99.604H35.2988V100.122H35.3297C35.3967 99.9981 35.4868 99.8899 35.6002 99.7972C35.7135 99.6993 35.8423 99.6221 35.9865 99.5654C36.1359 99.5087 36.293 99.4804 36.4578 99.4804C36.7308 99.4804 36.9627 99.5448 37.1532 99.6736C37.3438 99.7972 37.4804 99.9672 37.5628 100.184C37.6812 99.9723 37.8461 99.8023 38.0573 99.6736C38.2736 99.5448 38.5235 99.4804 38.8068 99.4804C39.2086 99.4804 39.5177 99.604 39.734 99.8513C39.9555 100.093 40.0663 100.423 40.0663 100.84V103.668H39.4249V100.948C39.4249 100.645 39.3554 100.423 39.2163 100.284C39.0824 100.14 38.8892 100.068 38.6368 100.068C38.4565 100.068 38.2942 100.114 38.15 100.207C38.0109 100.299 37.9002 100.426 37.8178 100.585C37.7405 100.745 37.7019 100.925 37.7019 101.126V103.668H37.0528V100.956C37.0528 100.652 36.9833 100.428 36.8442 100.284C36.7051 100.14 36.5119 100.068 36.2647 100.068C36.0844 100.068 35.9221 100.117 35.7779 100.214C35.6388 100.307 35.528 100.436 35.4456 100.601C35.3683 100.76 35.3297 100.941 35.3297 101.142V103.668H34.6807ZM41.1474 105.337V99.604H41.7655V100.199H41.7964C41.8686 100.07 41.9664 99.9517 42.0901 99.8436C42.2188 99.7354 42.3682 99.6478 42.5382 99.5808C42.7134 99.5139 42.8962 99.4804 43.0868 99.4804C43.4525 99.4804 43.7719 99.5705 44.0449 99.7508C44.318 99.9311 44.5292 100.184 44.6785 100.508C44.8279 100.833 44.9026 101.209 44.9026 101.636C44.9026 102.064 44.8253 102.44 44.6708 102.764C44.5214 103.089 44.3102 103.341 44.0372 103.522C43.7693 103.702 43.4525 103.792 43.0868 103.792C42.7726 103.792 42.5047 103.728 42.2832 103.599C42.0617 103.465 41.8995 103.31 41.7964 103.135H41.7655L41.7964 103.668V105.337H41.1474ZM43.0173 103.197C43.2594 103.197 43.4732 103.138 43.6586 103.019C43.844 102.901 43.9883 102.726 44.0913 102.494C44.1995 102.257 44.2536 101.971 44.2536 101.636C44.2536 101.296 44.1995 101.01 44.0913 100.778C43.9883 100.547 43.844 100.372 43.6586 100.253C43.4732 100.135 43.2594 100.075 43.0173 100.075C42.7752 100.075 42.5588 100.135 42.3682 100.253C42.1828 100.372 42.036 100.547 41.9278 100.778C41.8196 101.01 41.7655 101.296 41.7655 101.636C41.7655 101.971 41.8196 102.257 41.9278 102.494C42.036 102.726 42.1828 102.901 42.3682 103.019C42.5588 103.138 42.7752 103.197 43.0173 103.197ZM45.7729 103.668V97.6723H46.422V103.668H45.7729ZM47.531 103.668V99.604H48.1801V103.668H47.531ZM47.8556 98.615C47.7268 98.615 47.616 98.5686 47.5233 98.4759C47.4306 98.3832 47.3842 98.2724 47.3842 98.1436C47.3842 98.0097 47.4306 97.899 47.5233 97.8114C47.616 97.7187 47.7268 97.6723 47.8556 97.6723C47.9895 97.6723 48.1002 97.7187 48.1878 97.8114C48.2805 97.899 48.3269 98.0097 48.3269 98.1436C48.3269 98.2724 48.2805 98.3832 48.1878 98.4759C48.1002 98.5686 47.9895 98.615 47.8556 98.615ZM50.5178 103.792C50.2396 103.792 49.9949 103.74 49.7837 103.637C49.5725 103.534 49.4077 103.39 49.2892 103.205C49.1707 103.014 49.1115 102.79 49.1115 102.532C49.1115 102.259 49.181 102.033 49.3201 101.853C49.4643 101.667 49.6524 101.528 49.8842 101.435C50.1211 101.343 50.3761 101.296 50.6491 101.296C50.8088 101.296 50.9556 101.304 51.0896 101.319C51.2286 101.33 51.36 101.348 51.4836 101.373C51.6124 101.399 51.736 101.433 51.8545 101.474V101.026C51.8545 100.732 51.7566 100.5 51.5609 100.33C51.3651 100.155 51.1153 100.068 50.8114 100.068C50.5435 100.068 50.322 100.129 50.1469 100.253C49.9717 100.372 49.8507 100.549 49.7837 100.786L49.1965 100.639C49.2428 100.397 49.3407 100.191 49.4901 100.021C49.6395 99.8461 49.8275 99.7122 50.0542 99.6195C50.286 99.5268 50.5384 99.4804 50.8114 99.4804C51.342 99.4804 51.7515 99.6143 52.04 99.8822C52.3336 100.15 52.4804 100.526 52.4804 101.01V103.668H51.8545V103.135H51.8236C51.7515 103.238 51.6562 103.341 51.5377 103.444C51.4192 103.547 51.275 103.63 51.105 103.692C50.9402 103.758 50.7444 103.792 50.5178 103.792ZM50.6337 103.22C50.8706 103.22 51.0793 103.169 51.2595 103.066C51.445 102.963 51.5892 102.821 51.6923 102.641C51.8004 102.455 51.8545 102.249 51.8545 102.023C51.6639 101.95 51.4811 101.899 51.3059 101.868C51.1308 101.837 50.9505 101.822 50.765 101.822C50.4714 101.822 50.2319 101.878 50.0464 101.992C49.8661 102.1 49.776 102.28 49.776 102.532C49.776 102.739 49.8558 102.906 50.0155 103.035C50.1804 103.158 50.3864 103.22 50.6337 103.22ZM53.545 103.668V99.604H54.1632V100.137H54.1941C54.2919 99.9466 54.4465 99.7895 54.6577 99.6658C54.874 99.5422 55.1213 99.4804 55.3995 99.4804C55.8579 99.4804 56.2082 99.6143 56.4503 99.8822C56.6976 100.15 56.8212 100.513 56.8212 100.972V103.668H56.1721V101.057C56.1721 100.701 56.082 100.449 55.9017 100.299C55.7266 100.15 55.5076 100.075 55.2449 100.075C55.0286 100.075 54.8405 100.129 54.6809 100.238C54.5263 100.341 54.4053 100.48 54.3177 100.655C54.2353 100.825 54.1941 101.015 54.1941 101.227V103.668H53.545ZM59.56 103.792C59.1788 103.792 58.8465 103.704 58.5632 103.529C58.2799 103.349 58.0584 103.097 57.8987 102.772C57.7442 102.447 57.6669 102.069 57.6669 101.636C57.6669 101.198 57.7493 100.82 57.9142 100.5C58.079 100.176 58.3056 99.926 58.5941 99.7508C58.8826 99.5705 59.2123 99.4804 59.5831 99.4804C60.0725 99.4804 60.464 99.6066 60.7576 99.859C61.0512 100.106 61.2264 100.426 61.2831 100.817L60.6572 100.925C60.6057 100.678 60.4872 100.475 60.3017 100.315C60.1215 100.155 59.8793 100.075 59.5754 100.075C59.3282 100.075 59.1092 100.137 58.9186 100.261C58.7332 100.379 58.5864 100.554 58.4782 100.786C58.37 101.018 58.3159 101.301 58.3159 101.636C58.3159 101.966 58.37 102.249 58.4782 102.486C58.5864 102.718 58.7332 102.896 58.9186 103.019C59.1092 103.138 59.3282 103.197 59.5754 103.197C59.8639 103.197 60.0957 103.127 60.2708 102.988C60.446 102.844 60.5748 102.633 60.6572 102.355L61.2521 102.502C61.1594 102.888 60.9688 103.2 60.6804 103.437C60.397 103.673 60.0236 103.792 59.56 103.792ZM63.6341 103.792C63.2529 103.792 62.9207 103.699 62.6374 103.514C62.3592 103.323 62.1429 103.066 61.9883 102.741C61.8389 102.417 61.7642 102.051 61.7642 101.644C61.7642 101.227 61.8415 100.856 61.996 100.531C62.1557 100.202 62.3747 99.944 62.6528 99.7586C62.9361 99.5731 63.2607 99.4804 63.6264 99.4804C64.0179 99.4804 64.3476 99.5577 64.6156 99.7122C64.8886 99.8667 65.0973 100.088 65.2415 100.377C65.3857 100.66 65.4579 101 65.4579 101.397C65.4579 101.464 65.4553 101.531 65.4501 101.598C65.4501 101.659 65.4476 101.713 65.4424 101.76H62.1583V101.219H64.7779C64.7727 101.044 64.7444 100.887 64.6929 100.748C64.6465 100.603 64.5744 100.482 64.4766 100.384C64.3836 100.281 64.2652 100.204 64.1209 100.153C63.9818 100.096 63.817 100.068 63.6264 100.068C63.3843 100.068 63.1705 100.129 62.9851 100.253C62.8048 100.372 62.6631 100.547 62.5601 100.778C62.4622 101.01 62.4133 101.299 62.4133 101.644C62.4133 101.974 62.4648 102.254 62.5678 102.486C62.6709 102.718 62.8151 102.896 63.0005 103.019C63.1911 103.138 63.4101 103.197 63.6573 103.197C63.9818 103.197 64.2265 103.13 64.3916 102.996C64.5615 102.857 64.6852 102.679 64.7624 102.463L65.3342 102.617C65.2518 102.947 65.0689 103.225 64.7856 103.452C64.5075 103.679 64.1235 103.792 63.6341 103.792ZM70.0122 103.792C69.6155 103.792 69.2704 103.702 68.9768 103.522C68.6883 103.336 68.4642 103.081 68.3046 102.757C68.1449 102.432 68.065 102.059 68.065 101.636C68.065 101.209 68.1449 100.835 68.3046 100.516C68.4642 100.191 68.6883 99.9388 68.9768 99.7586C69.2704 99.5731 69.6155 99.4804 70.0122 99.4804C70.4088 99.4804 70.7514 99.5731 71.0399 99.7586C71.3283 99.9388 71.5498 100.191 71.7044 100.516C71.864 100.835 71.9439 101.209 71.9439 101.636C71.9439 102.059 71.864 102.432 71.7044 102.757C71.5498 103.081 71.3283 103.336 71.0399 103.522C70.7514 103.702 70.4088 103.792 70.0122 103.792ZM70.0122 103.197C70.2646 103.197 70.4861 103.135 70.6767 103.012C70.8724 102.888 71.0244 102.71 71.1326 102.478C71.2407 102.247 71.2948 101.966 71.2948 101.636C71.2948 101.306 71.2407 101.026 71.1326 100.794C71.0244 100.562 70.8724 100.384 70.6767 100.261C70.4861 100.137 70.2646 100.075 70.0122 100.075C69.7598 100.075 69.5357 100.137 69.3399 100.261C69.1442 100.384 68.9897 100.562 68.8763 100.794C68.7682 101.026 68.7141 101.306 68.7141 101.636C68.7141 101.966 68.7682 102.247 68.8763 102.478C68.9897 102.71 69.1442 102.888 69.3399 103.012C69.5357 103.135 69.7598 103.197 70.0122 103.197ZM74.2079 103.792C73.7545 103.792 73.4043 103.658 73.157 103.39C72.9097 103.122 72.7861 102.759 72.7861 102.301V99.604H73.4352V102.216C73.4352 102.571 73.5227 102.824 73.6979 102.973C73.8782 103.122 74.0997 103.197 74.3624 103.197C74.5839 103.197 74.7719 103.145 74.9264 103.042C75.081 102.934 75.1995 102.793 75.2819 102.617C75.3695 102.442 75.4132 102.252 75.4132 102.046V99.604H76.0623V103.668H75.4441V103.135H75.4132C75.3514 103.259 75.2613 103.372 75.1428 103.475C75.0243 103.573 74.8852 103.65 74.7256 103.707C74.5659 103.764 74.3933 103.792 74.2079 103.792ZM76.8459 100.199V99.604H77.5336V100.199H76.8459ZM78.5613 103.73C78.2419 103.73 77.9843 103.635 77.7886 103.444C77.5928 103.249 77.495 102.978 77.495 102.633V98.4914H78.144V102.502C78.144 102.697 78.1878 102.849 78.2754 102.957C78.363 103.066 78.4943 103.12 78.6695 103.12C78.757 103.12 78.8317 103.109 78.8935 103.089C78.9605 103.068 79.0223 103.04 79.079 103.004V103.637C79.012 103.663 78.9399 103.684 78.8626 103.699C78.7854 103.72 78.6849 103.73 78.5613 103.73ZM78.1054 100.199V99.604H79.0713V100.199H78.1054ZM81.4048 103.792C81.0236 103.792 80.6913 103.704 80.408 103.529C80.1247 103.349 79.9032 103.097 79.7435 102.772C79.5889 102.447 79.5117 102.069 79.5117 101.636C79.5117 101.198 79.5941 100.82 79.7589 100.5C79.9238 100.176 80.1504 99.926 80.4389 99.7508C80.7274 99.5705 81.057 99.4804 81.4279 99.4804C81.9173 99.4804 82.3088 99.6066 82.6024 99.859C82.896 100.106 83.0712 100.426 83.1278 100.817L82.502 100.925C82.4505 100.678 82.332 100.475 82.1465 100.315C81.9662 100.155 81.7241 100.075 81.4202 100.075C81.1729 100.075 80.954 100.137 80.7634 100.261C80.578 100.379 80.4312 100.554 80.323 100.786C80.2148 101.018 80.1607 101.301 80.1607 101.636C80.1607 101.966 80.2148 102.249 80.323 102.486C80.4312 102.718 80.578 102.896 80.7634 103.019C80.954 103.138 81.1729 103.197 81.4202 103.197C81.7087 103.197 81.9405 103.127 82.1156 102.988C82.2908 102.844 82.4195 102.633 82.502 102.355L83.0969 102.502C83.0042 102.888 82.8136 103.2 82.5251 103.437C82.2418 103.673 81.8684 103.792 81.4048 103.792ZM85.556 103.792C85.1593 103.792 84.8142 103.702 84.5206 103.522C84.2321 103.336 84.008 103.081 83.8484 102.757C83.6887 102.432 83.6088 102.059 83.6088 101.636C83.6088 101.209 83.6887 100.835 83.8484 100.516C84.008 100.191 84.2321 99.9388 84.5206 99.7586C84.8142 99.5731 85.1593 99.4804 85.556 99.4804C85.9526 99.4804 86.2952 99.5731 86.5837 99.7586C86.8721 99.9388 87.0936 100.191 87.2482 100.516C87.4079 100.835 87.4877 101.209 87.4877 101.636C87.4877 102.059 87.4079 102.432 87.2482 102.757C87.0936 103.081 86.8721 103.336 86.5837 103.522C86.2952 103.702 85.9526 103.792 85.556 103.792ZM85.556 103.197C85.8084 103.197 86.0299 103.135 86.2205 103.012C86.4162 102.888 86.5682 102.71 86.6764 102.478C86.7846 102.247 86.8387 101.966 86.8387 101.636C86.8387 101.306 86.7846 101.026 86.6764 100.794C86.5682 100.562 86.4162 100.384 86.2205 100.261C86.0299 100.137 85.8084 100.075 85.556 100.075C85.3036 100.075 85.0795 100.137 84.8838 100.261C84.688 100.384 84.5335 100.562 84.4201 100.794C84.312 101.026 84.2579 101.306 84.2579 101.636C84.2579 101.966 84.312 102.247 84.4201 102.478C84.5335 102.71 84.688 102.888 84.8838 103.012C85.0795 103.135 85.3036 103.197 85.556 103.197ZM88.3608 103.668V99.604H88.979V100.122H89.0099C89.0769 99.9981 89.167 99.8899 89.2803 99.7972C89.3937 99.6993 89.5224 99.6221 89.6667 99.5654C89.8161 99.5087 89.9732 99.4804 90.138 99.4804C90.411 99.4804 90.6428 99.5448 90.8334 99.6736C91.024 99.7972 91.1605 99.9672 91.2429 100.184C91.3614 99.9723 91.5263 99.8023 91.7375 99.6736C91.9538 99.5448 92.2036 99.4804 92.487 99.4804C92.8888 99.4804 93.1978 99.604 93.4142 99.8513C93.6357 100.093 93.7464 100.423 93.7464 100.84V103.668H93.1051V100.948C93.1051 100.645 93.0356 100.423 92.8965 100.284C92.7625 100.14 92.5694 100.068 92.317 100.068C92.1367 100.068 91.9744 100.114 91.8302 100.207C91.6911 100.299 91.5803 100.426 91.4979 100.585C91.4207 100.745 91.382 100.925 91.382 101.126V103.668H90.733V100.956C90.733 100.652 90.6634 100.428 90.5243 100.284C90.3853 100.14 90.1921 100.068 89.9448 100.068C89.7645 100.068 89.6023 100.117 89.458 100.214C89.319 100.307 89.2082 100.436 89.1258 100.601C89.0485 100.76 89.0099 100.941 89.0099 101.142V103.668H88.3608ZM96.4579 103.792C96.0767 103.792 95.7445 103.699 95.4611 103.514C95.183 103.323 94.9666 103.066 94.8121 102.741C94.6627 102.417 94.588 102.051 94.588 101.644C94.588 101.227 94.6653 100.856 94.8198 100.531C94.9795 100.202 95.1984 99.944 95.4766 99.7586C95.7599 99.5731 96.0844 99.4804 96.4502 99.4804C96.8417 99.4804 97.1714 99.5577 97.4392 99.7122C97.7122 99.8667 97.9209 100.088 98.0651 100.377C98.2093 100.66 98.2814 101 98.2814 101.397C98.2814 101.464 98.2789 101.531 98.2737 101.598C98.2737 101.659 98.2711 101.713 98.266 101.76H94.9821V101.219H97.6015C97.5963 101.044 97.568 100.887 97.5165 100.748C97.4701 100.603 97.398 100.482 97.3001 100.384C97.2074 100.281 97.0889 100.204 96.9447 100.153C96.8056 100.096 96.6408 100.068 96.4502 100.068C96.2081 100.068 95.9943 100.129 95.8089 100.253C95.6286 100.372 95.4869 100.547 95.3839 100.778C95.286 101.01 95.2371 101.299 95.2371 101.644C95.2371 101.974 95.2886 102.254 95.3916 102.486C95.4946 102.718 95.6389 102.896 95.8243 103.019C96.0149 103.138 96.2338 103.197 96.4811 103.197C96.8056 103.197 97.0503 103.13 97.2151 102.996C97.3851 102.857 97.5088 102.679 97.586 102.463L98.1578 102.617C98.0754 102.947 97.8925 103.225 97.6092 103.452C97.331 103.679 96.9473 103.792 96.4579 103.792ZM100.527 103.792C100.249 103.792 99.9884 103.746 99.7463 103.653C99.5042 103.555 99.3033 103.416 99.1436 103.236C98.9891 103.05 98.8964 102.826 98.8655 102.563L99.4913 102.455C99.5325 102.661 99.6407 102.839 99.8159 102.988C99.991 103.138 100.228 103.212 100.527 103.212C100.784 103.212 101.003 103.158 101.184 103.05C101.364 102.937 101.454 102.777 101.454 102.571C101.454 102.447 101.423 102.342 101.361 102.254C101.299 102.162 101.207 102.084 101.083 102.023C100.965 101.961 100.813 101.914 100.627 101.883L100.125 101.791C99.8983 101.75 99.6948 101.68 99.5145 101.582C99.3394 101.484 99.2003 101.358 99.0973 101.203C98.9994 101.044 98.9505 100.853 98.9505 100.632C98.9505 100.4 99.0174 100.199 99.1514 100.029C99.2904 99.8539 99.4733 99.7199 99.7 99.6272C99.9318 99.5293 100.184 99.4804 100.457 99.4804C100.704 99.4804 100.934 99.519 101.145 99.5963C101.361 99.6684 101.542 99.7869 101.686 99.9517C101.835 100.111 101.928 100.325 101.964 100.593L101.361 100.686C101.31 100.459 101.199 100.299 101.029 100.207C100.864 100.109 100.674 100.06 100.457 100.06C100.22 100.06 100.019 100.111 99.8545 100.214C99.6897 100.312 99.6072 100.449 99.6072 100.624C99.6072 100.779 99.6691 100.905 99.7927 101.003C99.9163 101.1 100.112 101.178 100.38 101.234L100.952 101.35C101.317 101.422 101.601 101.556 101.802 101.752C102.003 101.943 102.103 102.208 102.103 102.548C102.103 102.8 102.033 103.019 101.894 103.205C101.755 103.39 101.567 103.534 101.33 103.637C101.093 103.74 100.826 103.792 100.527 103.792ZM103.342 103.715C103.208 103.715 103.092 103.666 102.994 103.568C102.896 103.47 102.847 103.354 102.847 103.22C102.847 103.086 102.896 102.97 102.994 102.872C103.092 102.775 103.208 102.726 103.342 102.726C103.476 102.726 103.592 102.775 103.69 102.872C103.787 102.97 103.836 103.086 103.836 103.22C103.836 103.354 103.787 103.47 103.69 103.568C103.592 103.666 103.476 103.715 103.342 103.715Z" fill="var(--fill-0, #101010)" fill-opacity="0.6"/>
</g>
<defs>
<clipPath id="clip0_0_51">
<rect width="190.595" height="115.902" fill="white"/>
</clipPath>
</defs>
</svg>
