<svg preserveAspectRatio="none" width="100%" height="100%" overflow="visible" style="display: block;" viewBox="0 0 154.746 16.6797" fill="none" xmlns="http://www.w3.org/2000/svg">
<path id="Vector" d="M0.262713 5.99602V0.463611H1.20539L2.85893 4.97608H2.88984L4.5511 0.463611H5.48605V5.99602H4.84472V2.48031L4.87563 1.44492H4.84472L3.14482 5.99602H2.60394L0.90404 1.44492H0.873133L0.90404 2.48031V5.99602H0.262713ZM8.38979 6.11965C7.99315 6.11965 7.64802 6.0295 7.3544 5.84921C7.06593 5.66377 6.84185 5.40878 6.68216 5.08426C6.52248 4.75973 6.44263 4.38627 6.44263 3.96387C6.44263 3.53631 6.52248 3.16285 6.68216 2.84347C6.84185 2.51895 7.06593 2.26654 7.3544 2.08625C7.64802 1.9008 7.99315 1.80808 8.38979 1.80808C8.78644 1.80808 9.12899 1.9008 9.41746 2.08625C9.70593 2.26654 9.92744 2.51895 10.082 2.84347C10.2417 3.16285 10.3215 3.53631 10.3215 3.96387C10.3215 4.38627 10.2417 4.75973 10.082 5.08426C9.92744 5.40878 9.70593 5.66377 9.41746 5.84921C9.12899 6.0295 8.78644 6.11965 8.38979 6.11965ZM8.38979 5.52469C8.6422 5.52469 8.86371 5.46287 9.0543 5.33924C9.25005 5.21561 9.40201 5.03789 9.51018 4.80609C9.61836 4.57428 9.67245 4.29354 9.67245 3.96387C9.67245 3.63419 9.61836 3.35344 9.51018 3.12164C9.40201 2.88983 9.25005 2.71212 9.0543 2.58849C8.86371 2.46486 8.6422 2.40304 8.38979 2.40304C8.13738 2.40304 7.91331 2.46486 7.71756 2.58849C7.52181 2.71212 7.36728 2.88983 7.25395 3.12164C7.14577 3.35344 7.09169 3.63419 7.09169 3.96387C7.09169 4.29354 7.14577 4.57428 7.25395 4.80609C7.36728 5.03789 7.52181 5.21561 7.71756 5.33924C7.91331 5.46287 8.13738 5.52469 8.38979 5.52469ZM11.1945 5.99602V1.93171H11.8127V2.46486H11.8436C11.9414 2.27426 12.096 2.11715 12.3072 1.99352C12.5235 1.86989 12.7708 1.80808 13.0489 1.80808C13.5074 1.80808 13.8577 1.94201 14.0998 2.20987C14.3471 2.47774 14.4707 2.8409 14.4707 3.29936V5.99602H13.8216V3.38435C13.8216 3.02892 13.7315 2.77651 13.5512 2.62712C13.376 2.47774 13.1571 2.40304 12.8944 2.40304C12.6781 2.40304 12.49 2.45713 12.3304 2.56531C12.1758 2.66833 12.0548 2.80742 11.9672 2.98256C11.8848 3.15255 11.8436 3.34314 11.8436 3.55434V5.99602H11.1945ZM15.5559 5.99602V1.93171H16.205V5.99602H15.5559ZM15.8804 0.942674C15.7517 0.942674 15.6409 0.896313 15.5482 0.803591C15.4555 0.710869 15.4091 0.600116 15.4091 0.471336C15.4091 0.337404 15.4555 0.226653 15.5482 0.139083C15.6409 0.0463607 15.7517 0 15.8804 0C16.0144 0 16.1251 0.0463607 16.2127 0.139083C16.3054 0.226653 16.3518 0.337404 16.3518 0.471336C16.3518 0.600116 16.3054 0.710869 16.2127 0.803591C16.1251 0.896313 16.0144 0.942674 15.8804 0.942674ZM16.9818 2.52667V1.93171H17.6695V2.52667H16.9818ZM18.6972 6.05784C18.3778 6.05784 18.1203 5.96254 17.9245 5.77194C17.7288 5.5762 17.6309 5.30576 17.6309 4.96063V0.819044H18.2799V4.82927C18.2799 5.02502 18.3237 5.17698 18.4113 5.28515C18.4989 5.39333 18.6302 5.44742 18.8054 5.44742C18.8929 5.44742 18.9676 5.43711 19.0294 5.41651C19.0964 5.3959 19.1582 5.36757 19.2149 5.33151V5.96511C19.1479 5.99087 19.0758 6.01148 18.9985 6.02693C18.9213 6.04753 18.8208 6.05784 18.6972 6.05784ZM18.2413 2.52667V1.93171H19.2072V2.52667H18.2413ZM21.5948 6.11965C21.1982 6.11965 20.853 6.0295 20.5594 5.84921C20.271 5.66377 20.0469 5.40878 19.8872 5.08426C19.7275 4.75973 19.6477 4.38627 19.6477 3.96387C19.6477 3.53631 19.7275 3.16285 19.8872 2.84347C20.0469 2.51895 20.271 2.26654 20.5594 2.08625C20.853 1.9008 21.1982 1.80808 21.5948 1.80808C21.9915 1.80808 22.334 1.9008 22.6225 2.08625C22.911 2.26654 23.1325 2.51895 23.287 2.84347C23.4467 3.16285 23.5265 3.53631 23.5265 3.96387C23.5265 4.38627 23.4467 4.75973 23.287 5.08426C23.1325 5.40878 22.911 5.66377 22.6225 5.84921C22.334 6.0295 21.9915 6.11965 21.5948 6.11965ZM21.5948 5.52469C21.8472 5.52469 22.0687 5.46287 22.2593 5.33924C22.4551 5.21561 22.607 5.03789 22.7152 4.80609C22.8234 4.57428 22.8775 4.29354 22.8775 3.96387C22.8775 3.63419 22.8234 3.35344 22.7152 3.12164C22.607 2.88983 22.4551 2.71212 22.2593 2.58849C22.0687 2.46486 21.8472 2.40304 21.5948 2.40304C21.3424 2.40304 21.1183 2.46486 20.9226 2.58849C20.7268 2.71212 20.5723 2.88983 20.459 3.12164C20.3508 3.35344 20.2967 3.63419 20.2967 3.96387C20.2967 4.29354 20.3508 4.57428 20.459 4.80609C20.5723 5.03789 20.7268 5.21561 20.9226 5.33924C21.1183 5.46287 21.3424 5.52469 21.5948 5.52469ZM24.3995 5.99602V1.93171H25.0177V2.49577H25.0486C25.1001 2.36183 25.1799 2.24336 25.2881 2.14033C25.3963 2.03731 25.5199 1.95746 25.659 1.9008C25.8032 1.84414 25.9501 1.81581 26.0994 1.81581C26.1973 1.81581 26.2772 1.82096 26.339 1.83126C26.4008 1.84156 26.4549 1.85702 26.5012 1.87762V2.56531C26.4291 2.52925 26.3518 2.50349 26.2694 2.48804C26.187 2.47259 26.102 2.46486 26.0144 2.46486C25.8341 2.46486 25.6693 2.51637 25.5199 2.6194C25.3757 2.72242 25.2598 2.8615 25.1722 3.03664C25.0898 3.20663 25.0486 3.39465 25.0486 3.6007V5.99602H24.3995ZM26.6656 6.95415H26.0938L26.3875 5.98829C26.3978 5.95224 26.4132 5.9033 26.4338 5.84148C26.4544 5.77967 26.4828 5.68437 26.5188 5.55559C26.56 5.42681 26.5935 5.32121 26.6193 5.23879C26.645 5.15122 26.663 5.08941 26.6733 5.05335C26.694 5.05335 26.7403 5.05335 26.8124 5.05335C26.8845 5.05335 26.9644 5.05335 27.052 5.05335C27.1447 5.05335 27.2271 5.05335 27.2992 5.05335C27.3765 5.05335 27.4254 5.05335 27.446 5.05335C27.4203 5.12031 27.3791 5.22076 27.3224 5.3547C27.2657 5.48863 27.2117 5.62256 27.1601 5.75649C27.1086 5.88527 27.07 5.97799 27.0442 6.03466L26.6656 6.95415ZM30.5191 5.99602V1.93171H31.1373V2.44941H31.1682C31.2351 2.32578 31.3253 2.2176 31.4386 2.12488C31.5519 2.02701 31.6807 1.94974 31.825 1.89307C31.9743 1.83641 32.1315 1.80808 32.2963 1.80808C32.5693 1.80808 32.8011 1.87247 32.9917 2.00125C33.1823 2.12488 33.3188 2.29487 33.4012 2.51122C33.5197 2.30002 33.6845 2.13003 33.8957 2.00125C34.1121 1.87247 34.3619 1.80808 34.6452 1.80808C35.047 1.80808 35.3561 1.93171 35.5725 2.17897C35.794 2.42107 35.9047 2.75075 35.9047 3.168V5.99602H35.2634V3.27618C35.2634 2.97226 35.1939 2.75075 35.0548 2.61167C34.9208 2.46743 34.7277 2.39532 34.4753 2.39532C34.295 2.39532 34.1327 2.44168 33.9885 2.5344C33.8494 2.62712 33.7386 2.75333 33.6562 2.91302C33.5789 3.0727 33.5403 3.253 33.5403 3.45389V5.99602H32.8913V3.2839C32.8913 2.97998 32.8217 2.7559 32.6826 2.61167C32.5436 2.46743 32.3504 2.39532 32.1031 2.39532C31.9228 2.39532 31.7606 2.44426 31.6163 2.54213C31.4772 2.63485 31.3665 2.76363 31.2841 2.92847C31.2068 3.08816 31.1682 3.26845 31.1682 3.46935V5.99602H30.5191ZM38.2144 6.11965C37.9362 6.11965 37.6916 6.06814 37.4803 5.96511C37.2691 5.86209 37.1043 5.71785 36.9858 5.53241C36.8674 5.34182 36.8081 5.11774 36.8081 4.86018C36.8081 4.58716 36.8777 4.36051 37.0167 4.18022C37.161 3.99477 37.349 3.85569 37.5808 3.76297C37.8178 3.67025 38.0727 3.62389 38.3458 3.62389C38.5054 3.62389 38.6523 3.63161 38.7862 3.64707C38.9253 3.65737 39.0566 3.6754 39.1803 3.70115C39.309 3.72691 39.4327 3.76039 39.5511 3.8016V3.35345C39.5511 3.05983 39.4533 2.82802 39.2575 2.65803C39.0618 2.48289 38.8119 2.39532 38.508 2.39532C38.2402 2.39532 38.0187 2.45713 37.8435 2.58076C37.6684 2.69924 37.5473 2.87696 37.4803 3.11391L36.8931 2.9671C36.9395 2.725 37.0373 2.51895 37.1867 2.34896C37.3361 2.17381 37.5241 2.03988 37.7508 1.94716C37.9826 1.85444 38.235 1.80808 38.508 1.80808C39.0386 1.80808 39.4481 1.94201 39.7366 2.20987C40.0302 2.47774 40.177 2.85378 40.177 3.33799V5.99602H39.5511V5.46287H39.5202C39.4481 5.5659 39.3528 5.66892 39.2343 5.77194C39.1159 5.87497 38.9716 5.95739 38.8016 6.0192C38.6368 6.08617 38.4411 6.11965 38.2144 6.11965ZM38.3303 5.54787C38.5673 5.54787 38.7759 5.49635 38.9562 5.39333C39.1416 5.2903 39.2859 5.14865 39.3889 4.96835C39.4971 4.78291 39.5511 4.57686 39.5511 4.35021C39.3605 4.27809 39.1777 4.22658 39.0025 4.19567C38.8274 4.16476 38.6471 4.14931 38.4617 4.14931C38.168 4.14931 37.9285 4.20597 37.7431 4.3193C37.5628 4.42747 37.4726 4.60777 37.4726 4.86018C37.4726 5.06623 37.5525 5.23364 37.7122 5.36242C37.877 5.48605 38.083 5.54787 38.3303 5.54787ZM41.2416 5.99602V1.93171H41.8597V2.46486H41.8906C41.9885 2.27426 42.143 2.11715 42.3542 1.99352C42.5706 1.86989 42.8179 1.80808 43.096 1.80808C43.5545 1.80808 43.9048 1.94201 44.1469 2.20987C44.3941 2.47774 44.5178 2.8409 44.5178 3.29936V5.99602H43.8687V3.38435C43.8687 3.02892 43.7786 2.77651 43.5983 2.62712C43.4231 2.47774 43.2042 2.40304 42.9415 2.40304C42.7251 2.40304 42.5371 2.45713 42.3774 2.56531C42.2229 2.66833 42.1018 2.80742 42.0143 2.98256C41.9318 3.15255 41.8906 3.34314 41.8906 3.55434V5.99602H41.2416ZM46.8316 6.11965C46.5535 6.11965 46.3088 6.06814 46.0976 5.96511C45.8864 5.86209 45.7215 5.71785 45.6031 5.53241C45.4846 5.34182 45.4253 5.11774 45.4253 4.86018C45.4253 4.58716 45.4949 4.36051 45.634 4.18022C45.7782 3.99477 45.9662 3.85569 46.198 3.76297C46.435 3.67025 46.69 3.62389 46.963 3.62389C47.1227 3.62389 47.2695 3.63161 47.4034 3.64707C47.5425 3.65737 47.6738 3.6754 47.7975 3.70115C47.9263 3.72691 48.0499 3.76039 48.1684 3.8016V3.35345C48.1684 3.05983 48.0705 2.82802 47.8747 2.65803C47.679 2.48289 47.4292 2.39532 47.1252 2.39532C46.8574 2.39532 46.6359 2.45713 46.4607 2.58076C46.2856 2.69924 46.1645 2.87696 46.0976 3.11391L45.5103 2.9671C45.5567 2.725 45.6546 2.51895 45.804 2.34896C45.9533 2.17381 46.1414 2.03988 46.368 1.94716C46.5998 1.85444 46.8522 1.80808 47.1252 1.80808C47.6558 1.80808 48.0653 1.94201 48.3538 2.20987C48.6474 2.47774 48.7942 2.85378 48.7942 3.33799V5.99602H48.1684V5.46287H48.1375C48.0653 5.5659 47.97 5.66892 47.8516 5.77194C47.7331 5.87497 47.5889 5.95739 47.4189 6.0192C47.254 6.08617 47.0583 6.11965 46.8316 6.11965ZM46.9475 5.54787C47.1845 5.54787 47.3931 5.49635 47.5734 5.39333C47.7588 5.2903 47.9031 5.14865 48.0061 4.96835C48.1143 4.78291 48.1684 4.57686 48.1684 4.35021C47.9778 4.27809 47.7949 4.22658 47.6198 4.19567C47.4446 4.16476 47.2643 4.14931 47.0789 4.14931C46.7853 4.14931 46.5457 4.20597 46.3603 4.3193C46.18 4.42747 46.0898 4.60777 46.0898 4.86018C46.0898 5.06623 46.1697 5.23364 46.3294 5.36242C46.4942 5.48605 46.7003 5.54787 46.9475 5.54787ZM51.4892 7.78865C51.1802 7.78865 50.9071 7.73198 50.6702 7.61866C50.4332 7.51048 50.2401 7.36625 50.0907 7.18595C49.9413 7.00566 49.8434 6.80734 49.7971 6.59099L50.4075 6.43645C50.4744 6.64765 50.5981 6.82537 50.7784 6.9696C50.9587 7.11899 51.1956 7.19368 51.4892 7.19368C51.891 7.19368 52.1898 7.07263 52.3855 6.83052C52.5864 6.59356 52.6869 6.26646 52.6869 5.84921V5.23879H52.656C52.5324 5.4603 52.3624 5.63801 52.146 5.77194C51.9297 5.90072 51.6592 5.96511 51.3347 5.96511C51.0256 5.96511 50.7397 5.88527 50.477 5.72558C50.2195 5.5659 50.0108 5.33151 49.8511 5.02244C49.6966 4.71337 49.6193 4.33475 49.6193 3.8866C49.6193 3.43329 49.6966 3.05467 49.8511 2.75075C50.0108 2.44168 50.2246 2.2073 50.4925 2.04761C50.7603 1.88792 51.0565 1.80808 51.3811 1.80808C51.6747 1.80808 51.9322 1.87247 52.1537 2.00125C52.3752 2.12488 52.5427 2.28457 52.656 2.48031H52.6869V1.93171H53.305V5.85694C53.305 6.29479 53.2252 6.65538 53.0655 6.9387C52.911 7.22716 52.6972 7.44094 52.4242 7.58002C52.1512 7.7191 51.8395 7.78865 51.4892 7.78865ZM51.4815 5.37015C51.703 5.37015 51.9039 5.31606 52.0842 5.20789C52.2645 5.09971 52.4087 4.93745 52.5169 4.72109C52.6302 4.49959 52.6869 4.22143 52.6869 3.8866C52.6869 3.55177 52.6302 3.27618 52.5169 3.05982C52.4087 2.83832 52.2645 2.67348 52.0842 2.56531C51.9039 2.45713 51.703 2.40304 51.4815 2.40304C51.2651 2.40304 51.0643 2.45713 50.8788 2.56531C50.6934 2.67348 50.544 2.83832 50.4307 3.05982C50.3173 3.27618 50.2607 3.55177 50.2607 3.8866C50.2607 4.22143 50.3173 4.49959 50.4307 4.72109C50.544 4.93745 50.6934 5.09971 50.8788 5.20789C51.0643 5.31606 51.2651 5.37015 51.4815 5.37015ZM56.0466 6.11965C55.6654 6.11965 55.3331 6.02693 55.0498 5.84148C54.7717 5.65089 54.5553 5.39333 54.4008 5.0688C54.2514 4.74428 54.1767 4.37854 54.1767 3.97159C54.1767 3.55434 54.254 3.18345 54.4085 2.85893C54.5682 2.52925 54.7871 2.27169 55.0653 2.08625C55.3486 1.9008 55.6731 1.80808 56.0388 1.80808C56.4303 1.80808 56.76 1.88535 57.0279 2.03988C57.3009 2.19442 57.5095 2.41592 57.6538 2.70439C57.798 2.98771 57.8701 3.32769 57.8701 3.72433C57.8701 3.7913 57.8675 3.85827 57.8624 3.92523C57.8624 3.98705 57.8598 4.04113 57.8547 4.08749H54.5708V3.54662H57.1901C57.185 3.37147 57.1567 3.21436 57.1052 3.07528C57.0588 2.93105 56.9867 2.80999 56.8888 2.71212C56.7961 2.60909 56.6776 2.53183 56.5334 2.48031C56.3943 2.42365 56.2294 2.39532 56.0388 2.39532C55.7967 2.39532 55.583 2.45713 55.3975 2.58076C55.2172 2.69924 55.0756 2.87438 54.9725 3.10619C54.8747 3.33799 54.8257 3.62646 54.8257 3.97159C54.8257 4.30127 54.8772 4.58201 54.9803 4.81382C55.0833 5.04562 55.2275 5.22334 55.413 5.34697C55.6036 5.46545 55.8225 5.52469 56.0698 5.52469C56.3943 5.52469 56.639 5.45772 56.8038 5.32379C56.9738 5.18471 57.0974 5.00699 57.1747 4.79063L57.7465 4.94517C57.6641 5.27485 57.4812 5.55302 57.1979 5.77967C56.9197 6.00633 56.5359 6.11965 56.0466 6.11965ZM58.8405 6.95415H58.2687L58.5623 5.98829C58.5726 5.95224 58.5881 5.9033 58.6087 5.84148C58.6293 5.77967 58.6576 5.68437 58.6937 5.55559C58.7349 5.42681 58.7684 5.32121 58.7941 5.23879C58.8199 5.15122 58.8379 5.08941 58.8482 5.05335C58.8688 5.05335 58.9152 5.05335 58.9873 5.05335C59.0594 5.05335 59.1392 5.05335 59.2268 5.05335C59.3195 5.05335 59.402 5.05335 59.4741 5.05335C59.5513 5.05335 59.6003 5.05335 59.6209 5.05335C59.5951 5.12031 59.5539 5.22076 59.4973 5.3547C59.4406 5.48863 59.3865 5.62256 59.335 5.75649C59.2835 5.88527 59.2448 5.97799 59.2191 6.03466L58.8405 6.95415ZM63.9228 6.11965C63.6446 6.11965 63.3999 6.06814 63.1887 5.96511C62.9775 5.86209 62.8127 5.71785 62.6942 5.53241C62.5758 5.34182 62.5165 5.11774 62.5165 4.86018C62.5165 4.58716 62.5861 4.36051 62.7251 4.18022C62.8694 3.99477 63.0574 3.85569 63.2892 3.76297C63.5261 3.67025 63.7811 3.62389 64.0542 3.62389C64.2138 3.62389 64.3606 3.63161 64.4946 3.64707C64.6337 3.65737 64.765 3.6754 64.8886 3.70115C65.0174 3.72691 65.1411 3.76039 65.2595 3.8016V3.35345C65.2595 3.05983 65.1617 2.82802 64.9659 2.65803C64.7702 2.48289 64.5203 2.39532 64.2164 2.39532C63.9486 2.39532 63.727 2.45713 63.5519 2.58076C63.3768 2.69924 63.2557 2.87696 63.1887 3.11391L62.6015 2.9671C62.6479 2.725 62.7457 2.51895 62.8951 2.34896C63.0445 2.17381 63.2325 2.03988 63.4592 1.94716C63.691 1.85444 63.9434 1.80808 64.2164 1.80808C64.747 1.80808 65.1565 1.94201 65.445 2.20987C65.7386 2.47774 65.8854 2.85378 65.8854 3.33799V5.99602H65.2595V5.46287H65.2286C65.1565 5.5659 65.0612 5.66892 64.9427 5.77194C64.8243 5.87497 64.68 5.95739 64.51 6.0192C64.3452 6.08617 64.1494 6.11965 63.9228 6.11965ZM64.0387 5.54787C64.2757 5.54787 64.4843 5.49635 64.6646 5.39333C64.85 5.2903 64.9942 5.14865 65.0973 4.96835C65.2054 4.78291 65.2595 4.57686 65.2595 4.35021C65.0689 4.27809 64.8861 4.22658 64.7109 4.19567C64.5358 4.16476 64.3555 4.14931 64.1701 4.14931C63.8764 4.14931 63.6369 4.20597 63.4515 4.3193C63.2712 4.42747 63.181 4.60777 63.181 4.86018C63.181 5.06623 63.2609 5.23364 63.4206 5.36242C63.5854 5.48605 63.7914 5.54787 64.0387 5.54787ZM66.9498 5.99602V1.93171H67.5679V2.46486H67.5988C67.6967 2.27426 67.8512 2.11715 68.0624 1.99352C68.2788 1.86989 68.5261 1.80808 68.8042 1.80808C69.2627 1.80808 69.613 1.94201 69.8551 2.20987C70.1023 2.47774 70.226 2.8409 70.226 3.29936V5.99602H69.5769V3.38435C69.5769 3.02892 69.4868 2.77651 69.3065 2.62712C69.1313 2.47774 68.9124 2.40304 68.6497 2.40304C68.4333 2.40304 68.2453 2.45713 68.0856 2.56531C67.9311 2.66833 67.81 2.80742 67.7225 2.98256C67.64 3.15255 67.5988 3.34314 67.5988 3.55434V5.99602H66.9498ZM72.8879 6.11965C72.5221 6.11965 72.2027 6.0295 71.9297 5.84921C71.6567 5.66377 71.4455 5.40878 71.2961 5.08426C71.1467 4.75973 71.072 4.38627 71.072 3.96387C71.072 3.53631 71.1467 3.16285 71.2961 2.84347C71.4455 2.51895 71.6541 2.26654 71.922 2.08625C72.195 1.9008 72.5144 1.80808 72.8801 1.80808C73.0862 1.80808 73.2742 1.84156 73.4442 1.90853C73.6142 1.97034 73.761 2.05276 73.8846 2.15579C74.0082 2.25881 74.1035 2.36956 74.1705 2.48804H74.2014L74.1705 1.93171V0H74.8196V5.99602H74.2014V5.42424H74.1705C74.1035 5.54271 74.0082 5.65604 73.8846 5.76422C73.761 5.87239 73.6142 5.95739 73.4442 6.0192C73.2793 6.08617 73.0939 6.11965 72.8879 6.11965ZM72.9574 5.52469C73.2047 5.52469 73.421 5.46545 73.6064 5.34697C73.7919 5.22849 73.9361 5.05335 74.0391 4.82154C74.1473 4.58459 74.2014 4.2987 74.2014 3.96387C74.2014 3.62389 74.1473 3.33799 74.0391 3.10619C73.9361 2.87438 73.7919 2.69924 73.6064 2.58076C73.421 2.46228 73.2047 2.40304 72.9574 2.40304C72.7153 2.40304 72.4989 2.46228 72.3083 2.58076C72.1229 2.69924 71.9787 2.87438 71.8756 3.10619C71.7726 3.33799 71.7211 3.62389 71.7211 3.96387C71.7211 4.2987 71.7726 4.58459 71.8756 4.82154C71.9787 5.05335 72.1229 5.22849 72.3083 5.34697C72.4989 5.46545 72.7153 5.52469 72.9574 5.52469ZM77.9064 7.66502V1.93171H78.5246V2.52667H78.5555C78.6276 2.39789 78.7255 2.27942 78.8491 2.17124C78.9779 2.06307 79.1273 1.97549 79.2973 1.90853C79.4724 1.84156 79.6553 1.80808 79.8459 1.80808C80.2116 1.80808 80.531 1.89823 80.804 2.07852C81.077 2.25881 81.2882 2.51122 81.4376 2.83575C81.587 3.16027 81.6617 3.53631 81.6617 3.96387C81.6617 4.39142 81.5844 4.76746 81.4299 5.09198C81.2805 5.41651 81.0693 5.66892 80.7963 5.84921C80.5284 6.0295 80.2116 6.11965 79.8459 6.11965C79.5316 6.11965 79.2638 6.05526 79.0423 5.92648C78.8208 5.79255 78.6585 5.63801 78.5555 5.46287H78.5246L78.5555 5.99602V7.66502H77.9064ZM79.7763 5.52469C80.0184 5.52469 80.2322 5.46545 80.4177 5.34697C80.6031 5.22849 80.7473 5.05335 80.8504 4.82154C80.9585 4.58459 81.0126 4.2987 81.0126 3.96387C81.0126 3.62389 80.9585 3.33799 80.8504 3.10619C80.7473 2.87438 80.6031 2.69924 80.4177 2.58076C80.2322 2.46228 80.0184 2.40304 79.7763 2.40304C79.5342 2.40304 79.3179 2.46228 79.1273 2.58076C78.9418 2.69924 78.795 2.87438 78.6868 3.10619C78.5787 3.33799 78.5246 3.62389 78.5246 3.96387C78.5246 4.2987 78.5787 4.58459 78.6868 4.82154C78.795 5.05335 78.9418 5.22849 79.1273 5.34697C79.3179 5.46545 79.5342 5.52469 79.7763 5.52469ZM82.5316 5.99602V1.93171H83.1497V2.49577H83.1806C83.2321 2.36183 83.312 2.24336 83.4202 2.14033C83.5283 2.03731 83.652 1.95746 83.7911 1.9008C83.9353 1.84414 84.0821 1.81581 84.2315 1.81581C84.3294 1.81581 84.4092 1.82096 84.471 1.83126C84.5328 1.84156 84.5869 1.85702 84.6333 1.87762V2.56531C84.5612 2.52925 84.4839 2.50349 84.4015 2.48804C84.3191 2.47259 84.2341 2.46486 84.1465 2.46486C83.9662 2.46486 83.8014 2.51637 83.652 2.6194C83.5077 2.72242 83.3918 2.8615 83.3043 3.03664C83.2218 3.20663 83.1806 3.39465 83.1806 3.6007V5.99602H82.5316ZM86.8708 6.11965C86.4897 6.11965 86.1574 6.02693 85.8741 5.84148C85.5959 5.65089 85.3796 5.39333 85.225 5.0688C85.0756 4.74428 85.0009 4.37854 85.0009 3.97159C85.0009 3.55434 85.0782 3.18345 85.2328 2.85893C85.3924 2.52925 85.6114 2.27169 85.8895 2.08625C86.1729 1.9008 86.4974 1.80808 86.8631 1.80808C87.2546 1.80808 87.5843 1.88535 87.8521 2.03988C88.1252 2.19442 88.3338 2.41592 88.478 2.70439C88.6223 2.98771 88.6944 3.32769 88.6944 3.72433C88.6944 3.7913 88.6918 3.85827 88.6866 3.92523C88.6866 3.98705 88.6841 4.04113 88.6789 4.08749H85.395V3.54662H88.0144C88.0093 3.37147 87.9809 3.21436 87.9294 3.07528C87.8831 2.93105 87.8109 2.80999 87.7131 2.71212C87.6203 2.60909 87.5019 2.53183 87.3576 2.48031C87.2186 2.42365 87.0537 2.39532 86.8631 2.39532C86.621 2.39532 86.4072 2.45713 86.2218 2.58076C86.0415 2.69924 85.8998 2.87438 85.7968 3.10619C85.6989 3.33799 85.65 3.62646 85.65 3.97159C85.65 4.30127 85.7015 4.58201 85.8045 4.81382C85.9076 5.04562 86.0518 5.22334 86.2372 5.34697C86.4278 5.46545 86.6468 5.52469 86.894 5.52469C87.2186 5.52469 87.4632 5.45772 87.6281 5.32379C87.7981 5.18471 87.9217 5.00699 87.999 4.79063L88.5707 4.94517C88.4883 5.27485 88.3055 5.55302 88.0221 5.77967C87.744 6.00633 87.3602 6.11965 86.8708 6.11965ZM91.1406 6.11965C90.7748 6.11965 90.4554 6.0295 90.1824 5.84921C89.9094 5.66377 89.6982 5.40878 89.5488 5.08426C89.3994 4.75973 89.3248 4.38627 89.3248 3.96387C89.3248 3.53631 89.3994 3.16285 89.5488 2.84347C89.6982 2.51895 89.9068 2.26654 90.1747 2.08625C90.4477 1.9008 90.7671 1.80808 91.1328 1.80808C91.3389 1.80808 91.5269 1.84156 91.6969 1.90853C91.8669 1.97034 92.0137 2.05276 92.1373 2.15579C92.2609 2.25881 92.3562 2.36956 92.4232 2.48804H92.4541L92.4232 1.93171V0H93.0723V5.99602H92.4541V5.42424H92.4232C92.3562 5.54271 92.2609 5.65604 92.1373 5.76422C92.0137 5.87239 91.8669 5.95739 91.6969 6.0192C91.5321 6.08617 91.3466 6.11965 91.1406 6.11965ZM91.2101 5.52469C91.4574 5.52469 91.6737 5.46545 91.8592 5.34697C92.0446 5.22849 92.1888 5.05335 92.2919 4.82154C92.4 4.58459 92.4541 4.2987 92.4541 3.96387C92.4541 3.62389 92.4 3.33799 92.2919 3.10619C92.1888 2.87438 92.0446 2.69924 91.8592 2.58076C91.6737 2.46228 91.4574 2.40304 91.2101 2.40304C90.968 2.40304 90.7516 2.46228 90.561 2.58076C90.3756 2.69924 90.2314 2.87438 90.1283 3.10619C90.0253 3.33799 89.9738 3.62389 89.9738 3.96387C89.9738 4.2987 90.0253 4.58459 90.1283 4.82154C90.2314 5.05335 90.3756 5.22849 90.561 5.34697C90.7516 5.46545 90.968 5.52469 91.2101 5.52469ZM94.1824 5.99602V1.93171H94.8314V5.99602H94.1824ZM94.5069 0.942674C94.3781 0.942674 94.2673 0.896313 94.1746 0.803591C94.0819 0.710869 94.0355 0.600116 94.0355 0.471336C94.0355 0.337404 94.0819 0.226653 94.1746 0.139083C94.2673 0.0463607 94.3781 0 94.5069 0C94.6408 0 94.7516 0.0463607 94.8391 0.139083C94.9319 0.226653 94.9782 0.337404 94.9782 0.471336C94.9782 0.600116 94.9319 0.710869 94.8391 0.803591C94.7516 0.896313 94.6408 0.942674 94.5069 0.942674ZM97.5944 6.11965C97.2132 6.11965 96.8809 6.03208 96.5976 5.85694C96.3143 5.67665 96.0928 5.42424 95.9331 5.09971C95.7786 4.77518 95.7013 4.39657 95.7013 3.96387C95.7013 3.52601 95.7837 3.1474 95.9486 2.82802C96.1134 2.50349 96.3401 2.25366 96.6285 2.07852C96.917 1.89823 97.2467 1.80808 97.6176 1.80808C98.1069 1.80808 98.4984 1.93428 98.7921 2.18669C99.0857 2.43395 99.2608 2.75333 99.3175 3.14482L98.6916 3.253C98.6401 3.00574 98.5216 2.80226 98.3362 2.64258C98.1559 2.48289 97.9138 2.40304 97.6099 2.40304C97.3626 2.40304 97.1437 2.46486 96.9531 2.58849C96.7676 2.70697 96.6208 2.88211 96.5126 3.11391C96.4045 3.34572 96.3504 3.62904 96.3504 3.96387C96.3504 4.29354 96.4045 4.57686 96.5126 4.81382C96.6208 5.04562 96.7676 5.22334 96.9531 5.34697C97.1437 5.46545 97.3626 5.52469 97.6099 5.52469C97.8983 5.52469 98.1301 5.45514 98.3053 5.31606C98.4804 5.17183 98.6092 4.96063 98.6916 4.68246L99.2866 4.82927C99.1939 5.21561 99.0033 5.52726 98.7148 5.76422C98.4315 6.00117 98.058 6.11965 97.5944 6.11965ZM99.7811 2.52667V1.93171H100.469V2.52667H99.7811ZM101.496 6.05784C101.177 6.05784 100.92 5.96254 100.724 5.77194C100.528 5.5762 100.43 5.30576 100.43 4.96063V0.819044H101.079V4.82927C101.079 5.02502 101.123 5.17698 101.211 5.28515C101.298 5.39333 101.429 5.44742 101.605 5.44742C101.692 5.44742 101.767 5.43711 101.829 5.41651C101.896 5.3959 101.957 5.36757 102.014 5.33151V5.96511C101.947 5.99087 101.875 6.01148 101.798 6.02693C101.721 6.04753 101.62 6.05784 101.496 6.05784ZM101.041 2.52667V1.93171H102.006V2.52667H101.041ZM106.088 6.11965C105.81 6.11965 105.565 6.06814 105.354 5.96511C105.143 5.86209 104.978 5.71785 104.86 5.53241C104.741 5.34182 104.682 5.11774 104.682 4.86018C104.682 4.58716 104.751 4.36051 104.89 4.18022C105.035 3.99477 105.223 3.85569 105.455 3.76297C105.691 3.67025 105.946 3.62389 106.219 3.62389C106.379 3.62389 106.526 3.63161 106.66 3.64707C106.799 3.65737 106.93 3.6754 107.054 3.70115C107.183 3.72691 107.306 3.76039 107.425 3.8016V3.35345C107.425 3.05983 107.327 2.82802 107.131 2.65803C106.935 2.48289 106.686 2.39532 106.382 2.39532C106.114 2.39532 105.892 2.45713 105.717 2.58076C105.542 2.69924 105.421 2.87696 105.354 3.11391L104.767 2.9671C104.813 2.725 104.911 2.51895 105.06 2.34896C105.21 2.17381 105.398 2.03988 105.625 1.94716C105.856 1.85444 106.109 1.80808 106.382 1.80808C106.912 1.80808 107.322 1.94201 107.61 2.20987C107.904 2.47774 108.051 2.85378 108.051 3.33799V5.99602H107.425V5.46287H107.394C107.322 5.5659 107.227 5.66892 107.108 5.77194C106.99 5.87497 106.845 5.95739 106.675 6.0192C106.511 6.08617 106.315 6.11965 106.088 6.11965ZM106.204 5.54787C106.441 5.54787 106.65 5.49635 106.83 5.39333C107.015 5.2903 107.16 5.14865 107.263 4.96835C107.371 4.78291 107.425 4.57686 107.425 4.35021C107.234 4.27809 107.051 4.22658 106.876 4.19567C106.701 4.16476 106.521 4.14931 106.335 4.14931C106.042 4.14931 105.802 4.20597 105.617 4.3193C105.436 4.42747 105.346 4.60777 105.346 4.86018C105.346 5.06623 105.426 5.23364 105.586 5.36242C105.751 5.48605 105.957 5.54787 106.204 5.54787ZM110.507 6.11965C110.053 6.11965 109.703 5.98572 109.456 5.71786C109.208 5.44999 109.085 5.08683 109.085 4.62837V1.93171H109.734V4.54338C109.734 4.89881 109.821 5.15122 109.997 5.30061C110.177 5.44999 110.398 5.52469 110.661 5.52469C110.883 5.52469 111.071 5.47317 111.225 5.37015C111.38 5.26197 111.498 5.12031 111.581 4.94517C111.668 4.77003 111.712 4.57944 111.712 4.37339V1.93171H112.361V5.99602H111.743V5.46287H111.712C111.65 5.5865 111.56 5.69983 111.442 5.80285C111.323 5.90072 111.184 5.97799 111.024 6.03466C110.865 6.09132 110.692 6.11965 110.507 6.11965ZM115.053 6.11965C114.687 6.11965 114.368 6.0295 114.095 5.84921C113.822 5.66377 113.611 5.40878 113.461 5.08426C113.312 4.75973 113.237 4.38627 113.237 3.96387C113.237 3.53631 113.312 3.16285 113.461 2.84347C113.611 2.51895 113.819 2.26654 114.087 2.08625C114.36 1.9008 114.68 1.80808 115.045 1.80808C115.251 1.80808 115.44 1.84156 115.61 1.90853C115.779 1.97034 115.926 2.05276 116.05 2.15579C116.174 2.25881 116.269 2.36956 116.336 2.48804H116.367L116.336 1.93171V0H116.985V5.99602H116.367V5.42424H116.336C116.269 5.54271 116.174 5.65604 116.05 5.76422C115.926 5.87239 115.779 5.95739 115.61 6.0192C115.445 6.08617 115.259 6.11965 115.053 6.11965ZM115.123 5.52469C115.37 5.52469 115.586 5.46545 115.772 5.34697C115.957 5.22849 116.101 5.05335 116.204 4.82154C116.313 4.58459 116.367 4.2987 116.367 3.96387C116.367 3.62389 116.313 3.33799 116.204 3.10619C116.101 2.87438 115.957 2.69924 115.772 2.58076C115.586 2.46228 115.37 2.40304 115.123 2.40304C114.881 2.40304 114.664 2.46228 114.474 2.58076C114.288 2.69924 114.144 2.87438 114.041 3.10619C113.938 3.33799 113.886 3.62389 113.886 3.96387C113.886 4.2987 113.938 4.58459 114.041 4.82154C114.144 5.05335 114.288 5.22849 114.474 5.34697C114.664 5.46545 114.881 5.52469 115.123 5.52469ZM118.095 5.99602V1.93171H118.744V5.99602H118.095ZM118.419 0.942674C118.291 0.942674 118.18 0.896313 118.087 0.803591C117.995 0.710869 117.948 0.600116 117.948 0.471336C117.948 0.337404 117.995 0.226653 118.087 0.139083C118.18 0.0463607 118.291 0 118.419 0C118.553 0 118.664 0.0463607 118.752 0.139083C118.844 0.226653 118.891 0.337404 118.891 0.471336C118.891 0.600116 118.844 0.710869 118.752 0.803591C118.664 0.896313 118.553 0.942674 118.419 0.942674ZM119.521 2.52667V1.93171H120.208V2.52667H119.521ZM121.236 6.05784C120.917 6.05784 120.659 5.96254 120.463 5.77194C120.267 5.5762 120.17 5.30576 120.17 4.96063V0.819044H120.819V4.82927C120.819 5.02502 120.862 5.17698 120.95 5.28515C121.038 5.39333 121.169 5.44742 121.344 5.44742C121.432 5.44742 121.506 5.43711 121.568 5.41651C121.635 5.3959 121.697 5.36757 121.754 5.33151V5.96511C121.687 5.99087 121.615 6.01148 121.537 6.02693C121.46 6.04753 121.36 6.05784 121.236 6.05784ZM120.78 2.52667V1.93171H121.746V2.52667H120.78ZM124.599 7.66502V1.93171H125.217V2.52667H125.248C125.32 2.39789 125.418 2.27942 125.542 2.17124C125.67 2.06307 125.82 1.97549 125.99 1.90853C126.165 1.84156 126.348 1.80808 126.538 1.80808C126.904 1.80808 127.224 1.89823 127.497 2.07852C127.77 2.25881 127.981 2.51122 128.13 2.83575C128.28 3.16027 128.354 3.53631 128.354 3.96387C128.354 4.39142 128.277 4.76746 128.122 5.09198C127.973 5.41651 127.762 5.66892 127.489 5.84921C127.221 6.0295 126.904 6.11965 126.538 6.11965C126.224 6.11965 125.956 6.05526 125.735 5.92648C125.513 5.79255 125.351 5.63801 125.248 5.46287H125.217L125.248 5.99602V7.66502H124.599ZM126.469 5.52469C126.711 5.52469 126.925 5.46545 127.11 5.34697C127.296 5.22849 127.44 5.05335 127.543 4.82154C127.651 4.58459 127.705 4.2987 127.705 3.96387C127.705 3.62389 127.651 3.33799 127.543 3.10619C127.44 2.87438 127.296 2.69924 127.11 2.58076C126.925 2.46228 126.711 2.40304 126.469 2.40304C126.227 2.40304 126.01 2.46228 125.82 2.58076C125.634 2.69924 125.488 2.87438 125.379 3.10619C125.271 3.33799 125.217 3.62389 125.217 3.96387C125.217 4.2987 125.271 4.58459 125.379 4.82154C125.488 5.05335 125.634 5.22849 125.82 5.34697C126.01 5.46545 126.227 5.52469 126.469 5.52469ZM129.225 5.99602V1.93171H129.843V2.49577H129.874C129.925 2.36183 130.005 2.24336 130.113 2.14033C130.222 2.03731 130.345 1.95746 130.484 1.9008C130.629 1.84414 130.775 1.81581 130.925 1.81581C131.023 1.81581 131.102 1.82096 131.164 1.83126C131.226 1.84156 131.28 1.85702 131.327 1.87762V2.56531C131.254 2.52925 131.177 2.50349 131.095 2.48804C131.012 2.47259 130.927 2.46486 130.84 2.46486C130.659 2.46486 130.495 2.51637 130.345 2.6194C130.201 2.72242 130.085 2.8615 129.998 3.03664C129.915 3.20663 129.874 3.39465 129.874 3.6007V5.99602H129.225ZM133.641 6.11965C133.245 6.11965 132.9 6.0295 132.606 5.84921C132.317 5.66377 132.093 5.40878 131.934 5.08426C131.774 4.75973 131.694 4.38627 131.694 3.96387C131.694 3.53631 131.774 3.16285 131.934 2.84347C132.093 2.51895 132.317 2.26654 132.606 2.08625C132.9 1.9008 133.245 1.80808 133.641 1.80808C134.038 1.80808 134.381 1.9008 134.669 2.08625C134.957 2.26654 135.179 2.51895 135.334 2.84347C135.493 3.16285 135.573 3.53631 135.573 3.96387C135.573 4.38627 135.493 4.75973 135.334 5.08426C135.179 5.40878 134.957 5.66377 134.669 5.84921C134.381 6.0295 134.038 6.11965 133.641 6.11965ZM133.641 5.52469C133.894 5.52469 134.115 5.46287 134.306 5.33924C134.502 5.21561 134.654 5.03789 134.762 4.80609C134.87 4.57428 134.924 4.29354 134.924 3.96387C134.924 3.63419 134.87 3.35344 134.762 3.12164C134.654 2.88983 134.502 2.71212 134.306 2.58849C134.115 2.46486 133.894 2.40304 133.641 2.40304C133.389 2.40304 133.165 2.46486 132.969 2.58849C132.773 2.71212 132.619 2.88983 132.506 3.12164C132.397 3.35344 132.343 3.63419 132.343 3.96387C132.343 4.29354 132.397 4.57428 132.506 4.80609C132.619 5.03789 132.773 5.21561 132.969 5.33924C133.165 5.46287 133.389 5.52469 133.641 5.52469ZM138.077 7.78865C137.767 7.78865 137.494 7.73198 137.258 7.61866C137.021 7.51048 136.827 7.36625 136.678 7.18595C136.529 7.00566 136.431 6.80734 136.384 6.59099L136.995 6.43645C137.062 6.64765 137.185 6.82537 137.366 6.9696C137.546 7.11899 137.783 7.19368 138.077 7.19368C138.478 7.19368 138.777 7.07263 138.973 6.83052C139.174 6.59356 139.274 6.26646 139.274 5.84921V5.23879H139.243C139.12 5.4603 138.95 5.63801 138.733 5.77194C138.517 5.90072 138.247 5.96511 137.922 5.96511C137.613 5.96511 137.327 5.88527 137.064 5.72558C136.807 5.5659 136.598 5.33151 136.438 5.02244C136.284 4.71337 136.207 4.33475 136.207 3.8866C136.207 3.43329 136.284 3.05467 136.438 2.75075C136.598 2.44168 136.812 2.2073 137.08 2.04761C137.348 1.88792 137.644 1.80808 137.968 1.80808C138.262 1.80808 138.52 1.87247 138.741 2.00125C138.963 2.12488 139.13 2.28457 139.243 2.48031H139.274V1.93171H139.892V5.85694C139.892 6.29479 139.813 6.65538 139.653 6.9387C139.498 7.22716 139.285 7.44094 139.012 7.58002C138.738 7.7191 138.427 7.78865 138.077 7.78865ZM138.069 5.37015C138.29 5.37015 138.491 5.31606 138.672 5.20789C138.852 5.09971 138.996 4.93745 139.104 4.72109C139.218 4.49959 139.274 4.22143 139.274 3.8866C139.274 3.55177 139.218 3.27618 139.104 3.05982C138.996 2.83832 138.852 2.67348 138.672 2.56531C138.491 2.45713 138.29 2.40304 138.069 2.40304C137.852 2.40304 137.652 2.45713 137.466 2.56531C137.281 2.67348 137.131 2.83832 137.018 3.05982C136.905 3.27618 136.848 3.55177 136.848 3.8866C136.848 4.22143 136.905 4.49959 137.018 4.72109C137.131 4.93745 137.281 5.09971 137.466 5.20789C137.652 5.31606 137.852 5.37015 138.069 5.37015ZM141.004 5.99602V1.93171H141.622V2.49577H141.653C141.704 2.36183 141.784 2.24336 141.892 2.14033C142.001 2.03731 142.124 1.95746 142.263 1.9008C142.407 1.84414 142.554 1.81581 142.704 1.81581C142.802 1.81581 142.881 1.82096 142.943 1.83126C143.005 1.84156 143.059 1.85702 143.105 1.87762V2.56531C143.033 2.52925 142.956 2.50349 142.874 2.48804C142.791 2.47259 142.706 2.46486 142.619 2.46486C142.438 2.46486 142.274 2.51637 142.124 2.6194C141.98 2.72242 141.864 2.8615 141.776 3.03664C141.694 3.20663 141.653 3.39465 141.653 3.6007V5.99602H141.004ZM145.343 6.11965C144.962 6.11965 144.63 6.02693 144.346 5.84148C144.068 5.65089 143.852 5.39333 143.697 5.0688C143.548 4.74428 143.473 4.37854 143.473 3.97159C143.473 3.55434 143.55 3.18345 143.705 2.85893C143.865 2.52925 144.084 2.27169 144.362 2.08625C144.645 1.9008 144.97 1.80808 145.335 1.80808C145.727 1.80808 146.056 1.88535 146.324 2.03988C146.597 2.19442 146.806 2.41592 146.95 2.70439C147.094 2.98771 147.167 3.32769 147.167 3.72433C147.167 3.7913 147.164 3.85827 147.159 3.92523C147.159 3.98705 147.156 4.04113 147.151 4.08749H143.867V3.54662H146.487C146.481 3.37147 146.453 3.21436 146.402 3.07528C146.355 2.93105 146.283 2.80999 146.185 2.71212C146.092 2.60909 145.974 2.53183 145.83 2.48031C145.691 2.42365 145.526 2.39532 145.335 2.39532C145.093 2.39532 144.879 2.45713 144.694 2.58076C144.514 2.69924 144.372 2.87438 144.269 3.10619C144.171 3.33799 144.122 3.62646 144.122 3.97159C144.122 4.30127 144.174 4.58201 144.277 4.81382C144.38 5.04562 144.524 5.22334 144.709 5.34697C144.9 5.46545 145.119 5.52469 145.366 5.52469C145.691 5.52469 145.935 5.45772 146.1 5.32379C146.27 5.18471 146.394 5.00699 146.471 4.79063L147.043 4.94517C146.96 5.27485 146.778 5.55302 146.494 5.77967C146.216 6.00633 145.832 6.11965 145.343 6.11965ZM149.412 6.11965C149.134 6.11965 148.874 6.07329 148.631 5.98057C148.389 5.8827 148.188 5.74361 148.029 5.56332C147.874 5.37787 147.781 5.1538 147.751 4.89109L148.376 4.78291C148.418 4.98896 148.526 5.16668 148.701 5.31606C148.876 5.46545 149.113 5.54014 149.412 5.54014C149.669 5.54014 149.888 5.48605 150.069 5.37788C150.249 5.26455 150.339 5.10486 150.339 4.89881C150.339 4.77518 150.308 4.66958 150.246 4.58201C150.185 4.48929 150.092 4.41202 149.968 4.35021C149.85 4.28839 149.698 4.24203 149.512 4.21112L149.01 4.1184C148.783 4.07719 148.58 4.00765 148.4 3.90978C148.224 3.8119 148.085 3.6857 147.982 3.53116C147.884 3.37148 147.836 3.18088 147.836 2.95938C147.836 2.72757 147.903 2.52667 148.036 2.35668C148.176 2.18154 148.358 2.04761 148.585 1.95489C148.817 1.85701 149.069 1.80808 149.342 1.80808C149.59 1.80808 149.819 1.84671 150.03 1.92398C150.246 1.9961 150.427 2.11458 150.571 2.27942C150.72 2.4391 150.813 2.65288 150.849 2.92074L150.246 3.01346C150.195 2.78681 150.084 2.62712 149.914 2.5344C149.749 2.43653 149.559 2.38759 149.342 2.38759C149.105 2.38759 148.904 2.4391 148.74 2.54213C148.575 2.64 148.492 2.77651 148.492 2.95165C148.492 3.10619 148.554 3.23239 148.678 3.33027C148.801 3.42814 148.997 3.50541 149.265 3.56207L149.837 3.67797C150.203 3.75009 150.486 3.88402 150.687 4.07977C150.888 4.27036 150.988 4.53565 150.988 4.87563C150.988 5.12804 150.919 5.34697 150.779 5.53241C150.64 5.71785 150.452 5.86209 150.215 5.96511C149.978 6.06814 149.711 6.11965 149.412 6.11965ZM153.17 6.11965C152.891 6.11965 152.631 6.07329 152.389 5.98057C152.147 5.8827 151.946 5.74361 151.787 5.56332C151.632 5.37787 151.539 5.1538 151.508 4.89109L152.134 4.78291C152.175 4.98896 152.284 5.16668 152.459 5.31606C152.634 5.46545 152.871 5.54014 153.17 5.54014C153.427 5.54014 153.646 5.48605 153.826 5.37788C154.007 5.26455 154.097 5.10486 154.097 4.89881C154.097 4.77518 154.066 4.66958 154.004 4.58201C153.942 4.48929 153.85 4.41202 153.726 4.35021C153.607 4.28839 153.456 4.24203 153.27 4.21112L152.768 4.1184C152.541 4.07719 152.338 4.00765 152.157 3.90978C151.982 3.8119 151.843 3.6857 151.74 3.53116C151.642 3.37148 151.593 3.18088 151.593 2.95938C151.593 2.72757 151.66 2.52667 151.794 2.35668C151.933 2.18154 152.116 2.04761 152.343 1.95489C152.575 1.85701 152.827 1.80808 153.1 1.80808C153.347 1.80808 153.577 1.84671 153.788 1.92398C154.004 1.9961 154.184 2.11458 154.329 2.27942C154.478 2.4391 154.571 2.65288 154.607 2.92074L154.004 3.01346C153.953 2.78681 153.842 2.62712 153.672 2.5344C153.507 2.43653 153.316 2.38759 153.1 2.38759C152.863 2.38759 152.662 2.4391 152.497 2.54213C152.333 2.64 152.25 2.77651 152.25 2.95165C152.25 3.10619 152.312 3.23239 152.436 3.33027C152.559 3.42814 152.755 3.50541 153.023 3.56207L153.595 3.67797C153.96 3.75009 154.244 3.88402 154.445 4.07977C154.645 4.27036 154.746 4.53565 154.746 4.87563C154.746 5.12804 154.676 5.34697 154.537 5.53241C154.398 5.71785 154.21 5.86209 153.973 5.96511C153.736 6.06814 153.468 6.11965 153.17 6.11965ZM1.40628 15.1343C1.12812 15.1343 0.883435 15.0828 0.672235 14.9798C0.461035 14.8767 0.296196 14.7325 0.177718 14.547C0.0592397 14.3565 0 14.1324 0 13.8748C0 13.6018 0.0695423 13.3751 0.208625 13.1949C0.35286 13.0094 0.540879 12.8703 0.772684 12.7776C1.00964 12.6849 1.26463 12.6385 1.53764 12.6385C1.69733 12.6385 1.84414 12.6462 1.97807 12.6617C2.11715 12.672 2.24851 12.69 2.37214 12.7158C2.50092 12.7415 2.62455 12.775 2.74303 12.8162V12.3681C2.74303 12.0745 2.64515 11.8427 2.44941 11.6727C2.25366 11.4975 2.00383 11.41 1.6999 11.41C1.43204 11.41 1.21054 11.4718 1.0354 11.5954C0.860254 11.7139 0.739201 11.8916 0.672235 12.1285L0.0849951 11.9817C0.131356 11.7396 0.22923 11.5336 0.378616 11.3636C0.528001 11.1885 0.71602 11.0545 0.942674 10.9618C1.17448 10.8691 1.42689 10.8227 1.6999 10.8227C2.23048 10.8227 2.64 10.9566 2.92847 11.2245C3.22209 11.4924 3.3689 11.8684 3.3689 12.3526V15.0107H2.74303V14.4775H2.71212C2.64 14.5805 2.5447 14.6836 2.42623 14.7866C2.30775 14.8896 2.16351 14.972 1.99352 15.0338C1.82868 15.1008 1.63294 15.1343 1.40628 15.1343ZM1.52219 14.5625C1.75914 14.5625 1.96777 14.511 2.14806 14.408C2.3335 14.3049 2.47774 14.1633 2.58076 13.983C2.68894 13.7975 2.74303 13.5915 2.74303 13.3648C2.55243 13.2927 2.36956 13.2412 2.19442 13.2103C2.01928 13.1794 1.83899 13.1639 1.65354 13.1639C1.35992 13.1639 1.12039 13.2206 0.934948 13.3339C0.754655 13.4421 0.664509 13.6224 0.664509 13.8748C0.664509 14.0809 0.744352 14.2483 0.90404 14.3771C1.06888 14.5007 1.27493 14.5625 1.52219 14.5625ZM4.43353 15.0107V10.9463H5.05167V11.4795H5.08258C5.18045 11.2889 5.33499 11.1318 5.54619 11.0082C5.76254 10.8845 6.0098 10.8227 6.28797 10.8227C6.74643 10.8227 7.09671 10.9566 7.33882 11.2245C7.58607 11.4924 7.7097 11.8555 7.7097 12.314V15.0107H7.06065V12.399C7.06065 12.0436 6.9705 11.7911 6.79021 11.6418C6.61507 11.4924 6.39614 11.4177 6.13343 11.4177C5.91708 11.4177 5.72906 11.4718 5.56937 11.5799C5.41484 11.683 5.29378 11.8221 5.20621 11.9972C5.12379 12.1672 5.08258 12.3578 5.08258 12.569V15.0107H4.43353ZM10.3712 15.1343C10.0055 15.1343 9.6861 15.0441 9.41308 14.8639C9.14007 14.6784 8.92887 14.4234 8.77948 14.0989C8.6301 13.7744 8.55541 13.4009 8.55541 12.9785C8.55541 12.551 8.6301 12.1775 8.77948 11.8581C8.92887 11.5336 9.13749 11.2812 9.40536 11.1009C9.67837 10.9154 9.99775 10.8227 10.3635 10.8227C10.5695 10.8227 10.7576 10.8562 10.9275 10.9232C11.0975 10.985 11.2443 11.0674 11.368 11.1704C11.4916 11.2734 11.5869 11.3842 11.6539 11.5027H11.6848L11.6539 10.9463V9.01464H12.3029V15.0107H11.6848V14.4389H11.6539C11.5869 14.5574 11.4916 14.6707 11.368 14.7789C11.2443 14.887 11.0975 14.972 10.9275 15.0338C10.7627 15.1008 10.5773 15.1343 10.3712 15.1343ZM10.4408 14.5393C10.688 14.5393 10.9044 14.4801 11.0898 14.3616C11.2753 14.2431 11.4195 14.068 11.5225 13.8362C11.6307 13.5992 11.6848 13.3133 11.6848 12.9785C11.6848 12.6385 11.6307 12.3526 11.5225 12.1208C11.4195 11.889 11.2753 11.7139 11.0898 11.5954C10.9044 11.4769 10.688 11.4177 10.4408 11.4177C10.1986 11.4177 9.98229 11.4769 9.7917 11.5954C9.60626 11.7139 9.46202 11.889 9.359 12.1208C9.25597 12.3526 9.20446 12.6385 9.20446 12.9785C9.20446 13.3133 9.25597 13.5992 9.359 13.8362C9.46202 14.068 9.60626 14.2431 9.7917 14.3616C9.98229 14.4801 10.1986 14.5393 10.4408 14.5393ZM17.0435 15.1343C16.6623 15.1343 16.33 15.0467 16.0467 14.8716C15.7634 14.6913 15.5419 14.4389 15.3822 14.1143C15.2277 13.7898 15.1504 13.4112 15.1504 12.9785C15.1504 12.5406 15.2328 12.162 15.3976 11.8427C15.5625 11.5181 15.7891 11.2683 16.0776 11.0932C16.3661 10.9129 16.6958 10.8227 17.0666 10.8227C17.556 10.8227 17.9475 10.9489 18.2411 11.2013C18.5347 11.4486 18.7099 11.768 18.7665 12.1595L18.1407 12.2676C18.0892 12.0204 17.9707 11.8169 17.7852 11.6572C17.6049 11.4975 17.3628 11.4177 17.0589 11.4177C16.8117 11.4177 16.5927 11.4795 16.4021 11.6031C16.2167 11.7216 16.0699 11.8967 15.9617 12.1285C15.8535 12.3604 15.7994 12.6437 15.7994 12.9785C15.7994 13.3082 15.8535 13.5915 15.9617 13.8285C16.0699 14.0603 16.2167 14.238 16.4021 14.3616C16.5927 14.4801 16.8117 14.5393 17.0589 14.5393C17.3474 14.5393 17.5792 14.4698 17.7543 14.3307C17.9295 14.1865 18.0583 13.9753 18.1407 13.6971L18.7356 13.8439C18.6429 14.2303 18.4523 14.5419 18.1639 14.7789C17.8805 15.0158 17.5071 15.1343 17.0435 15.1343ZM21.1949 15.1343C20.7982 15.1343 20.4531 15.0441 20.1595 14.8639C19.871 14.6784 19.647 14.4234 19.4873 14.0989C19.3276 13.7744 19.2477 13.4009 19.2477 12.9785C19.2477 12.551 19.3276 12.1775 19.4873 11.8581C19.647 11.5336 19.871 11.2812 20.1595 11.1009C20.4531 10.9154 20.7982 10.8227 21.1949 10.8227C21.5915 10.8227 21.9341 10.9154 22.2226 11.1009C22.511 11.2812 22.7325 11.5336 22.8871 11.8581C23.0468 12.1775 23.1266 12.551 23.1266 12.9785C23.1266 13.4009 23.0468 13.7744 22.8871 14.0989C22.7325 14.4234 22.511 14.6784 22.2226 14.8639C21.9341 15.0441 21.5915 15.1343 21.1949 15.1343ZM21.1949 14.5393C21.4473 14.5393 21.6688 14.4775 21.8594 14.3539C22.0551 14.2303 22.2071 14.0525 22.3153 13.8207C22.4235 13.5889 22.4775 13.3082 22.4775 12.9785C22.4775 12.6488 22.4235 12.3681 22.3153 12.1363C22.2071 11.9045 22.0551 11.7268 21.8594 11.6031C21.6688 11.4795 21.4473 11.4177 21.1949 11.4177C20.9425 11.4177 20.7184 11.4795 20.5227 11.6031C20.3269 11.7268 20.1724 11.9045 20.059 12.1363C19.9509 12.3681 19.8968 12.6488 19.8968 12.9785C19.8968 13.3082 19.9509 13.5889 20.059 13.8207C20.1724 14.0525 20.3269 14.2303 20.5227 14.3539C20.7184 14.4775 20.9425 14.5393 21.1949 14.5393ZM23.9996 15.0107V10.9463H24.6178V11.464H24.6487C24.7156 11.3404 24.8058 11.2322 24.9191 11.1395C25.0324 11.0416 25.1612 10.9644 25.3054 10.9077C25.4548 10.851 25.6119 10.8227 25.7768 10.8227C26.0498 10.8227 26.2816 10.8871 26.4722 11.0159C26.6628 11.1395 26.7993 11.3095 26.8817 11.5259C27.0002 11.3147 27.165 11.1447 27.3762 11.0159C27.5926 10.8871 27.8424 10.8227 28.1257 10.8227C28.5275 10.8227 28.8366 10.9463 29.053 11.1936C29.2745 11.4357 29.3852 11.7654 29.3852 12.1826V15.0107H28.7439V12.2908C28.7439 11.9869 28.6743 11.7654 28.5353 11.6263C28.4013 11.4821 28.2082 11.41 27.9557 11.41C27.7754 11.41 27.6132 11.4563 27.469 11.549C27.3299 11.6418 27.2191 11.768 27.1367 11.9277C27.0594 12.0873 27.0208 12.2676 27.0208 12.4685V15.0107H26.3717V12.2985C26.3717 11.9946 26.3022 11.7705 26.1631 11.6263C26.024 11.4821 25.8309 11.41 25.5836 11.41C25.4033 11.41 25.241 11.4589 25.0968 11.5568C24.9577 11.6495 24.847 11.7783 24.7646 11.9431C24.6873 12.1028 24.6487 12.2831 24.6487 12.484V15.0107H23.9996ZM30.4663 16.6797V10.9463H31.0845V11.5413H31.1154C31.1875 11.4125 31.2854 11.2941 31.409 11.1859C31.5378 11.0777 31.6872 10.9901 31.8572 10.9232C32.0323 10.8562 32.2152 10.8227 32.4058 10.8227C32.7715 10.8227 33.0909 10.9129 33.3639 11.0932C33.6369 11.2734 33.8481 11.5259 33.9975 11.8504C34.1469 12.1749 34.2216 12.551 34.2216 12.9785C34.2216 13.4061 34.1443 13.7821 33.9898 14.1066C33.8404 14.4311 33.6292 14.6836 33.3562 14.8639C33.0883 15.0441 32.7715 15.1343 32.4058 15.1343C32.0915 15.1343 31.8237 15.0699 31.6022 14.9411C31.3807 14.8072 31.2184 14.6526 31.1154 14.4775H31.0845L31.1154 15.0107V16.6797H30.4663ZM32.3362 14.5393C32.5783 14.5393 32.7921 14.4801 32.9775 14.3616C33.163 14.2431 33.3072 14.068 33.4102 13.8362C33.5184 13.5992 33.5725 13.3133 33.5725 12.9785C33.5725 12.6385 33.5184 12.3526 33.4102 12.1208C33.3072 11.889 33.163 11.7139 32.9775 11.5954C32.7921 11.4769 32.5783 11.4177 32.3362 11.4177C32.0941 11.4177 31.8778 11.4769 31.6872 11.5954C31.5017 11.7139 31.3549 11.889 31.2467 12.1208C31.1386 12.3526 31.0845 12.6385 31.0845 12.9785C31.0845 13.3133 31.1386 13.5992 31.2467 13.8362C31.3549 14.068 31.5017 14.2431 31.6872 14.3616C31.8778 14.4801 32.0941 14.5393 32.3362 14.5393ZM35.0919 15.0107V9.01464H35.7409V15.0107H35.0919ZM36.85 15.0107V10.9463H37.499V15.0107H36.85ZM37.1745 9.95731C37.0457 9.95731 36.935 9.91095 36.8422 9.81823C36.7495 9.72551 36.7032 9.61475 36.7032 9.48597C36.7032 9.35204 36.7495 9.24129 36.8422 9.15372C36.935 9.061 37.0457 9.01464 37.1745 9.01464C37.3084 9.01464 37.4192 9.061 37.5068 9.15372C37.5995 9.24129 37.6458 9.35204 37.6458 9.48597C37.6458 9.61475 37.5995 9.72551 37.5068 9.81823C37.4192 9.91095 37.3084 9.95731 37.1745 9.95731ZM39.8367 15.1343C39.5585 15.1343 39.3139 15.0828 39.1027 14.9798C38.8915 14.8767 38.7266 14.7325 38.6081 14.547C38.4897 14.3565 38.4304 14.1324 38.4304 13.8748C38.4304 13.6018 38.5 13.3751 38.6391 13.1949C38.7833 13.0094 38.9713 12.8703 39.2031 12.7776C39.4401 12.6849 39.6951 12.6385 39.9681 12.6385C40.1278 12.6385 40.2746 12.6462 40.4085 12.6617C40.5476 12.672 40.6789 12.69 40.8026 12.7158C40.9313 12.7415 41.055 12.775 41.1735 12.8162V12.3681C41.1735 12.0745 41.0756 11.8427 40.8798 11.6727C40.6841 11.4975 40.4343 11.41 40.1303 11.41C39.8625 11.41 39.641 11.4718 39.4658 11.5954C39.2907 11.7139 39.1696 11.8916 39.1027 12.1285L38.5154 11.9817C38.5618 11.7396 38.6597 11.5336 38.809 11.3636C38.9584 11.1885 39.1465 11.0545 39.3731 10.9618C39.6049 10.8691 39.8573 10.8227 40.1303 10.8227C40.6609 10.8227 41.0704 10.9566 41.3589 11.2245C41.6525 11.4924 41.7993 11.8684 41.7993 12.3526V15.0107H41.1735V14.4775H41.1425C41.0704 14.5805 40.9751 14.6836 40.8567 14.7866C40.7382 14.8896 40.5939 14.972 40.424 15.0338C40.2591 15.1008 40.0634 15.1343 39.8367 15.1343ZM39.9526 14.5625C40.1896 14.5625 40.3982 14.511 40.5785 14.408C40.7639 14.3049 40.9082 14.1633 41.0112 13.983C41.1194 13.7975 41.1735 13.5915 41.1735 13.3648C40.9829 13.2927 40.8 13.2412 40.6249 13.2103C40.4497 13.1794 40.2694 13.1639 40.084 13.1639C39.7904 13.1639 39.5508 13.2206 39.3654 13.3339C39.1851 13.4421 39.0949 13.6224 39.0949 13.8748C39.0949 14.0809 39.1748 14.2483 39.3345 14.3771C39.4993 14.5007 39.7054 14.5625 39.9526 14.5625ZM42.864 15.0107V10.9463H43.4821V11.4795H43.513C43.6109 11.2889 43.7654 11.1318 43.9766 11.0082C44.193 10.8845 44.4402 10.8227 44.7184 10.8227C45.1769 10.8227 45.5271 10.9566 45.7692 11.2245C46.0165 11.4924 46.1401 11.8555 46.1401 12.314V15.0107H45.4911V12.399C45.4911 12.0436 45.4009 11.7911 45.2206 11.6418C45.0455 11.4924 44.8266 11.4177 44.5639 11.4177C44.3475 11.4177 44.1595 11.4718 43.9998 11.5799C43.8453 11.683 43.7242 11.8221 43.6366 11.9972C43.5542 12.1672 43.513 12.3578 43.513 12.569V15.0107H42.864ZM48.8789 15.1343C48.4977 15.1343 48.1655 15.0467 47.8821 14.8716C47.5988 14.6913 47.3773 14.4389 47.2176 14.1143C47.0631 13.7898 46.9858 13.4112 46.9858 12.9785C46.9858 12.5406 47.0683 12.162 47.2331 11.8427C47.3979 11.5181 47.6246 11.2683 47.9131 11.0932C48.2015 10.9129 48.5312 10.8227 48.9021 10.8227C49.3915 10.8227 49.7829 10.9489 50.0766 11.2013C50.3702 11.4486 50.5453 11.768 50.602 12.1595L49.9761 12.2676C49.9246 12.0204 49.8061 11.8169 49.6207 11.6572C49.4404 11.4975 49.1983 11.4177 48.8944 11.4177C48.6471 11.4177 48.4282 11.4795 48.2376 11.6031C48.0521 11.7216 47.9053 11.8967 47.7972 12.1285C47.689 12.3604 47.6349 12.6437 47.6349 12.9785C47.6349 13.3082 47.689 13.5915 47.7972 13.8285C47.9053 14.0603 48.0521 14.238 48.2376 14.3616C48.4282 14.4801 48.6471 14.5393 48.8944 14.5393C49.1828 14.5393 49.4146 14.4698 49.5898 14.3307C49.7649 14.1865 49.8937 13.9753 49.9761 13.6971L50.5711 13.8439C50.4784 14.2303 50.2878 14.5419 49.9993 14.7789C49.716 15.0158 49.3425 15.1343 48.8789 15.1343ZM52.9531 15.1343C52.5719 15.1343 52.2396 15.0416 51.9563 14.8561C51.6781 14.6655 51.4618 14.408 51.3073 14.0834C51.1579 13.7589 51.0832 13.3932 51.0832 12.9862C51.0832 12.569 51.1605 12.1981 51.315 11.8736C51.4747 11.5439 51.6936 11.2863 51.9718 11.1009C52.2551 10.9154 52.5796 10.8227 52.9453 10.8227C53.3368 10.8227 53.6665 10.9 53.9346 11.0545C54.2076 11.2091 54.4162 11.4306 54.5604 11.719C54.7047 12.0023 54.7768 12.3423 54.7768 12.739C54.7768 12.8059 54.7742 12.8729 54.7691 12.9399C54.7691 13.0017 54.7665 13.0558 54.7613 13.1021H51.4772V12.5613H54.0968C54.0917 12.3861 54.0634 12.229 54.0118 12.0899C53.9655 11.9457 53.8934 11.8246 53.7955 11.7268C53.7026 11.6237 53.5841 11.5465 53.4399 11.495C53.3008 11.4383 53.1359 11.41 52.9453 11.41C52.7032 11.41 52.4895 11.4718 52.304 11.5954C52.1237 11.7139 51.9821 11.889 51.879 12.1208C51.7812 12.3526 51.7322 12.6411 51.7322 12.9862C51.7322 13.3159 51.7837 13.5966 51.8868 13.8285C51.9898 14.0603 52.134 14.238 52.3195 14.3616C52.5101 14.4801 52.729 14.5393 52.9763 14.5393C53.3008 14.5393 53.5455 14.4724 53.7105 14.3384C53.8805 14.1993 54.0041 14.0216 54.0814 13.8053L54.6532 13.9598C54.5708 14.2895 54.3879 14.5677 54.1046 14.7943C53.8264 15.021 53.4424 15.1343 52.9531 15.1343ZM59.3311 15.1343C58.9345 15.1343 58.5893 15.0441 58.2957 14.8639C58.0073 14.6784 57.7832 14.4234 57.6235 14.0989C57.4638 13.7744 57.384 13.4009 57.384 12.9785C57.384 12.551 57.4638 12.1775 57.6235 11.8581C57.7832 11.5336 58.0073 11.2812 58.2957 11.1009C58.5893 10.9154 58.9345 10.8227 59.3311 10.8227C59.7278 10.8227 60.0703 10.9154 60.3588 11.1009C60.6473 11.2812 60.8688 11.5336 61.0233 11.8581C61.183 12.1775 61.2628 12.551 61.2628 12.9785C61.2628 13.4009 61.183 13.7744 61.0233 14.0989C60.8688 14.4234 60.6473 14.6784 60.3588 14.8639C60.0703 15.0441 59.7278 15.1343 59.3311 15.1343ZM59.3311 14.5393C59.5835 14.5393 59.805 14.4775 59.9956 14.3539C60.1914 14.2303 60.3433 14.0525 60.4515 13.8207C60.5597 13.5889 60.6138 13.3082 60.6138 12.9785C60.6138 12.6488 60.5597 12.3681 60.4515 12.1363C60.3433 11.9045 60.1914 11.7268 59.9956 11.6031C59.805 11.4795 59.5835 11.4177 59.3311 11.4177C59.0787 11.4177 58.8546 11.4795 58.6589 11.6031C58.4631 11.7268 58.3086 11.9045 58.1953 12.1363C58.0871 12.3681 58.033 12.6488 58.033 12.9785C58.033 13.3082 58.0871 13.5889 58.1953 13.8207C58.3086 14.0525 58.4631 14.2303 58.6589 14.3539C58.8546 14.4775 59.0787 14.5393 59.3311 14.5393ZM63.5268 15.1343C63.0735 15.1343 62.7232 15.0004 62.4759 14.7325C62.2287 14.4646 62.1051 14.1015 62.1051 13.643V10.9463H62.7541V13.558C62.7541 13.9134 62.8417 14.1659 63.0168 14.3152C63.1971 14.4646 63.4186 14.5393 63.6813 14.5393C63.9028 14.5393 64.0909 14.4878 64.2454 14.3848C64.3999 14.2766 64.5184 14.1349 64.6008 13.9598C64.6884 13.7847 64.7322 13.5941 64.7322 13.388V10.9463H65.3812V15.0107H64.7631V14.4775H64.7322C64.6704 14.6011 64.5802 14.7145 64.4617 14.8175C64.3433 14.9154 64.2042 14.9926 64.0445 15.0493C63.8848 15.106 63.7122 15.1343 63.5268 15.1343ZM66.1649 11.5413V10.9463H66.8526V11.5413H66.1649ZM67.8802 15.0725C67.5608 15.0725 67.3033 14.9772 67.1075 14.7866C66.9118 14.5908 66.8139 14.3204 66.8139 13.9753V9.83368H67.463V13.8439C67.463 14.0397 67.5068 14.1916 67.5943 14.2998C67.6819 14.408 67.8133 14.4621 67.9884 14.4621C68.076 14.4621 68.1507 14.4518 68.2125 14.4311C68.2794 14.4105 68.3413 14.3822 68.3979 14.3462V14.9798C68.3309 15.0055 68.2588 15.0261 68.1816 15.0416C68.1043 15.0622 68.0039 15.0725 67.8802 15.0725ZM67.4243 11.5413V10.9463H68.3902V11.5413H67.4243ZM70.7237 15.1343C70.3425 15.1343 70.0102 15.0467 69.7269 14.8716C69.4436 14.6913 69.2221 14.4389 69.0624 14.1143C68.9079 13.7898 68.8306 13.4112 68.8306 12.9785C68.8306 12.5406 68.913 12.162 69.0779 11.8427C69.2427 11.5181 69.4694 11.2683 69.7578 11.0932C70.0463 10.9129 70.376 10.8227 70.7469 10.8227C71.2362 10.8227 71.6277 10.9489 71.9214 11.2013C72.215 11.4486 72.3901 11.768 72.4468 12.1595L71.8209 12.2676C71.7694 12.0204 71.6509 11.8169 71.4655 11.6572C71.2852 11.4975 71.0431 11.4177 70.7391 11.4177C70.4919 11.4177 70.273 11.4795 70.0824 11.6031C69.8969 11.7216 69.7501 11.8967 69.6419 12.1285C69.5338 12.3604 69.4797 12.6437 69.4797 12.9785C69.4797 13.3082 69.5338 13.5915 69.6419 13.8285C69.7501 14.0603 69.8969 14.238 70.0824 14.3616C70.273 14.4801 70.4919 14.5393 70.7391 14.5393C71.0276 14.5393 71.2594 14.4698 71.4346 14.3307C71.6097 14.1865 71.7385 13.9753 71.8209 13.6971L72.4159 13.8439C72.3231 14.2303 72.1326 14.5419 71.8441 14.7789C71.5608 15.0158 71.1873 15.1343 70.7237 15.1343ZM74.8749 15.1343C74.4783 15.1343 74.1332 15.0441 73.8395 14.8639C73.5511 14.6784 73.327 14.4234 73.1673 14.0989C73.0076 13.7744 72.9278 13.4009 72.9278 12.9785C72.9278 12.551 73.0076 12.1775 73.1673 11.8581C73.327 11.5336 73.5511 11.2812 73.8395 11.1009C74.1332 10.9154 74.4783 10.8227 74.8749 10.8227C75.2716 10.8227 75.6141 10.9154 75.9026 11.1009C76.1911 11.2812 76.4126 11.5336 76.5671 11.8581C76.7268 12.1775 76.8066 12.551 76.8066 12.9785C76.8066 13.4009 76.7268 13.7744 76.5671 14.0989C76.4126 14.4234 76.1911 14.6784 75.9026 14.8639C75.6141 15.0441 75.2716 15.1343 74.8749 15.1343ZM74.8749 14.5393C75.1273 14.5393 75.3488 14.4775 75.5394 14.3539C75.7352 14.2303 75.8871 14.0525 75.9953 13.8207C76.1035 13.5889 76.1576 13.3082 76.1576 12.9785C76.1576 12.6488 76.1035 12.3681 75.9953 12.1363C75.8871 11.9045 75.7352 11.7268 75.5394 11.6031C75.3488 11.4795 75.1273 11.4177 74.8749 11.4177C74.6225 11.4177 74.3984 11.4795 74.2027 11.6031C74.007 11.7268 73.8524 11.9045 73.7391 12.1363C73.6309 12.3681 73.5768 12.6488 73.5768 12.9785C73.5768 13.3082 73.6309 13.5889 73.7391 13.8207C73.8524 14.0525 74.007 14.2303 74.2027 14.3539C74.3984 14.4775 74.6225 14.5393 74.8749 14.5393ZM77.6798 15.0107V10.9463H78.2979V11.464H78.3288C78.3958 11.3404 78.4859 11.2322 78.5993 11.1395C78.7126 11.0416 78.8414 10.9644 78.9856 10.9077C79.135 10.851 79.2921 10.8227 79.4569 10.8227C79.73 10.8227 79.9618 10.8871 80.1524 11.0159C80.343 11.1395 80.4795 11.3095 80.5619 11.5259C80.6804 11.3147 80.8452 11.1447 81.0564 11.0159C81.2727 10.8871 81.5226 10.8227 81.8059 10.8227C82.2077 10.8227 82.5168 10.9463 82.7331 11.1936C82.9546 11.4357 83.0654 11.7654 83.0654 12.1826V15.0107H82.4241V12.2908C82.4241 11.9869 82.3545 11.7654 82.2154 11.6263C82.0815 11.4821 81.8883 11.41 81.6359 11.41C81.4556 11.41 81.2934 11.4563 81.1491 11.549C81.01 11.6418 80.8993 11.768 80.8169 11.9277C80.7396 12.0873 80.701 12.2676 80.701 12.4685V15.0107H80.0519V12.2985C80.0519 11.9946 79.9824 11.7705 79.8433 11.6263C79.7042 11.4821 79.511 11.41 79.2638 11.41C79.0835 11.41 78.9212 11.4589 78.777 11.5568C78.6379 11.6495 78.5271 11.7783 78.4447 11.9431C78.3675 12.1028 78.3288 12.2831 78.3288 12.484V15.0107H77.6798ZM85.7769 15.1343C85.3957 15.1343 85.0634 15.0416 84.7801 14.8561C84.5019 14.6655 84.2856 14.408 84.131 14.0834C83.9817 13.7589 83.907 13.3932 83.907 12.9862C83.907 12.569 83.9842 12.1981 84.1388 11.8736C84.2984 11.5439 84.5174 11.2863 84.7955 11.1009C85.0789 10.9154 85.4034 10.8227 85.7691 10.8227C86.1606 10.8227 86.4903 10.9 86.7582 11.0545C87.0312 11.2091 87.2398 11.4306 87.384 11.719C87.5283 12.0023 87.6004 12.3423 87.6004 12.739C87.6004 12.8059 87.5978 12.8729 87.5927 12.9399C87.5927 13.0017 87.5901 13.0558 87.5849 13.1021H84.301V12.5613H86.9204C86.9153 12.3861 86.8869 12.229 86.8354 12.0899C86.7891 11.9457 86.7169 11.8246 86.6191 11.7268C86.5264 11.6237 86.4079 11.5465 86.2636 11.495C86.1246 11.4383 85.9597 11.41 85.7691 11.41C85.527 11.41 85.3132 11.4718 85.1278 11.5954C84.9475 11.7139 84.8058 11.889 84.7028 12.1208C84.6049 12.3526 84.556 12.6411 84.556 12.9862C84.556 13.3159 84.6075 13.5966 84.7105 13.8285C84.8136 14.0603 84.9578 14.238 85.1432 14.3616C85.3338 14.4801 85.5528 14.5393 85.8 14.5393C86.1246 14.5393 86.3692 14.4724 86.5341 14.3384C86.7041 14.1993 86.8277 14.0216 86.905 13.8053L87.4768 13.9598C87.3943 14.2895 87.2115 14.5677 86.9281 14.7943C86.65 15.021 86.2662 15.1343 85.7769 15.1343ZM89.8457 15.1343C89.5675 15.1343 89.3074 15.0879 89.0653 14.9952C88.8232 14.8973 88.6223 14.7583 88.4626 14.578C88.308 14.3925 88.2153 14.1684 88.1844 13.9057L88.8103 13.7975C88.8515 14.0036 88.9597 14.1813 89.1348 14.3307C89.3099 14.4801 89.5469 14.5548 89.8457 14.5548C90.1032 14.5548 90.3222 14.5007 90.5025 14.3925C90.6827 14.2792 90.7729 14.1195 90.7729 13.9134C90.7729 13.7898 90.742 13.6842 90.6802 13.5966C90.6184 13.5039 90.5256 13.4267 90.402 13.3648C90.2835 13.303 90.1316 13.2567 89.9461 13.2258L89.4439 13.133C89.2172 13.0918 89.0137 13.0223 88.8335 12.9244C88.6583 12.8265 88.5192 12.7003 88.4162 12.5458C88.3183 12.3861 88.2694 12.1955 88.2694 11.974C88.2694 11.7422 88.3364 11.5413 88.4703 11.3713C88.6094 11.1962 88.7923 11.0622 89.0189 10.9695C89.2507 10.8717 89.5031 10.8227 89.7761 10.8227C90.0234 10.8227 90.2526 10.8613 90.4638 10.9386C90.6802 11.0107 90.8605 11.1292 91.0047 11.2941C91.1541 11.4537 91.2468 11.6675 91.2829 11.9354L90.6802 12.0281C90.6287 11.8014 90.5179 11.6418 90.3479 11.549C90.1831 11.4512 89.9925 11.4022 89.7761 11.4022C89.5392 11.4022 89.3383 11.4537 89.1734 11.5568C89.0086 11.6546 88.9262 11.7911 88.9262 11.9663C88.9262 12.1208 88.988 12.247 89.1116 12.3449C89.2353 12.4428 89.431 12.52 89.6989 12.5767L90.2707 12.6926C90.6364 12.7647 90.9197 12.8987 91.1206 13.0944C91.3215 13.285 91.4219 13.5503 91.4219 13.8903C91.4219 14.1427 91.3524 14.3616 91.2133 14.547C91.0742 14.7325 90.8862 14.8767 90.6493 14.9798C90.4123 15.0828 90.1444 15.1343 89.8457 15.1343ZM92.6608 15.057C92.5269 15.057 92.411 15.0081 92.3131 14.9102C92.2152 14.8123 92.1663 14.6964 92.1663 14.5625C92.1663 14.4286 92.2152 14.3127 92.3131 14.2148C92.411 14.1169 92.5269 14.068 92.6608 14.068C92.7947 14.068 92.9107 14.1169 93.0085 14.2148C93.1064 14.3127 93.1553 14.4286 93.1553 14.5625C93.1553 14.6964 93.1064 14.8123 93.0085 14.9102C92.9107 15.0081 92.7947 15.057 92.6608 15.057Z" fill="var(--fill-0, #101010)" fill-opacity="0.6"/>
</svg>
