<svg preserveAspectRatio="none" width="100%" height="100%" overflow="visible" style="display: block;" viewBox="0 0 126.922 10.3849" fill="none" xmlns="http://www.w3.org/2000/svg">
<path id="Vector" d="M2.24593 8.15954V1.33932H3.3689V8.15954H2.24593ZM0 1.85444V0.782987H5.61483V1.85444H0ZM5.8872 8.15954V2.74045H6.92775V3.47192H6.98956C7.06509 3.3002 7.16812 3.14914 7.29864 3.01862C7.43598 2.88127 7.59399 2.77477 7.77255 2.69924C7.95799 2.62371 8.15715 2.58591 8.37009 2.58591C8.50061 2.58591 8.60705 2.5928 8.68946 2.60652C8.77188 2.62023 8.844 2.63743 8.90582 2.65803V3.781C8.80968 3.7329 8.70318 3.69858 8.58644 3.67797C8.4697 3.65048 8.3426 3.63676 8.20525 3.63676C7.97171 3.63676 7.76224 3.69858 7.5768 3.82221C7.39825 3.94584 7.25401 4.11757 7.1441 4.33733C7.04107 4.55709 6.98956 4.80435 6.98956 5.07911V8.15954H5.8872ZM11.4091 8.32438C11.0313 8.32438 10.7017 8.25567 10.42 8.11833C10.1384 7.97409 9.91868 7.77493 9.76066 7.52078C9.6096 7.26664 9.53401 6.96445 9.53401 6.61417C9.53401 6.25017 9.62673 5.94451 9.81217 5.69725C9.99762 5.4431 10.2484 5.25084 10.5643 5.12032C10.8802 4.9898 11.2271 4.92457 11.6048 4.92457C11.7971 4.92457 11.9792 4.93487 12.1508 4.95548C12.3226 4.96919 12.4908 4.99327 12.6556 5.02759C12.8205 5.05509 12.9853 5.08941 13.1502 5.13062V4.6155C13.1502 4.27893 13.0334 4.01106 12.7999 3.8119C12.5664 3.60586 12.2573 3.50283 11.8727 3.50283C11.5636 3.50283 11.2992 3.57836 11.0794 3.72949C10.8665 3.87372 10.7188 4.08666 10.6364 4.36824L9.65764 4.14158C9.72634 3.80502 9.86716 3.52002 10.08 3.28648C10.2999 3.05294 10.5643 2.87779 10.8733 2.76106C11.1893 2.63743 11.5259 2.57561 11.883 2.57561C12.6453 2.57561 13.2258 2.75764 13.6241 3.12164C14.0225 3.48564 14.2216 4.00765 14.2216 4.68761V8.15954H13.1502V7.53109H13.0884C12.9853 7.66843 12.8549 7.79895 12.6969 7.92258C12.5389 8.03932 12.3535 8.13552 12.1405 8.21105C11.9277 8.28658 11.6838 8.32438 11.4091 8.32438ZM11.6563 7.41776C11.9586 7.41776 12.2195 7.35595 12.4393 7.23232C12.6591 7.1018 12.8308 6.93013 12.9544 6.71719C13.0849 6.49743 13.1502 6.257 13.1502 5.99602C12.9235 5.9136 12.6969 5.8552 12.4702 5.82088C12.2435 5.77967 12.0135 5.75907 11.7799 5.75907C11.4159 5.75907 11.1344 5.83118 10.9351 5.97542C10.7429 6.11965 10.6467 6.33259 10.6467 6.61417C10.6467 6.85454 10.7394 7.05028 10.9248 7.20141C11.1172 7.34564 11.361 7.41776 11.6563 7.41776ZM17.9129 8.32438C17.3978 8.32438 16.9445 8.20764 16.553 7.97409C16.1683 7.73372 15.8661 7.39716 15.6464 6.96445C15.4334 6.53175 15.327 6.02693 15.327 5.44999C15.327 4.86617 15.4369 4.36135 15.6567 3.93553C15.8833 3.50283 16.1924 3.16974 16.5839 2.9362C16.9822 2.69583 17.439 2.57561 17.9541 2.57561C18.5997 2.57561 19.132 2.73704 19.551 3.05983C19.9699 3.38261 20.2241 3.82562 20.3134 4.38884L19.2419 4.56398C19.1732 4.26863 19.0256 4.03515 18.7989 3.86342C18.5791 3.68486 18.2906 3.59555 17.9335 3.59555C17.6519 3.59555 17.3978 3.66767 17.1711 3.8119C16.9445 3.94925 16.7625 4.1553 16.6251 4.43005C16.4946 4.70481 16.4294 5.04479 16.4294 5.44999C16.4294 5.84838 16.4946 6.18836 16.6251 6.46994C16.7556 6.74469 16.9342 6.95415 17.1608 7.09838C17.3875 7.23573 17.6451 7.30443 17.9335 7.30443C18.2769 7.30443 18.5551 7.2186 18.768 7.04687C18.9878 6.87514 19.1492 6.62106 19.2522 6.28449L20.2928 6.53175C20.1623 7.06059 19.8978 7.49329 19.4995 7.82986C19.1011 8.15954 18.5723 8.32438 17.9129 8.32438ZM21.3811 8.15954V0.164839H22.4835V8.15954H21.3811ZM21.9374 6.93355V5.57362L24.6161 2.74045H25.9451V2.80227L21.9374 6.93355ZM24.7397 8.15954L22.9162 5.23364L23.7095 4.41975L25.9966 8.09772V8.15954H24.7397ZM31.3665 8.32438C30.9476 8.32438 30.5732 8.25567 30.2435 8.11833C29.9138 7.98098 29.646 7.78524 29.4399 7.53109C29.2408 7.27694 29.1137 6.97817 29.0587 6.63477L30.1199 6.45963C30.1749 6.72061 30.3088 6.93355 30.5217 7.09838C30.7346 7.26322 31.0162 7.34564 31.3665 7.34564C31.6618 7.34564 31.916 7.28724 32.1289 7.1705C32.3487 7.04687 32.4585 6.86832 32.4585 6.63477C32.4585 6.49054 32.4173 6.36691 32.3349 6.26389C32.2525 6.15397 32.1323 6.06473 31.9743 5.99602C31.8233 5.92049 31.6344 5.8655 31.4077 5.83118L30.7586 5.70755C30.4565 5.65263 30.1886 5.55991 29.9551 5.42939C29.7216 5.29887 29.5395 5.1272 29.409 4.91427C29.2786 4.70133 29.2133 4.45066 29.2133 4.16219C29.2133 3.84622 29.306 3.56806 29.4914 3.32769C29.6769 3.08732 29.9242 2.90188 30.2332 2.77136C30.5492 2.64084 30.8961 2.57561 31.2738 2.57561C31.6515 2.57561 31.9881 2.63054 32.2834 2.74045C32.5788 2.84348 32.8226 3.0049 33.0149 3.22467C33.2072 3.4376 33.3308 3.71577 33.3858 4.05916L32.3864 4.2137C32.3178 3.95273 32.1839 3.7707 31.9846 3.66767C31.7855 3.55776 31.5554 3.50283 31.2944 3.50283C31.0059 3.50283 30.769 3.56123 30.5835 3.67797C30.3981 3.79471 30.3053 3.94584 30.3053 4.13128C30.3053 4.30983 30.3775 4.45755 30.5217 4.57429C30.6659 4.6842 30.8961 4.77344 31.212 4.84215L31.964 4.99669C32.4723 5.09971 32.8638 5.27826 33.1385 5.53241C33.4202 5.78656 33.5609 6.14367 33.5609 6.60387C33.5609 6.95415 33.4614 7.25981 33.2621 7.52078C33.0699 7.77493 32.8088 7.97409 32.4792 8.11833C32.1495 8.25567 31.7786 8.32438 31.3665 8.32438ZM34.0878 3.70888V2.74045H35.015V3.70888H34.0878ZM36.5398 8.24196C36.059 8.24196 35.6778 8.10113 35.3962 7.81956C35.1146 7.53798 34.9738 7.14301 34.9738 6.63477V1.2569H36.0762V6.43903C36.0762 6.69318 36.1311 6.88545 36.241 7.01597C36.3509 7.1396 36.5157 7.20141 36.7355 7.20141C36.8523 7.20141 36.9553 7.18769 37.0446 7.1602C37.1339 7.1327 37.2301 7.08808 37.3331 7.02627V8.09772C37.2163 8.14582 37.0961 8.18014 36.9725 8.20075C36.8489 8.22824 36.7046 8.24196 36.5398 8.24196ZM36.0247 3.70888V2.74045H37.3125V3.70888H36.0247ZM38.4848 8.15954V2.74045H39.5253V3.47192H39.5871C39.6627 3.3002 39.7657 3.14914 39.8962 3.01862C40.0335 2.88127 40.1916 2.77477 40.3701 2.69924C40.5556 2.62371 40.7547 2.58591 40.9677 2.58591C41.0982 2.58591 41.2046 2.5928 41.287 2.60652C41.3695 2.62023 41.4416 2.63743 41.5034 2.65803V3.781C41.4072 3.7329 41.3007 3.69858 41.184 3.67797C41.0673 3.65048 40.9402 3.63676 40.8028 3.63676C40.5693 3.63676 40.3598 3.69858 40.1744 3.82221C39.9958 3.94584 39.8516 4.11757 39.7417 4.33733C39.6386 4.55709 39.5871 4.80435 39.5871 5.07911V8.15954H38.4848ZM44.5642 8.32438C44.0422 8.32438 43.5854 8.20416 43.194 7.96379C42.8093 7.71653 42.5106 7.37655 42.2976 6.94385C42.0916 6.51115 41.9886 6.01663 41.9886 5.4603C41.9886 4.88336 42.0985 4.37854 42.3182 3.94584C42.538 3.51313 42.8403 3.17657 43.2249 2.9362C43.6163 2.69583 44.0628 2.57561 44.5642 2.57561C45.1136 2.57561 45.5704 2.67864 45.9344 2.88469C46.3053 3.09073 46.5835 3.38609 46.7689 3.7707C46.9612 4.1553 47.0574 4.6155 47.0574 5.15122C47.0574 5.24736 47.054 5.34356 47.0471 5.43969C47.0471 5.529 47.0402 5.61142 47.0265 5.68695H42.617V4.85245H45.9653C45.9516 4.6464 45.9138 4.46096 45.852 4.29612C45.7902 4.13128 45.7009 3.99046 45.5841 3.87372C45.4674 3.75698 45.3231 3.66767 45.1514 3.60586C44.9866 3.54404 44.7942 3.51313 44.5745 3.51313C44.2791 3.51313 44.0147 3.58866 43.7812 3.73979C43.5545 3.88402 43.376 4.10037 43.2455 4.38884C43.1218 4.67731 43.06 5.0379 43.06 5.4706C43.06 5.87581 43.1252 6.21579 43.2558 6.49054C43.3863 6.76529 43.5683 6.97476 43.8018 7.11899C44.0353 7.26322 44.3032 7.33534 44.6054 7.33534C44.9832 7.33534 45.275 7.25292 45.4811 7.08808C45.694 6.91635 45.8486 6.70348 45.9447 6.44933L46.9131 6.70689C46.7758 7.17391 46.5147 7.56199 46.1301 7.87107C45.7455 8.17325 45.2235 8.32438 44.5642 8.32438ZM49.8722 8.32438C49.4944 8.32438 49.1647 8.25567 48.8832 8.11833C48.6016 7.97409 48.3817 7.77493 48.2238 7.52078C48.0727 7.26664 47.9971 6.96445 47.9971 6.61417C47.9971 6.25017 48.0899 5.94451 48.2753 5.69725C48.4608 5.4431 48.7114 5.25084 49.0274 5.12032C49.3434 4.9898 49.6902 4.92457 50.0679 4.92457C50.2603 4.92457 50.4422 4.93487 50.614 4.95548C50.7857 4.96919 50.9539 4.99327 51.1188 5.02759C51.2836 5.05509 51.4485 5.08941 51.6133 5.13062V4.6155C51.6133 4.27893 51.4966 4.01106 51.263 3.8119C51.0295 3.60586 50.7204 3.50283 50.3358 3.50283C50.0267 3.50283 49.7623 3.57836 49.5425 3.72949C49.3296 3.87372 49.1819 4.08666 49.0995 4.36824L48.1208 4.14158C48.1895 3.80502 48.3302 3.52002 48.5432 3.28648C48.7629 3.05294 49.0274 2.87779 49.3365 2.76106C49.6524 2.63743 49.9889 2.57561 50.3461 2.57561C51.1085 2.57561 51.6888 2.75764 52.0872 3.12164C52.4856 3.48564 52.6848 4.00765 52.6848 4.68761V8.15954H51.6133V7.53109H51.5515C51.4485 7.66843 51.3179 7.79895 51.16 7.92258C51.002 8.03932 50.8166 8.13552 50.6037 8.21105C50.3907 8.28658 50.1469 8.32438 49.8722 8.32438ZM50.1194 7.41776C50.4216 7.41776 50.6827 7.35595 50.9024 7.23232C51.1222 7.1018 51.2939 6.93013 51.4176 6.71719C51.5481 6.49743 51.6133 6.257 51.6133 5.99602C51.3866 5.9136 51.16 5.8552 50.9333 5.82088C50.7067 5.77967 50.4766 5.75907 50.2431 5.75907C49.8791 5.75907 49.5974 5.83118 49.3983 5.97542C49.2059 6.11965 49.1098 6.33259 49.1098 6.61417C49.1098 6.85454 49.2025 7.05028 49.388 7.20141C49.5803 7.34564 49.8241 7.41776 50.1194 7.41776ZM54.1097 8.15954V2.74045H55.1503V3.42041H55.2121C55.308 3.25557 55.4316 3.11134 55.583 2.98771C55.7336 2.85719 55.9056 2.75764 56.0981 2.68894C56.29 2.61341 56.496 2.57561 56.7162 2.57561C57.08 2.57561 57.3859 2.65803 57.6331 2.82287C57.8868 2.98082 58.0723 3.19376 58.1895 3.46162C58.3472 3.20065 58.5636 2.98771 58.8385 2.82287C59.1199 2.65803 59.4599 2.57561 59.8585 2.57561C60.4212 2.57561 60.8436 2.74734 61.1257 3.09073C61.4141 3.4273 61.5584 3.88743 61.5584 4.47126V8.15954H60.4663V4.6464C60.4663 4.28923 60.3839 4.02484 60.2191 3.85311C60.0607 3.67456 59.834 3.58525 59.5391 3.58525C59.3124 3.58525 59.1128 3.64365 58.9416 3.76039C58.7696 3.87713 58.6357 4.03856 58.5398 4.24461C58.4432 4.44377 58.3955 4.67731 58.3955 4.94517V8.15954H57.2829V4.65671C57.2829 4.29271 57.2004 4.02484 57.0356 3.85311C56.8708 3.67456 56.637 3.58525 56.335 3.58525C56.1148 3.58525 55.9191 3.64365 55.7478 3.76039C55.583 3.87713 55.4522 4.03856 55.3563 4.24461C55.2597 4.45066 55.2121 4.68761 55.2121 4.95548V8.15954H54.1097ZM65.6394 10.3849V2.74045H66.68V3.45132H66.7418C66.8377 3.29337 66.9652 3.14914 67.123 3.01862C67.2878 2.8881 67.4803 2.78166 67.6999 2.69924C67.9195 2.61682 68.1564 2.57561 68.4108 2.57561C68.8847 2.57561 69.3039 2.69235 69.6677 2.92589C70.0315 3.15255 70.3167 3.48223 70.5228 3.91493C70.7288 4.34074 70.8319 4.85245 70.8319 5.44999C70.8319 6.04065 70.7256 6.55236 70.5125 6.98506C70.3064 7.41776 70.0212 7.75085 69.6574 7.9844C69.3 8.21105 68.8847 8.32438 68.4108 8.32438C67.9987 8.32438 67.6484 8.24196 67.3599 8.07712C67.0786 7.90539 66.8725 7.70623 66.7418 7.47958H66.68L66.7418 8.24196V10.3849H65.6394ZM68.2047 7.30443C68.5003 7.30443 68.7611 7.23573 68.9877 7.09838C69.2215 6.96104 69.403 6.75499 69.5338 6.48024C69.6645 6.19866 69.7295 5.8552 69.7295 5.44999C69.7295 5.0379 69.6645 4.6945 69.5338 4.41975C69.403 4.145 69.2215 3.93895 68.9877 3.8016C68.7611 3.66426 68.5003 3.59555 68.2047 3.59555C67.9163 3.59555 67.6555 3.66426 67.4218 3.8016C67.1951 3.93895 67.0129 4.145 66.8757 4.41975C66.745 4.6945 66.68 5.0379 66.68 5.44999C66.68 5.8552 66.745 6.19866 66.8757 6.48024C67.0129 6.75499 67.1951 6.96104 67.4218 7.09838C67.6555 7.23573 67.9163 7.30443 68.2047 7.30443ZM74.2542 8.32438C73.732 8.32438 73.2755 8.20416 72.884 7.96379C72.4996 7.71653 72.2008 7.37655 71.9877 6.94385C71.7816 6.51115 71.6786 6.01663 71.6786 5.4603C71.6786 4.88336 71.7887 4.37854 72.0083 3.94584C72.2278 3.51313 72.5305 3.17657 72.9149 2.9362C73.3064 2.69583 73.7526 2.57561 74.2542 2.57561C74.8035 2.57561 75.2606 2.67864 75.6244 2.88469C75.9953 3.09073 76.2735 3.38609 76.4589 3.7707C76.6515 4.1553 76.7474 4.6155 76.7474 5.15122C76.7474 5.24736 76.7442 5.34356 76.7371 5.43969C76.7371 5.529 76.73 5.61142 76.7165 5.68695H72.307V4.85245H75.6553C75.6418 4.6464 75.6038 4.46096 75.542 4.29612C75.4802 4.13128 75.3907 3.99046 75.2741 3.87372C75.1576 3.75698 75.0134 3.66767 74.8414 3.60586C74.6766 3.54404 74.4841 3.51313 74.2645 3.51313C73.9689 3.51313 73.705 3.58866 73.4712 3.73979C73.2446 3.88402 73.0662 4.10037 72.9355 4.38884C72.8119 4.67731 72.75 5.0379 72.75 5.4706C72.75 5.87581 72.8151 6.21579 72.9458 6.49054C73.0765 6.76529 73.2581 6.97476 73.4918 7.11899C73.7256 7.26322 73.9934 7.33534 74.2954 7.33534C74.6734 7.33534 74.9651 7.25292 75.1711 7.08808C75.3843 6.91635 75.5388 6.70348 75.6347 6.44933L76.6032 6.70689C76.466 7.17391 76.2046 7.56199 75.8202 7.87107C75.4358 8.17325 74.9136 8.32438 74.2542 8.32438ZM77.9135 8.15954V2.74045H78.954V3.47192H79.0159C79.0918 3.3002 79.1949 3.14914 79.3249 3.01862C79.4627 2.88127 79.6205 2.77477 79.7988 2.69924C79.9843 2.62371 80.1839 2.58591 80.3964 2.58591C80.5271 2.58591 80.6333 2.5928 80.7158 2.60652C80.7982 2.62023 80.8703 2.63743 80.9321 2.65803V3.781C80.8362 3.7329 80.7299 3.69858 80.6127 3.67797C80.4962 3.65048 80.3693 3.63676 80.2315 3.63676C79.9985 3.63676 79.7885 3.69858 79.6031 3.82221C79.4247 3.94584 79.2805 4.11757 79.1704 4.33733C79.0674 4.55709 79.0159 4.80435 79.0159 5.07911V8.15954H77.9135ZM81.4846 3.70888V2.74045H82.4633V3.70888H81.4846ZM82.4118 8.15954V1.76172C82.4118 1.38394 82.4839 1.06457 82.6282 0.803591C82.7795 0.542618 82.9887 0.343394 83.2566 0.20605C83.5245 0.0687055 83.8232 0 84.1529 0C84.3248 0 84.4762 0.0103027 84.6062 0.0309075C84.744 0.0515124 84.8573 0.0790073 84.9462 0.113327V1.18478C84.8573 1.14357 84.7575 1.10925 84.6474 1.08176C84.5444 1.04744 84.4176 1.03024 84.2662 1.03024C84.0467 1.03024 83.8645 1.09895 83.7202 1.23629C83.5831 1.37364 83.5142 1.57286 83.5142 1.83384V8.15954H82.4118ZM83.4627 3.70888V2.74045H84.7711V3.70888H83.4627ZM87.8689 8.32438C87.3261 8.32438 86.8554 8.20416 86.4574 7.96379C86.0589 7.71653 85.7498 7.37655 85.5302 6.94385C85.3171 6.51115 85.2108 6.01322 85.2108 5.44999C85.2108 4.87995 85.3171 4.38195 85.5302 3.95614C85.7498 3.52344 86.0589 3.18687 86.4574 2.9465C86.8554 2.69924 87.3261 2.57561 87.8689 2.57561C88.4181 2.57561 88.8888 2.69924 89.2803 2.9465C89.6782 3.18687 89.9841 3.52344 90.1972 3.95614C90.4168 4.38195 90.5269 4.87995 90.5269 5.44999C90.5269 6.01322 90.4168 6.51115 90.1972 6.94385C89.9841 7.37655 89.6782 7.71653 89.2803 7.96379C88.8888 8.20416 88.4181 8.32438 87.8689 8.32438ZM87.8689 7.30443C88.178 7.30443 88.449 7.23232 88.6828 7.08808C88.9159 6.94385 89.0981 6.73439 89.2288 6.45963C89.3589 6.17805 89.4245 5.84149 89.4245 5.44999C89.4245 5.05161 89.3589 4.71511 89.2288 4.44035C89.0981 4.1656 88.9159 3.95614 88.6828 3.8119C88.449 3.66767 88.1812 3.59555 87.8792 3.59555C87.5701 3.59555 87.2984 3.66767 87.0653 3.8119C86.8316 3.95614 86.6461 4.1656 86.509 4.44035C86.3782 4.71511 86.3132 5.05161 86.3132 5.44999C86.3132 5.84838 86.3782 6.18488 86.509 6.45963C86.6461 6.73439 86.8316 6.94385 87.0653 7.08808C87.3055 7.23232 87.5733 7.30443 87.8689 7.30443ZM91.6872 8.15954V2.74045H92.7278V3.47192H92.7896C92.8649 3.3002 92.9679 3.14914 93.0987 3.01862C93.2358 2.88127 93.3942 2.77477 93.5726 2.69924C93.758 2.62371 93.957 2.58591 94.1701 2.58591C94.3008 2.58591 94.4071 2.5928 94.4895 2.60652C94.5719 2.62023 94.644 2.63743 94.7058 2.65803V3.781C94.6099 3.7329 94.503 3.69858 94.3865 3.67797C94.2699 3.65048 94.1424 3.63676 94.0053 3.63676C93.7715 3.63676 93.5623 3.69858 93.3768 3.82221C93.1985 3.94584 93.0542 4.11757 92.9441 4.33733C92.8411 4.55709 92.7896 4.80435 92.7896 5.07911V8.15954H91.6872ZM95.7116 8.15954V2.74045H96.7522V3.42041H96.814C96.9099 3.25557 97.0335 3.11134 97.1849 2.98771C97.3362 2.85719 97.5075 2.75764 97.7 2.68894C97.8925 2.61341 98.0986 2.57561 98.3181 2.57561C98.6819 2.57561 98.9878 2.65803 99.235 2.82287C99.4894 2.98082 99.6748 3.19376 99.7914 3.46162C99.9491 3.20065 100.165 2.98771 100.44 2.82287C100.722 2.65803 101.062 2.57561 101.46 2.57561C102.024 2.57561 102.446 2.74734 102.728 3.09073C103.016 3.4273 103.16 3.88743 103.16 4.47126V8.15954H102.068V4.6464C102.068 4.28923 101.986 4.02484 101.821 3.85311C101.663 3.67456 101.437 3.58525 101.141 3.58525C100.914 3.58525 100.715 3.64365 100.543 3.76039C100.372 3.87713 100.238 4.03856 100.142 4.24461C100.046 4.44377 99.9974 4.67731 99.9974 4.94517V8.15954H98.8848V4.65671C98.8848 4.29271 98.8023 4.02484 98.6375 3.85311C98.4727 3.67456 98.2389 3.58525 97.9369 3.58525C97.7174 3.58525 97.5216 3.64365 97.3497 3.76039C97.1849 3.87713 97.0541 4.03856 96.9582 4.24461C96.8623 4.45066 96.814 4.68761 96.814 4.95548V8.15954H95.7116ZM106.254 8.32438C105.876 8.32438 105.547 8.25567 105.265 8.11833C104.983 7.97409 104.764 7.77493 104.606 7.52078C104.455 7.26664 104.379 6.96445 104.379 6.61417C104.379 6.25017 104.472 5.94451 104.657 5.69725C104.843 5.4431 105.093 5.25084 105.409 5.12032C105.725 4.9898 106.072 4.92457 106.45 4.92457C106.642 4.92457 106.824 4.93487 106.996 4.95548C107.167 4.96919 107.336 4.99327 107.501 5.02759C107.666 5.05509 107.831 5.08941 107.995 5.13062V4.6155C107.995 4.27893 107.878 4.01106 107.645 3.8119C107.411 3.60586 107.102 3.50283 106.718 3.50283C106.409 3.50283 106.144 3.57836 105.925 3.72949C105.711 3.87372 105.564 4.08666 105.482 4.36824L104.503 4.14158C104.571 3.80502 104.712 3.52002 104.925 3.28648C105.145 3.05294 105.409 2.87779 105.718 2.76106C106.034 2.63743 106.371 2.57561 106.728 2.57561C107.491 2.57561 108.071 2.75764 108.469 3.12164C108.867 3.48564 109.066 4.00765 109.066 4.68761V8.15954H107.995V7.53109H107.934C107.831 7.66843 107.7 7.79895 107.542 7.92258C107.384 8.03932 107.198 8.13552 106.986 8.21105C106.773 8.28658 106.529 8.32438 106.254 8.32438ZM106.501 7.41776C106.803 7.41776 107.064 7.35595 107.284 7.23232C107.504 7.1018 107.676 6.93013 107.8 6.71719C107.93 6.49743 107.995 6.257 107.995 5.99602C107.769 5.9136 107.542 5.8552 107.315 5.82088C107.089 5.77967 106.858 5.75907 106.625 5.75907C106.261 5.75907 105.979 5.83118 105.78 5.97542C105.588 6.11965 105.492 6.33259 105.492 6.61417C105.492 6.85454 105.585 7.05028 105.77 7.20141C105.962 7.34564 106.206 7.41776 106.501 7.41776ZM110.491 8.15954V2.74045H111.532V3.43071H111.593C111.738 3.17657 111.951 2.97052 112.232 2.81257C112.521 2.65462 112.843 2.57561 113.201 2.57561C113.819 2.57561 114.289 2.75764 114.612 3.12164C114.942 3.48564 115.107 3.99046 115.107 4.6361V8.15954H113.994V4.78034C113.994 4.37513 113.891 4.07636 113.685 3.88402C113.486 3.69169 113.224 3.59555 112.902 3.59555C112.634 3.59555 112.4 3.66426 112.201 3.8016C112.009 3.93212 111.858 4.11068 111.748 4.33733C111.645 4.55709 111.593 4.80435 111.593 5.07911V8.15954H110.491ZM118.805 8.32438C118.289 8.32438 117.836 8.20764 117.445 7.97409C117.06 7.73372 116.758 7.39716 116.538 6.96445C116.325 6.53175 116.219 6.02693 116.219 5.44999C116.219 4.86617 116.328 4.36135 116.548 3.93553C116.775 3.50283 117.084 3.16974 117.476 2.9362C117.873 2.69583 118.331 2.57561 118.846 2.57561C119.491 2.57561 120.023 2.73704 120.443 3.05983C120.861 3.38261 121.116 3.82562 121.205 4.38884L120.134 4.56398C120.065 4.26863 119.917 4.03515 119.691 3.86342C119.47 3.68486 119.182 3.59555 118.825 3.59555C118.543 3.59555 118.289 3.66767 118.063 3.8119C117.836 3.94925 117.654 4.1553 117.517 4.43005C117.386 4.70481 117.321 5.04479 117.321 5.44999C117.321 5.84838 117.386 6.18836 117.517 6.46994C117.647 6.74469 117.826 6.95415 118.052 7.09838C118.279 7.23573 118.537 7.30443 118.825 7.30443C119.168 7.30443 119.447 7.2186 119.66 7.04687C119.879 6.87514 120.041 6.62106 120.144 6.28449L121.184 6.53175C121.054 7.06059 120.789 7.49329 120.391 7.82986C119.993 8.15954 119.464 8.32438 118.805 8.32438ZM124.428 8.32438C123.906 8.32438 123.45 8.20416 123.058 7.96379C122.673 7.71653 122.374 7.37655 122.162 6.94385C121.956 6.51115 121.853 6.01663 121.853 5.4603C121.853 4.88336 121.962 4.37854 122.182 3.94584C122.402 3.51313 122.704 3.17657 123.089 2.9362C123.481 2.69583 123.927 2.57561 124.428 2.57561C124.978 2.57561 125.434 2.67864 125.799 2.88469C126.169 3.09073 126.448 3.38609 126.633 3.7707C126.825 4.1553 126.922 4.6155 126.922 5.15122C126.922 5.24736 126.918 5.34356 126.911 5.43969C126.911 5.529 126.904 5.61142 126.891 5.68695H122.481V4.85245H125.83C125.815 4.6464 125.778 4.46096 125.716 4.29612C125.654 4.13128 125.565 3.99046 125.448 3.87372C125.331 3.75698 125.187 3.66767 125.016 3.60586C124.851 3.54404 124.658 3.51313 124.439 3.51313C124.143 3.51313 123.878 3.58866 123.645 3.73979C123.419 3.88402 123.24 4.10037 123.11 4.38884C122.986 4.67731 122.924 5.0379 122.924 5.4706C122.924 5.87581 122.989 6.21579 123.12 6.49054C123.25 6.76529 123.432 6.97476 123.666 7.11899C123.899 7.26322 124.167 7.33534 124.47 7.33534C124.847 7.33534 125.139 7.25292 125.345 7.08808C125.558 6.91635 125.712 6.70348 125.809 6.44933L126.777 6.70689C126.64 7.17391 126.379 7.56199 125.994 7.87107C125.609 8.17325 125.088 8.32438 124.428 8.32438Z" fill="var(--fill-0, #101010)"/>
</svg>
