<svg preserveAspectRatio="none" width="100%" height="100%" overflow="visible" style="display: block;" viewBox="0 0 28.3317 28.3317" fill="none" xmlns="http://www.w3.org/2000/svg">
<path id="Vector" d="M14.1659 0C6.34244 0 0 6.3418 0 14.1659C0 21.9899 6.34244 28.3317 14.1659 28.3317C21.9893 28.3317 28.3317 21.9899 28.3317 14.1659C28.3317 6.3418 21.9893 0 14.1659 0ZM21.0771 20.4207C20.8496 20.8238 20.431 21.0505 19.9996 21.0505C19.7979 21.0505 19.5896 21.0002 19.3987 20.894C17.6301 19.9024 15.7027 19.2945 13.6657 19.0885C11.6246 18.8837 9.60915 19.0911 7.6732 19.7092C7.0271 19.9153 6.33169 19.5585 6.12564 18.9114C5.91747 18.263 6.27593 17.5702 6.92408 17.3628C9.18205 16.6417 11.5366 16.3963 13.9147 16.6378C16.2886 16.8793 18.538 17.5876 20.6028 18.7453C21.1973 19.0763 21.4098 19.8271 21.0771 20.4207ZM22.7727 16.1182C22.5538 16.5393 22.1245 16.7814 21.6802 16.7814C21.487 16.7814 21.2939 16.737 21.1114 16.6417C18.9372 15.509 16.5891 14.8078 14.1272 14.558C11.646 14.3043 9.18849 14.5252 6.81893 15.209C6.16427 15.3944 5.48174 15.0203 5.29501 14.3661C5.10615 13.7126 5.48393 13.03 6.13639 12.8413C8.81071 12.07 11.5838 11.8233 14.3762 12.1067C17.1493 12.3887 19.7979 13.1788 22.2512 14.4569C22.8521 14.7718 23.0882 15.5148 22.7727 16.1182ZM23.3865 12.5387C23.2019 12.5387 23.0152 12.4969 22.8371 12.4093C20.2572 11.1228 17.482 10.3218 14.5865 10.0275C11.6868 9.7313 8.80215 9.96053 6.00974 10.7062C5.35296 10.88 4.67905 10.4905 4.503 9.83304C4.32703 9.17561 4.71768 8.50016 5.37659 8.32502C8.45663 7.50276 11.6418 7.25228 14.8376 7.5768C18.0293 7.90004 21.0899 8.78476 23.936 10.2039C24.5456 10.5072 24.7924 11.2477 24.4897 11.8562C24.2751 12.2889 23.8394 12.5387 23.3865 12.5387Z" fill="var(--fill-0, #1ED760)"/>
</svg>
