<svg preserveAspectRatio="none" width="100%" height="100%" overflow="visible" style="display: block;" viewBox="0 0 18.0389 7.55105" fill="none" xmlns="http://www.w3.org/2000/svg">
<path id="Vector" d="M1.65741 0.790072C1.64067 0.650989 1.5737 0.543453 1.45651 0.466185C1.33997 0.389561 1.19637 0.350926 1.02574 0.350926C0.901465 0.350926 0.792643 0.371537 0.699277 0.411459C0.607199 0.452025 0.535083 0.507397 0.482927 0.577583C0.431415 0.647768 0.405662 0.728257 0.405662 0.817759C0.405662 0.892452 0.423686 0.957488 0.459101 1.01093C0.495803 1.06438 0.54281 1.1088 0.599473 1.14421C0.656137 1.17898 0.715381 1.20796 0.777839 1.2305C0.839654 1.25239 0.896956 1.27042 0.949112 1.28394L1.23437 1.36121C1.30777 1.37988 1.3889 1.40693 1.47904 1.44041C1.56919 1.47454 1.65548 1.5209 1.7379 1.57885C1.8216 1.6368 1.88985 1.71085 1.94394 1.80164C1.99803 1.89179 2.02508 2.00318 2.02508 2.13454C2.02508 2.2865 1.98515 2.42365 1.90531 2.54664C1.82675 2.66898 1.71149 2.76621 1.55953 2.83833C1.40886 2.91109 1.22535 2.94714 1.00964 2.94714C0.808103 2.94714 0.634242 2.91431 0.486788 2.84927C0.340622 2.78488 0.225362 2.69409 0.141011 2.57819C0.0579475 2.46164 0.0109463 2.32706 0 2.17317H0.350926C0.35994 2.27942 0.395999 2.36698 0.457814 2.43653C0.520916 2.50542 0.600762 2.55629 0.696703 2.59042C0.793932 2.62326 0.89825 2.63936 1.00964 2.63936C1.13971 2.63936 1.25626 2.61876 1.35928 2.57626C1.46295 2.53376 1.54472 2.47387 1.60525 2.39789C1.66513 2.32127 1.69539 2.23177 1.69539 2.12939C1.69539 2.03602 1.66965 1.96004 1.61749 1.90145C1.56533 1.84285 1.49643 1.7952 1.41144 1.75914C1.32644 1.72244 1.23437 1.69025 1.13585 1.66256L0.790072 1.56404C0.570501 1.50094 0.396649 1.41079 0.268512 1.2936C0.140376 1.17641 0.0766265 1.02316 0.0766265 0.833853C0.0766265 0.676741 0.119123 0.539594 0.204118 0.422404C0.290401 0.30457 0.405661 0.213129 0.549895 0.148095C0.695417 0.0824168 0.857683 0.0495778 1.03733 0.0495778C1.21827 0.0495778 1.37924 0.0817736 1.52026 0.146808C1.66063 0.210554 1.77267 0.298767 1.85444 0.410162C1.93815 0.521557 1.98194 0.648413 1.98644 0.790072H1.65741ZM3.45647 0.790072V1.06437H2.36441V0.790072H3.45647ZM2.68315 0.285245H3.00702V2.29358C3.00702 2.38566 3.01991 2.45392 3.04631 2.49963C3.07399 2.54471 3.10877 2.57496 3.15062 2.59042C3.19376 2.60458 3.23883 2.61232 3.28648 2.61232C3.32254 2.61232 3.35151 2.61038 3.37469 2.60652C3.39723 2.60201 3.41591 2.5988 3.42943 2.59558L3.4951 2.88662C3.47321 2.89499 3.44231 2.90335 3.40303 2.91108C3.36375 2.92074 3.31416 2.92525 3.25364 2.92525C3.1622 2.92525 3.0727 2.90529 2.98513 2.86601C2.89821 2.82674 2.82544 2.76685 2.76813 2.68636C2.71147 2.60587 2.68315 2.50414 2.68315 2.3818V0.285245ZM3.9439 2.89756V0.790072H4.25685V1.1088H4.27874C4.31673 1.00449 4.38626 0.91949 4.48735 0.854456C4.5878 0.790066 4.70113 0.757226 4.82733 0.757226C4.85116 0.757226 4.88078 0.757869 4.91684 0.758513C4.95226 0.759801 4.9793 0.761091 4.99733 0.763023V1.09206C4.98638 1.08948 4.96127 1.08498 4.92199 1.07983C4.88336 1.07339 4.84279 1.07017 4.79965 1.07017C4.69727 1.07017 4.60584 1.09141 4.52535 1.13455C4.44615 1.17641 4.38305 1.23501 4.33605 1.31034C4.29033 1.38439 4.26779 1.46874 4.26779 1.56404V2.89756H3.9439ZM6.20079 2.94134C5.99796 2.94134 5.82216 2.89691 5.67536 2.80677C5.52919 2.71662 5.41586 2.59042 5.33666 2.42815C5.25746 2.26525 5.21819 2.07595 5.21819 1.86024C5.21819 1.64453 5.25746 1.45458 5.33666 1.28974C5.41586 1.12426 5.52661 0.994825 5.66827 0.902747C5.81122 0.809381 5.97735 0.763023 6.16794 0.763023C6.2774 0.763023 6.38558 0.781057 6.49311 0.817759C6.6 0.854462 6.69723 0.913696 6.78544 0.996116C6.87301 1.07725 6.9432 1.18543 6.99536 1.32C7.04687 1.45458 7.07327 1.62006 7.07327 1.81645V1.9536H5.44871V1.6735H6.74424C6.74424 1.55502 6.72042 1.44878 6.67277 1.35541C6.62576 1.26205 6.55944 1.18864 6.47251 1.13455C6.38623 1.08046 6.28513 1.05343 6.16794 1.05343C6.03852 1.05343 5.92713 1.08562 5.83312 1.15001C5.73975 1.21311 5.66763 1.29489 5.61741 1.39663C5.56718 1.49837 5.54207 1.60718 5.54207 1.72308V1.90982C5.54207 2.06886 5.56976 2.20408 5.62449 2.31418C5.68051 2.42429 5.75778 2.508 5.8563 2.5653C5.95481 2.62197 6.07007 2.6503 6.20079 2.6503C6.28578 2.6503 6.36241 2.63872 6.4313 2.61489C6.50085 2.59042 6.56072 2.55372 6.61095 2.50543C6.66117 2.45585 6.69981 2.39467 6.72749 2.32127L7.04044 2.40884C7.0076 2.51508 6.95221 2.60845 6.8743 2.68893C6.79639 2.76878 6.70045 2.8306 6.58648 2.87567C6.47187 2.91946 6.34309 2.94134 6.20079 2.94134ZM8.18593 2.94714C8.05265 2.94714 7.93095 2.92203 7.82213 2.87181C7.71331 2.8203 7.62703 2.74689 7.56328 2.6503C7.49889 2.55372 7.4667 2.43653 7.4667 2.29938C7.4667 2.17897 7.49052 2.0811 7.53817 2.00576C7.58582 1.92978 7.64957 1.87054 7.72877 1.82739C7.80861 1.78425 7.89617 1.7527 7.99276 1.73145C8.08935 1.70956 8.18658 1.69218 8.28445 1.6793C8.41259 1.66256 8.51626 1.65032 8.5961 1.64195C8.67659 1.63294 8.73518 1.61812 8.77189 1.59688C8.80923 1.57563 8.82791 1.53957 8.82791 1.48741V1.47647C8.82791 1.3406 8.7912 1.23565 8.71715 1.16095C8.64375 1.08562 8.53236 1.04828 8.38362 1.04828C8.22908 1.04828 8.10802 1.08175 8.01981 1.15001C7.93224 1.21762 7.87043 1.28973 7.83437 1.36636L7.52722 1.2569C7.58196 1.12876 7.65536 1.02896 7.7468 0.957483C7.83952 0.885366 7.93996 0.835146 8.04878 0.806814C8.15825 0.777194 8.26643 0.763023 8.37267 0.763023C8.44028 0.763023 8.51819 0.770756 8.60576 0.787498C8.69462 0.802951 8.78026 0.835781 8.86203 0.884718C8.94574 0.934298 9.01464 1.009 9.06937 1.1088C9.12411 1.20796 9.15179 1.34189 9.15179 1.5093V2.89756H8.82791V2.61232H8.81181C8.78927 2.65803 8.75322 2.70697 8.70171 2.75913C8.65084 2.81128 8.58258 2.85571 8.49759 2.89177C8.41259 2.92847 8.30827 2.94714 8.18593 2.94714ZM8.23552 2.6561C8.36366 2.6561 8.47119 2.63098 8.55876 2.58076C8.64762 2.53053 8.71458 2.4655 8.75965 2.38566C8.80537 2.30646 8.82791 2.22275 8.82791 2.13454V1.83834C8.81439 1.85508 8.78412 1.8699 8.73712 1.88342C8.6914 1.8963 8.6386 1.90789 8.57808 1.91819C8.51884 1.9272 8.46088 1.93557 8.40422 1.94265C8.3482 1.94909 8.30313 1.95489 8.26836 1.9594C8.18401 1.97034 8.10545 1.98773 8.03204 2.01284C7.95992 2.03667 7.90133 2.07273 7.8569 2.12102C7.81247 2.16867 7.79058 2.2337 7.79058 2.31612C7.79058 2.42816 7.83243 2.51315 7.91549 2.5711C7.99985 2.62776 8.1061 2.6561 8.23552 2.6561ZM9.74289 2.89756V0.790072H10.0558V1.11975H10.0829C10.1267 1.00706 10.1975 0.919494 10.2954 0.857679C10.3932 0.794576 10.5111 0.763023 10.6482 0.763023C10.7873 0.763023 10.9032 0.794576 10.9953 0.857679C11.0887 0.919494 11.1614 1.00706 11.2136 1.11975H11.2355C11.2895 1.01093 11.37 0.923999 11.4782 0.860253C11.5864 0.795219 11.7158 0.763023 11.8665 0.763023C12.0551 0.763023 12.209 0.821624 12.3288 0.940102C12.4486 1.05665 12.5084 1.23951 12.5084 1.48741V2.89756H12.1846V1.48741C12.1846 1.33159 12.1421 1.22084 12.0571 1.15388C11.9721 1.08691 11.8723 1.05343 11.757 1.05343C11.6083 1.05343 11.4937 1.0985 11.4125 1.188C11.3308 1.27686 11.2902 1.38954 11.2902 1.52541V2.89756H10.9612V1.45458C10.9612 1.33417 10.9219 1.23823 10.8446 1.16482C10.7667 1.09077 10.6662 1.05343 10.5439 1.05343C10.4596 1.05343 10.381 1.07596 10.3082 1.12103C10.2355 1.16546 10.1769 1.22793 10.1325 1.30777C10.0887 1.38633 10.0668 1.47711 10.0668 1.58078V2.89756H9.74289ZM13.1008 2.89756V0.790072H13.4241V2.89756H13.1008ZM13.265 0.439146C13.2019 0.439146 13.1479 0.417249 13.1021 0.374752C13.0571 0.33161 13.0345 0.2801 13.0345 0.219573C13.0345 0.159046 13.0571 0.107536 13.1021 0.0643942C13.1479 0.0212527 13.2019 0 13.265 0C13.3281 0 13.3822 0.0212527 13.4273 0.0643942C13.473 0.107536 13.4956 0.159046 13.4956 0.219573C13.4956 0.2801 13.473 0.33161 13.4273 0.374752C13.3822 0.417249 13.3281 0.439146 13.265 0.439146ZM14.341 1.62972V2.89756H14.0171V0.790072H14.3301V1.11975H14.3577C14.4073 1.01221 14.482 0.926574 14.5825 0.86154C14.6836 0.795862 14.813 0.763023 14.972 0.763023C15.115 0.763023 15.2399 0.792 15.3468 0.850595C15.4537 0.908546 15.5374 0.996115 15.5966 1.11395C15.6558 1.23114 15.6855 1.37924 15.6855 1.55824V2.89756H15.3616V1.58078C15.3616 1.41466 15.3191 1.28588 15.2328 1.1938C15.1472 1.10043 15.0287 1.05343 14.8787 1.05343C14.7756 1.05343 14.6836 1.07596 14.6018 1.12103C14.5213 1.16546 14.4575 1.23114 14.4112 1.31678C14.3642 1.40306 14.341 1.50738 14.341 1.62972ZM17.1278 3.73142C16.9713 3.73142 16.8368 3.71145 16.7247 3.67153C16.612 3.63225 16.518 3.5801 16.4433 3.51506C16.3693 3.45067 16.3101 3.38243 16.2663 3.30902L16.5245 3.12808C16.5534 3.16671 16.5908 3.2105 16.6352 3.25943C16.6803 3.3103 16.7415 3.35344 16.8194 3.39015C16.8979 3.42749 17.001 3.44617 17.1278 3.44617C17.2978 3.44617 17.4382 3.40495 17.5489 3.32318C17.6597 3.24076 17.7151 3.11134 17.7151 2.93619V2.508H17.688C17.6642 2.54664 17.6301 2.59364 17.5863 2.6503C17.5431 2.70632 17.4807 2.75655 17.3995 2.80033C17.3191 2.84283 17.2102 2.86473 17.0731 2.86473C16.9031 2.86473 16.7505 2.82416 16.6146 2.74367C16.4807 2.66318 16.3738 2.54664 16.2952 2.39274C16.2173 2.23885 16.1787 2.05212 16.1787 1.83319C16.1787 1.61684 16.2167 1.42882 16.2927 1.26913C16.3686 1.10815 16.4742 0.983888 16.6095 0.895673C16.7447 0.807458 16.9012 0.763023 17.0782 0.763023C17.216 0.763023 17.3248 0.785562 17.4053 0.831279C17.4865 0.876352 17.5489 0.927219 17.5914 0.98517C17.6359 1.04183 17.6693 1.08819 17.6932 1.12489H17.726V0.790072H18.0389V2.95809C18.0389 3.13902 17.9977 3.28648 17.9153 3.39981C17.8342 3.51378 17.7241 3.59748 17.5863 3.65093C17.4491 3.70502 17.2965 3.73142 17.1278 3.73142ZM17.1169 2.57368C17.2469 2.57368 17.3564 2.54406 17.4465 2.48482C17.536 2.42493 17.6043 2.33995 17.6507 2.22791C17.697 2.11651 17.7208 1.98322 17.7208 1.82739C17.7208 1.67543 17.6977 1.54151 17.6519 1.4256C17.6062 1.30906 17.5386 1.21826 17.4491 1.15258C17.3596 1.08626 17.2489 1.05343 17.1169 1.05343C16.9797 1.05343 16.8657 1.0882 16.7737 1.15774C16.6835 1.22728 16.6153 1.32065 16.5695 1.43784C16.5245 1.55503 16.5026 1.68445 16.5026 1.82739C16.5026 1.97356 16.5251 2.10298 16.5708 2.21567C16.6178 2.32706 16.6861 2.41528 16.7769 2.47903C16.8683 2.54213 16.9816 2.57368 17.1169 2.57368ZM1.72566 7.55105V4.65349H2.03796V4.98831H2.07659C2.10041 4.95161 2.13325 4.90525 2.17511 4.84859C2.21825 4.79064 2.27942 4.73977 2.35926 4.69469C2.43975 4.64898 2.54857 4.62644 2.68572 4.62644C2.86344 4.62644 3.0199 4.67087 3.15512 4.75909C3.29034 4.84795 3.39594 4.97351 3.47192 5.13642C3.5479 5.29932 3.58589 5.4912 3.58589 5.7127C3.58589 5.93614 3.5479 6.12931 3.47192 6.29286C3.39594 6.45577 3.29099 6.58197 3.15642 6.67212C3.02184 6.76033 2.86666 6.80476 2.69152 6.80476C2.55565 6.80476 2.44748 6.78223 2.36634 6.7378C2.28457 6.69208 2.22211 6.63993 2.17832 6.58262C2.13453 6.52403 2.10041 6.47573 2.07659 6.43709H2.0489V7.55105H1.72566ZM2.04374 5.70755C2.04374 5.8666 2.06693 6.00697 2.11394 6.12867C2.1603 6.24908 2.22855 6.34373 2.31805 6.41263C2.40756 6.48024 2.51766 6.51372 2.64709 6.51372C2.78295 6.51372 2.89563 6.4783 2.98642 6.40683C3.07786 6.33471 3.14611 6.23748 3.19183 6.11643C3.23883 5.99344 3.26201 5.85758 3.26201 5.70755C3.26201 5.55946 3.23883 5.42552 3.19311 5.3064C3.14868 5.18663 3.08043 5.09198 2.989 5.02244C2.8982 4.95226 2.78424 4.91684 2.64709 4.91684C2.51573 4.91684 2.40498 4.95033 2.31548 5.01729C2.22598 5.08297 2.15772 5.17569 2.112 5.29417C2.06628 5.41265 2.04374 5.5498 2.04374 5.70755ZM4.40365 3.95099V6.76098H4.07977V3.95099H4.40365ZM5.61677 6.81056C5.48284 6.81056 5.36178 6.78545 5.25296 6.73523C5.14414 6.68371 5.05786 6.6103 4.99347 6.51372C4.92972 6.41713 4.89753 6.29994 4.89753 6.16279C4.89753 6.04238 4.92134 5.94451 4.96899 5.86918C5.01664 5.7932 5.08039 5.73395 5.15959 5.69081C5.23944 5.64767 5.327 5.61612 5.42295 5.59487C5.52018 5.57298 5.61741 5.55559 5.71528 5.54272C5.84342 5.52597 5.94709 5.51374 6.02693 5.50537C6.10742 5.49636 6.16601 5.48154 6.20271 5.46029C6.24006 5.43904 6.25873 5.40299 6.25873 5.35083V5.33988C6.25873 5.20402 6.22139 5.09906 6.14734 5.02437C6.07458 4.94903 5.96318 4.91169 5.81444 4.91169C5.65926 4.91169 5.5382 4.94517 5.45063 5.01342C5.36306 5.08103 5.30125 5.15315 5.26519 5.22977L4.95805 5.12031C5.01278 4.99218 5.08619 4.89237 5.17762 4.8209C5.2697 4.74878 5.37079 4.69856 5.47961 4.67023C5.58907 4.64061 5.69726 4.62644 5.80286 4.62644C5.87111 4.62644 5.94837 4.63417 6.03659 4.65091C6.1248 4.66637 6.21044 4.6992 6.29286 4.74813C6.37592 4.79771 6.44547 4.87241 6.5002 4.97222C6.55493 5.07138 6.58262 5.20531 6.58262 5.37272V6.76098H6.25873V6.47573H6.24199C6.2201 6.52145 6.1834 6.57039 6.13253 6.62254C6.08102 6.6747 6.01277 6.71912 5.92777 6.75518C5.84278 6.79188 5.73911 6.81056 5.61677 6.81056ZM5.6657 6.51952C5.79383 6.51952 5.90201 6.4944 5.98958 6.44418C6.07844 6.39395 6.14541 6.32892 6.18984 6.24908C6.23556 6.16988 6.25873 6.08617 6.25873 5.99796V5.70176C6.24521 5.7185 6.21495 5.73331 6.16794 5.74683C6.12222 5.75971 6.06943 5.7713 6.0089 5.78161C5.94966 5.79062 5.89171 5.79899 5.8344 5.80607C5.77903 5.81251 5.73395 5.8183 5.69918 5.82281C5.61483 5.83376 5.53628 5.85115 5.46288 5.87626C5.39076 5.90009 5.33216 5.93614 5.28708 5.98444C5.2433 6.03208 5.22141 6.09711 5.22141 6.17953C5.22141 6.29157 5.26326 6.37657 5.34632 6.43452C5.43067 6.49118 5.53692 6.51952 5.6657 6.51952ZM8.08999 4.65349V4.92779H6.99793V4.65349H8.08999ZM7.31602 4.14866H7.63991V6.157C7.63991 6.24907 7.65343 6.31733 7.67983 6.36305C7.70687 6.40812 7.74164 6.43838 7.78414 6.45383C7.82664 6.468 7.87236 6.47573 7.92 6.47573C7.95542 6.47573 7.9844 6.4738 8.00758 6.46994C8.03011 6.46543 8.04878 6.46221 8.0623 6.45899L8.12798 6.75003C8.10609 6.7584 8.07583 6.76677 8.03655 6.7745C7.99727 6.78416 7.94705 6.78867 7.88652 6.78867C7.79509 6.78867 7.70559 6.76871 7.61802 6.72943C7.53109 6.69015 7.45897 6.63026 7.40102 6.54978C7.34436 6.46929 7.31602 6.36756 7.31602 6.24522V4.14866ZM9.51559 4.65349V4.92779H8.37911V4.65349H9.51559ZM8.71973 6.76098V4.36309C8.71973 4.24203 8.74806 4.14159 8.80472 4.0611C8.86139 3.98061 8.93479 3.92008 9.02558 3.88016C9.11637 3.83959 9.21168 3.81964 9.31212 3.81964C9.39197 3.81964 9.457 3.82607 9.50722 3.83895C9.55745 3.85183 9.5948 3.86342 9.61991 3.87436L9.52654 4.15446C9.5098 4.14866 9.48726 4.14223 9.45764 4.13385C9.42931 4.12548 9.39196 4.12162 9.34496 4.12162C9.23807 4.12162 9.1608 4.14802 9.11315 4.20211C9.06679 4.2562 9.04361 4.3354 9.04361 4.43971V6.76098H8.71973ZM10.7384 6.80476C10.5484 6.80476 10.381 6.75969 10.2374 6.6689C10.0951 6.57875 9.98371 6.4519 9.90258 6.289C9.82338 6.12609 9.78346 5.93614 9.78346 5.7185C9.78346 5.49893 9.82338 5.30705 9.90258 5.1435C9.98371 4.97995 10.0951 4.85245 10.2374 4.7623C10.381 4.67151 10.5484 4.62644 10.7384 4.62644C10.929 4.62644 11.0951 4.67151 11.238 4.7623C11.3816 4.85245 11.493 4.97995 11.5729 5.1435C11.6534 5.30705 11.6933 5.49893 11.6933 5.7185C11.6933 5.93614 11.6534 6.12609 11.5729 6.289C11.493 6.4519 11.3816 6.57875 11.238 6.6689C11.0951 6.75969 10.929 6.80476 10.7384 6.80476ZM10.7384 6.51372C10.8832 6.51372 11.0017 6.47702 11.0951 6.40297C11.1885 6.32892 11.2573 6.23169 11.3024 6.11064C11.3468 5.99023 11.3694 5.85887 11.3694 5.7185C11.3694 5.57748 11.3468 5.44613 11.3024 5.32443C11.2573 5.20273 11.1885 5.10486 11.0951 5.02953C11.0017 4.95483 10.8832 4.91684 10.7384 4.91684C10.5941 4.91684 10.475 4.95483 10.3816 5.02953C10.2883 5.10486 10.2194 5.20273 10.1743 5.32443C10.1299 5.44613 10.1073 5.57748 10.1073 5.7185C10.1073 5.85887 10.1299 5.99023 10.1743 6.11064C10.2194 6.23169 10.2883 6.32892 10.3816 6.40297C10.475 6.47702 10.5941 6.51372 10.7384 6.51372ZM12.1878 6.76098V4.65349H12.5001V4.97222H12.5226C12.5606 4.8679 12.6301 4.78291 12.7306 4.71787C12.8317 4.65348 12.945 4.62064 13.0712 4.62064C13.0951 4.62064 13.1247 4.62129 13.1601 4.62193C13.1961 4.62322 13.2232 4.62451 13.2412 4.62644V4.95547C13.2303 4.9529 13.2052 4.94839 13.1659 4.94324C13.1272 4.9368 13.0867 4.93358 13.0435 4.93358C12.9412 4.93358 12.8497 4.95483 12.7692 4.99797C12.6894 5.03982 12.6263 5.09842 12.5799 5.17376C12.5342 5.24781 12.511 5.33216 12.511 5.42746V6.76098H12.1878ZM13.625 6.76098V4.65349H13.9379V4.98316H13.965C14.0094 4.87048 14.0802 4.78291 14.1781 4.7211C14.276 4.65799 14.3932 4.62644 14.5303 4.62644C14.6694 4.62644 14.7853 4.65799 14.8774 4.7211C14.9707 4.78291 15.0435 4.87048 15.0957 4.98316H15.1175C15.1716 4.87434 15.2528 4.78742 15.3603 4.72367C15.4685 4.65864 15.5979 4.62644 15.7486 4.62644C15.9372 4.62644 16.0911 4.68504 16.2109 4.80352C16.3307 4.92006 16.3905 5.10293 16.3905 5.35083V6.76098H16.0673V5.35083C16.0673 5.19501 16.0248 5.08426 15.9398 5.01729C15.8542 4.95033 15.7544 4.91684 15.6391 4.91684C15.491 4.91684 15.3764 4.96192 15.2946 5.05142C15.2135 5.14028 15.1723 5.25296 15.1723 5.38882V6.76098H14.8432V5.31799C14.8432 5.19758 14.8046 5.10164 14.7267 5.02824C14.6488 4.95419 14.549 4.91684 14.426 4.91684C14.3423 4.91684 14.2637 4.93938 14.1903 4.98445C14.1182 5.02888 14.0596 5.09134 14.0145 5.17119C13.9708 5.24974 13.9489 5.34053 13.9489 5.4442V6.76098H13.625Z" fill="var(--fill-0, #101010)" fill-opacity="0.4"/>
</svg>
