<svg preserveAspectRatio="none" width="100%" height="100%" overflow="visible" style="display: block;" viewBox="0 0 18.0975 5.8035" fill="none" xmlns="http://www.w3.org/2000/svg">
<path id="Vector" d="M2.36506 0.0772652V5.69661H1.34705V1.06759H1.31421L0 1.90724V0.974225L1.39663 0.0772652H2.36506ZM5.86918 5.8035C5.4178 5.8035 5.02952 5.68953 4.70564 5.46094C4.38369 5.23042 4.13579 4.89817 3.96258 4.46483C3.79066 4.02955 3.70438 3.50541 3.70438 2.89241C3.70631 2.27942 3.79323 1.7585 3.96516 1.32837C4.13901 0.896315 4.38691 0.567283 4.70886 0.340629C5.03275 0.113975 5.41909 0 5.86918 0C6.31926 0 6.70625 0.113975 7.03013 0.340629C7.35401 0.567283 7.60191 0.896315 7.77383 1.32837C7.94704 1.75979 8.03398 2.28135 8.03398 2.89241C8.03398 3.5067 7.94704 4.03212 7.77383 4.4674C7.60191 4.90075 7.35401 5.23171 7.03013 5.46094C6.70818 5.68953 6.3212 5.8035 5.86918 5.8035ZM5.86918 4.94453C6.22075 4.94453 6.49762 4.77196 6.70045 4.42618C6.90586 4.07848 7.00824 3.56722 7.00824 2.89241C7.00824 2.44619 6.96123 2.07079 6.86787 1.76751C6.7745 1.46359 6.64315 1.23501 6.47316 1.08111C6.30317 0.925933 6.10162 0.848021 5.86918 0.848021C5.52018 0.848021 5.24394 1.02187 5.04047 1.36958C4.83764 1.71536 4.73526 2.22276 4.73333 2.89241C4.73139 3.34057 4.77647 3.71725 4.8679 4.0231C4.96127 4.32831 5.09263 4.55883 5.26262 4.71401C5.43325 4.8679 5.63544 4.94453 5.86918 4.94453ZM11.023 5.8035C10.571 5.8035 10.1833 5.68953 9.85943 5.46094C9.53748 5.23042 9.28958 4.89817 9.11573 4.46483C8.94381 4.02955 8.85817 3.50541 8.85817 2.89241C8.8601 2.27942 8.94703 1.7585 9.11895 1.32837C9.2928 0.896315 9.54071 0.567283 9.86266 0.340629C10.1859 0.113975 10.5729 0 11.023 0C11.4731 0 11.86 0.113975 12.1839 0.340629C12.5078 0.567283 12.7551 0.896315 12.9276 1.32837C13.1008 1.75979 13.1878 2.28135 13.1878 2.89241C13.1878 3.5067 13.1008 4.03212 12.9276 4.4674C12.7551 4.90075 12.5078 5.23171 12.1839 5.46094C11.862 5.68953 11.475 5.8035 11.023 5.8035ZM11.023 4.94453C11.3745 4.94453 11.6514 4.77196 11.8542 4.42618C12.059 4.07848 12.162 3.56722 12.162 2.89241C12.162 2.44619 12.115 2.07079 12.0217 1.76751C11.9283 1.46359 11.7969 1.23501 11.627 1.08111C11.4563 0.925933 11.2554 0.848021 11.023 0.848021C10.674 0.848021 10.3977 1.02187 10.1943 1.36958C9.99144 1.71536 9.88905 2.22276 9.88712 2.89241C9.88519 3.34057 9.93027 3.71725 10.0217 4.0231C10.1151 4.32831 10.2464 4.55883 10.4164 4.71401C10.587 4.8679 10.7886 4.94453 11.023 4.94453ZM15.7679 4.79643V0.999338H16.6294V4.79643H15.7679ZM14.2998 3.32834V2.46679H18.0975V3.32834H14.2998Z" fill="var(--fill-0, #101010)"/>
</svg>
